<?xml version="1.0" encoding="utf-8"?>
<!-- Generator: Adobe Illustrator 25.1.0, SVG Export Plug-In . SVG Version: 6.00 Build 0)  -->
<svg version="1.1" id="Logos-amqp" xmlns="http://www.w3.org/2000/svg" xmlns:xlink="http://www.w3.org/1999/xlink" x="0px" y="0px"
	 viewBox="0 0 300 87" style="enable-background:new 0 0 300 87;" xml:space="preserve">
<style type="text/css">
	.st0{fill:#FFFFFF;}
</style>
<g id="AMQP">
	<polygon class="st0" points="25.1,53.6 44.9,53.6 44.9,53.6 44.9,33.8 44.9,28.5 44.9,8.7 25.1,8.7 25.1,28.5 25.1,33.8 25.1,33.8 
		25.1,33.8 19.8,33.8 0,33.8 0,53.6 19.8,53.6 	"/>
	<polygon class="st0" points="50.5,28.5 50.5,33.8 50.5,53.6 50.5,59.3 50.5,59.3 50.5,59.3 44.9,59.3 25.1,59.3 19.8,59.3 0,59.3 
		0,79.1 19.8,79.1 25.1,79.1 44.9,79.1 50.5,79.1 70.3,79.1 70.3,79.1 70.3,59.3 70.3,53.6 70.3,33.8 70.3,28.5 70.3,8.7 50.5,8.7 	
		"/>
	<polygon class="st0" points="19.8,28.5 19.8,8.7 0,8.7 0,8.7 0,28.5 19.8,28.5 	"/>
	<path class="st0" d="M84.1,68.1l-3.4,8.7h1.9l0.7-2h3.5l0.8,2h1.9L86,68.1H84.1z M83.8,73.3l1.2-3.2l1.2,3.2H83.8z"/>
	<path class="st0" d="M94.5,71.2c-0.4-0.6-1.1-0.9-1.8-0.9c-0.7,0-1.4,0.3-1.9,0.8c-1,1.5-1,3.4,0,4.9c0.7,0.9,1.9,1.1,2.9,0.6
		c0.4-0.2,0.7-0.5,0.9-0.8v0.9h1.6v-8.7h-1.6V71.2z M94.1,75.1c-0.2,0.3-0.6,0.5-1,0.5c-0.5,0-0.9-0.2-1.1-0.7
		c-0.2-0.5-0.3-1-0.3-1.5c0-0.5,0.1-1,0.4-1.4c0.5-0.6,1.3-0.6,1.8-0.2c0.1,0.1,0.1,0.1,0.2,0.2c0.3,0.5,0.4,1,0.4,1.6
		C94.5,74.1,94.4,74.7,94.1,75.1z"/>
	<path class="st0" d="M100.6,73.7c-0.1,0.2-0.1,0.4-0.2,0.5c0,0.1-0.1,0.3-0.2,0.5l-0.3-1.1l-1.2-3.2H97l2.5,6.3h1.5l2.5-6.3h-1.7
		L100.6,73.7z"/>
	<path class="st0" d="M109.7,74.7v-2c0-0.5,0-1-0.2-1.5c-0.2-0.3-0.4-0.5-0.8-0.7c-0.5-0.2-1.1-0.3-1.7-0.3c-0.6,0-1.3,0.1-1.8,0.4
		c-0.4,0.3-0.8,0.8-0.9,1.3l1.5,0.3c0.1-0.2,0.2-0.5,0.4-0.6c0.2-0.1,0.4-0.2,0.7-0.2c0.3,0,0.6,0,0.9,0.2c0.2,0.2,0.3,0.4,0.2,0.7
		v0.2c-0.5,0.2-1.1,0.3-1.6,0.4c-0.5,0.1-0.9,0.2-1.3,0.4c-0.3,0.1-0.5,0.4-0.7,0.6c-0.2,0.3-0.3,0.6-0.2,1c0,0.5,0.2,1,0.6,1.3
		c0.4,0.4,1,0.6,1.5,0.5c0.3,0,0.7-0.1,1-0.2c0.3-0.2,0.7-0.4,0.9-0.6l0.1,0.2c0,0.2,0.1,0.3,0.2,0.5h1.7c-0.1-0.3-0.2-0.6-0.3-0.8
		C109.7,75.5,109.6,75.1,109.7,74.7z M108.1,74.1c0,0.3,0,0.6-0.1,0.8c-0.1,0.2-0.2,0.4-0.4,0.6c-0.2,0.2-0.5,0.3-0.9,0.3
		c-0.2,0-0.5-0.1-0.7-0.3c-0.2-0.2-0.3-0.4-0.3-0.6c0-0.2,0.1-0.5,0.3-0.6c0.3-0.1,0.6-0.2,0.9-0.3c0.5-0.1,0.8-0.2,1-0.3
		L108.1,74.1z"/>
	<path class="st0" d="M116.7,71c-0.2-0.2-0.4-0.4-0.7-0.5c-0.3-0.1-0.7-0.2-1-0.2c-0.8,0-1.6,0.4-2.1,1.1v-0.9h-1.6v6.3h1.7v-2.8
		c0-0.5,0-1,0.1-1.4c0.1-0.3,0.2-0.5,0.5-0.6c0.2-0.2,0.5-0.2,0.8-0.2c0.2,0,0.4,0,0.6,0.2c0.2,0.1,0.3,0.3,0.3,0.5
		c0.1,0.4,0.1,0.9,0.1,1.3v3.2h1.7v-3.9c0-0.4,0-0.8-0.1-1.1C116.9,71.5,116.8,71.2,116.7,71z"/>
	<path class="st0" d="M122.3,75.3c-0.2,0.2-0.5,0.3-0.8,0.3c-0.4,0-0.8-0.2-1-0.5c-0.3-0.5-0.4-1-0.4-1.6c0-0.5,0.1-1,0.4-1.4
		c0.3-0.3,0.6-0.4,1-0.4c0.3,0,0.5,0.1,0.8,0.2c0.2,0.2,0.3,0.5,0.4,0.7l1.6-0.3c-0.2-0.6-0.5-1.1-1-1.5c-0.5-0.4-1.2-0.5-1.8-0.5
		c-0.8,0-1.6,0.3-2.2,0.9c-1.1,1.4-1.1,3.4,0,4.8c0.6,0.6,1.4,0.9,2.2,0.9c0.7,0,1.4-0.2,1.9-0.6c0.5-0.4,0.9-1,1-1.7l-1.6-0.3
		C122.7,74.7,122.5,75,122.3,75.3z"/>
	<path class="st0" d="M130.2,71.2c-0.6-0.6-1.4-1-2.2-0.9c-0.8,0-1.5,0.3-2.1,0.9c-0.6,0.7-0.9,1.6-0.8,2.4c0,0.8,0.2,1.5,0.6,2.2
		c0.6,0.7,1.5,1.1,2.4,1.1c0.6,0,1.2-0.1,1.7-0.5c0.5-0.3,0.8-0.8,1-1.4l-1.7-0.3c-0.1,0.3-0.2,0.5-0.4,0.7
		c-0.2,0.1-0.4,0.2-0.7,0.2c-0.4,0-0.7-0.1-1-0.4c-0.3-0.3-0.4-0.7-0.4-1.2h4.2C131,73.1,130.8,72.1,130.2,71.2z M126.8,73.1
		c0-0.4,0.1-0.8,0.3-1.1c0.5-0.5,1.2-0.5,1.7-0.1c0,0,0,0,0.1,0.1c0.3,0.3,0.4,0.7,0.4,1.1L126.8,73.1z"/>
	<path class="st0" d="M136.4,71.2c-0.4-0.6-1.1-0.9-1.8-0.9c-0.7,0-1.4,0.3-1.9,0.8c-0.5,0.7-0.8,1.6-0.8,2.4
		c-0.1,0.9,0.2,1.8,0.8,2.4c0.5,0.6,1.1,0.9,1.9,0.9c0.4,0,0.7-0.1,1.1-0.3c0.4-0.2,0.7-0.5,0.9-0.8v0.9h1.6v-8.7h-1.7L136.4,71.2z
		 M136,75.1c-0.2,0.3-0.6,0.5-1,0.5c-0.5,0-0.9-0.2-1.1-0.7c-0.2-0.5-0.3-1-0.3-1.5c0-0.5,0.1-1,0.4-1.4c0.2-0.3,0.6-0.5,1-0.5
		c0.4,0,0.8,0.2,1,0.5c0.3,0.5,0.4,1,0.4,1.6C136.4,74.1,136.3,74.7,136,75.1L136,75.1z"/>
	<polygon class="st0" points="147.3,74 145.7,68.1 143.1,68.1 143.1,76.8 144.7,76.8 144.7,69.9 146.5,76.8 148.1,76.8 149.9,69.9 
		149.9,76.8 151.5,76.8 151.5,68.1 148.9,68.1 	"/>
	<path class="st0" d="M157.9,71.2c-0.6-0.6-1.4-1-2.2-0.9c-0.8,0-1.5,0.3-2.1,0.9c-0.6,0.7-0.9,1.6-0.8,2.4c0,0.8,0.2,1.5,0.6,2.2
		c0.6,0.7,1.5,1.1,2.4,1.1c0.6,0,1.2-0.1,1.7-0.5c0.5-0.3,0.8-0.8,1-1.4l-1.7-0.3c-0.1,0.3-0.2,0.5-0.4,0.7
		c-0.2,0.1-0.4,0.2-0.6,0.2c-0.4,0-0.7-0.1-1-0.4c-0.3-0.3-0.4-0.7-0.4-1.2h4.2C158.7,73.1,158.5,72.1,157.9,71.2z M154.5,73.1
		c0-0.4,0.1-0.8,0.4-1.1c0.5-0.5,1.2-0.5,1.7-0.1c0,0,0,0,0.1,0.1c0.3,0.3,0.4,0.7,0.4,1.1L154.5,73.1z"/>
	<path class="st0" d="M162.9,72.8c-0.5-0.1-1.1-0.2-1.6-0.5c-0.1-0.1-0.2-0.2-0.2-0.3c0-0.1,0.1-0.3,0.2-0.3c0.3-0.1,0.7-0.2,1-0.2
		c0.3,0,0.6,0,0.8,0.2c0.2,0.1,0.3,0.3,0.4,0.6l1.6-0.3c-0.1-0.5-0.4-1-0.9-1.2c-0.6-0.3-1.3-0.5-1.9-0.4c-0.7-0.1-1.4,0.1-2,0.6
		c-0.4,0.3-0.7,0.8-0.6,1.4c0,0.6,0.3,1.1,0.8,1.4c0.8,0.4,1.7,0.7,2.6,0.8c0.2,0,0.4,0.1,0.6,0.2c0.1,0.1,0.1,0.2,0.1,0.3
		c0,0.2-0.1,0.3-0.2,0.4c-0.3,0.2-0.6,0.3-1,0.2c-0.3,0-0.6-0.1-0.9-0.2c-0.2-0.2-0.4-0.4-0.4-0.7l-1.7,0.2c0.1,0.6,0.5,1.1,1,1.4
		c0.6,0.4,1.3,0.6,2,0.5c0.8,0.1,1.5-0.2,2.1-0.6c0.5-0.4,0.7-0.9,0.7-1.5c0-0.5-0.2-0.9-0.5-1.2C164.2,73.2,163.6,72.9,162.9,72.8z
		"/>
	<path class="st0" d="M169.7,72.8c-0.5-0.1-1.1-0.2-1.6-0.5c-0.2-0.1-0.2-0.3-0.1-0.5c0-0.1,0.1-0.1,0.1-0.1
		c0.3-0.1,0.6-0.2,0.9-0.2c0.3,0,0.6,0,0.8,0.2c0.2,0.1,0.3,0.3,0.4,0.6l1.6-0.3c-0.1-0.5-0.4-1-0.9-1.2c-0.6-0.3-1.3-0.5-1.9-0.4
		c-0.7-0.1-1.4,0.1-2,0.6c-0.4,0.3-0.7,0.8-0.6,1.4c0,0.6,0.3,1.1,0.8,1.4c0.8,0.4,1.7,0.7,2.6,0.8c0.2,0,0.4,0.1,0.6,0.2
		c0.1,0.1,0.1,0.2,0.1,0.3c0,0.2-0.1,0.3-0.2,0.4c-0.3,0.2-0.6,0.3-1,0.2c-0.3,0-0.6-0.1-0.9-0.2c-0.2-0.2-0.4-0.4-0.4-0.7l-1.7,0.2
		c0.1,0.6,0.5,1.1,1,1.4c0.6,0.4,1.3,0.6,2,0.5c0.8,0.1,1.5-0.2,2.1-0.6c0.5-0.4,0.7-0.9,0.7-1.5c0-0.5-0.2-0.9-0.5-1.2
		C171,73.2,170.3,72.9,169.7,72.8z"/>
	<path class="st0" d="M178.6,74.7v-2c0-0.5,0-1-0.2-1.5c-0.2-0.3-0.4-0.5-0.8-0.7c-0.5-0.2-1.1-0.3-1.7-0.3c-0.6,0-1.3,0.1-1.9,0.4
		c-0.4,0.3-0.8,0.8-0.9,1.3l1.5,0.3c0.1-0.2,0.2-0.5,0.4-0.6c0.2-0.1,0.5-0.2,0.7-0.2c0.3,0,0.6,0,0.9,0.2c0.2,0.2,0.3,0.4,0.2,0.7
		v0.2c-0.5,0.2-1.1,0.3-1.6,0.4c-0.5,0.1-0.9,0.2-1.3,0.4c-0.3,0.1-0.5,0.4-0.7,0.6c-0.2,0.3-0.3,0.6-0.3,1c0,0.5,0.2,1,0.6,1.3
		c0.4,0.4,1,0.6,1.5,0.5c0.3,0,0.7-0.1,1-0.2c0.3-0.2,0.6-0.4,0.9-0.6l0.1,0.2c0.1,0.2,0.1,0.4,0.2,0.5h1.7
		c-0.1-0.3-0.2-0.6-0.3-0.8C178.6,75.5,178.6,75.1,178.6,74.7z M177,74.1c0,0.3,0,0.5-0.1,0.8c-0.1,0.2-0.2,0.4-0.4,0.6
		c-0.2,0.2-0.5,0.3-0.9,0.3c-0.2,0-0.5-0.1-0.7-0.3c-0.2-0.2-0.3-0.4-0.3-0.6c0-0.2,0.1-0.5,0.3-0.6c0.3-0.1,0.6-0.2,0.9-0.3
		c0.5-0.1,0.8-0.2,1-0.3L177,74.1z"/>
	<path class="st0" d="M184.5,71.3c-0.4-0.6-1.2-1-1.9-1c-0.7,0-1.4,0.3-1.9,0.8c-0.6,0.7-0.8,1.5-0.8,2.4c0,0.7,0.2,1.5,0.6,2.1
		c0.4,0.7,1.2,1.1,2,1.1c0.8,0,1.5-0.4,1.9-1v0.9c0,0.3,0,0.5-0.1,0.8c-0.1,0.2-0.2,0.3-0.3,0.4c-0.3,0.1-0.7,0.2-1,0.2
		c-0.3,0-0.5,0-0.8-0.2c-0.1-0.1-0.2-0.3-0.2-0.4l-1.9-0.2v0.2c0,0.5,0.2,1.1,0.7,1.4c0.7,0.4,1.5,0.6,2.3,0.6c0.5,0,1,0,1.4-0.2
		c0.3-0.1,0.6-0.3,0.9-0.5c0.2-0.2,0.4-0.5,0.5-0.9c0.1-0.5,0.2-1.1,0.2-1.7v-5.7h-1.6L184.5,71.3z M184,74.9
		c-0.2,0.3-0.6,0.5-1,0.5c-0.4,0-0.8-0.2-1-0.5c-0.3-0.4-0.4-0.9-0.4-1.5c0-0.5,0.1-1,0.4-1.4c0.2-0.3,0.6-0.5,1-0.5
		c0.4,0,0.8,0.2,1,0.5c0.3,0.4,0.4,0.9,0.4,1.5C184.5,74,184.3,74.5,184,74.9L184,74.9z"/>
	<path class="st0" d="M192.4,71.2c-0.6-0.6-1.4-1-2.2-0.9c-0.8,0-1.5,0.3-2.1,0.9c-0.6,0.7-0.9,1.6-0.8,2.4c0,0.8,0.2,1.5,0.6,2.2
		c0.6,0.7,1.5,1.1,2.4,1.1c0.6,0,1.2-0.1,1.7-0.5c0.5-0.3,0.8-0.8,1-1.4l-1.7-0.3c-0.1,0.3-0.2,0.5-0.4,0.7
		c-0.2,0.1-0.4,0.2-0.7,0.2c-0.4,0-0.7-0.1-1-0.4c-0.3-0.3-0.4-0.7-0.4-1.2h4.2C193.2,73.1,193,72.1,192.4,71.2z M189,73.1
		c0-0.4,0.1-0.8,0.4-1.1c0.5-0.5,1.2-0.5,1.7-0.1c0,0,0,0,0.1,0.1c0.3,0.3,0.4,0.7,0.4,1.1L189,73.1z"/>
	<path class="st0" d="M205.7,74.4c0.2-0.6,0.3-1.3,0.3-2c0.1-1.2-0.3-2.4-1.1-3.3c-0.8-0.8-1.9-1.3-3.1-1.2
		c-1.2-0.1-2.3,0.4-3.1,1.2c-0.8,0.9-1.2,2.1-1.1,3.3c-0.1,1.2,0.3,2.4,1.1,3.3c0.8,0.8,2,1.2,3.1,1.2c0.6,0,1.3-0.1,1.9-0.4
		l1.2,0.8c0.3,0.1,0.5,0.2,0.8,0.3l0.6-1.2c-0.5-0.2-1-0.4-1.4-0.7C205.2,75.3,205.5,74.8,205.7,74.4z M204,73.7
		c-0.1,0.4-0.3,0.7-0.5,1c-0.5-0.4-1.1-0.7-1.7-0.9l-0.5,1c0.4,0.1,0.7,0.3,1.1,0.5c-0.2,0.1-0.5,0.1-0.7,0.1
		c-0.6,0-1.3-0.3-1.7-0.8c-0.5-0.7-0.7-1.5-0.7-2.3c-0.1-0.8,0.2-1.6,0.7-2.2c0.4-0.5,1.1-0.8,1.7-0.8c0.7,0,1.3,0.2,1.7,0.7
		c0.5,0.6,0.7,1.5,0.7,2.3C204.2,72.9,204.1,73.3,204,73.7z"/>
	<path class="st0" d="M211.4,73.1c0,0.6,0,1.1-0.1,1.7c-0.1,0.2-0.3,0.4-0.5,0.6c-0.2,0.2-0.5,0.2-0.8,0.2c-0.2,0-0.4-0.1-0.6-0.2
		c-0.2-0.1-0.3-0.3-0.3-0.5c-0.1-0.5-0.1-1.1-0.1-1.6v-2.9h-1.7v4c0,0.5,0.1,1,0.2,1.4c0.1,0.3,0.4,0.6,0.7,0.8
		c0.3,0.2,0.7,0.3,1.1,0.3c0.8,0,1.6-0.4,2.1-1.1v0.9h1.6v-6.3h-1.7V73.1z"/>
	<path class="st0" d="M219.4,71.2c-0.6-0.6-1.4-1-2.2-0.9c-0.8,0-1.5,0.3-2.1,0.9c-0.6,0.7-0.9,1.6-0.8,2.4c0,0.8,0.2,1.5,0.6,2.2
		c0.6,0.7,1.5,1.1,2.4,1.1c0.6,0,1.2-0.1,1.7-0.5c0.5-0.3,0.8-0.8,1-1.4l-1.7-0.3c-0.1,0.3-0.2,0.5-0.4,0.7
		c-0.2,0.1-0.4,0.2-0.7,0.2c-0.4,0-0.7-0.1-1-0.4c-0.3-0.3-0.4-0.7-0.4-1.2h4.2C220.2,73.1,220,72.1,219.4,71.2z M216,73.1
		c0-0.4,0.1-0.8,0.4-1.1c0.5-0.5,1.2-0.5,1.7-0.1c0,0,0,0,0.1,0.1c0.3,0.3,0.4,0.7,0.4,1.1L216,73.1z"/>
	<path class="st0" d="M225.6,73.1c0,0.6,0,1.1-0.1,1.7c-0.1,0.2-0.3,0.4-0.5,0.6c-0.2,0.2-0.5,0.2-0.8,0.2c-0.2,0-0.4-0.1-0.6-0.2
		c-0.2-0.1-0.3-0.3-0.3-0.5c-0.1-0.5-0.1-1.1-0.1-1.6v-2.9h-1.7v4c0,0.5,0.1,1,0.2,1.4c0.1,0.3,0.4,0.6,0.7,0.8
		c0.3,0.2,0.7,0.3,1.1,0.3c0.4,0,0.8-0.1,1.2-0.3c0.4-0.2,0.7-0.5,0.9-0.8v0.9h1.6v-6.3h-1.7L225.6,73.1z"/>
	<rect x="229" y="70.4" class="st0" width="1.7" height="6.3"/>
	<rect x="229" y="68.1" class="st0" width="1.7" height="1.5"/>
	<path class="st0" d="M237.7,71c-0.2-0.2-0.4-0.4-0.7-0.5c-0.3-0.1-0.7-0.2-1-0.2c-0.8,0-1.6,0.4-2.1,1.1v-0.9h-1.6v6.3h1.7v-2.8
		c0-0.5,0-1,0.1-1.4c0.1-0.3,0.2-0.5,0.5-0.6c0.2-0.2,0.5-0.2,0.8-0.2c0.2,0,0.4,0.1,0.6,0.2c0.2,0.1,0.3,0.3,0.4,0.5
		c0.1,0.4,0.1,0.9,0.1,1.3v3.2h1.7v-3.9c0-0.4,0-0.8-0.1-1.1C237.9,71.5,237.8,71.2,237.7,71z"/>
	<path class="st0" d="M244,71.3c-0.4-0.6-1.2-1-1.9-1c-0.7,0-1.4,0.3-1.9,0.8c-0.6,0.7-0.8,1.5-0.8,2.4c0,0.7,0.2,1.5,0.6,2.1
		c0.4,0.7,1.2,1.1,2,1.1c0.8,0,1.5-0.4,1.9-1v0.9c0,0.3,0,0.5-0.1,0.8c-0.1,0.2-0.2,0.3-0.3,0.4c-0.3,0.1-0.7,0.2-1,0.2
		c-0.3,0-0.5,0-0.8-0.2c-0.1-0.1-0.2-0.3-0.2-0.4l-1.9-0.2c0,0.1,0,0.1,0,0.2c0,0.5,0.2,1.1,0.7,1.4c0.7,0.4,1.5,0.6,2.3,0.6
		c0.5,0,0.9,0,1.4-0.2c0.3-0.1,0.6-0.3,0.9-0.5c0.2-0.2,0.4-0.5,0.5-0.9c0.1-0.5,0.2-1.1,0.2-1.7v-5.7H244V71.3z M243.5,74.9
		c-0.2,0.3-0.6,0.5-1,0.5c-0.4,0-0.8-0.1-1-0.5c-0.3-0.4-0.4-0.9-0.4-1.5c0-0.5,0.1-1,0.4-1.4c0.2-0.3,0.6-0.5,1-0.5
		c0.4,0,0.8,0.2,1,0.5c0.3,0.4,0.4,0.9,0.4,1.5C243.9,74,243.8,74.5,243.5,74.9z"/>
	<path class="st0" d="M255.5,68.2c-0.7-0.1-1.4-0.2-2.1-0.1h-2.8v8.7h1.8v-3.3h1.1c0.6,0,1.2,0,1.8-0.1c0.3-0.1,0.6-0.2,0.9-0.4
		c0.3-0.2,0.6-0.5,0.7-0.9c0.2-0.4,0.3-0.9,0.3-1.3c0-0.6-0.2-1.2-0.5-1.7C256.5,68.6,256,68.3,255.5,68.2z M255.3,71.4
		c-0.1,0.2-0.3,0.4-0.6,0.4c-0.5,0.1-0.9,0.2-1.4,0.1h-1v-2.5h0.9c0.4,0,0.8,0,1.3,0c0.3,0.1,0.5,0.2,0.7,0.4
		c0.2,0.2,0.3,0.5,0.3,0.8C255.5,71,255.4,71.2,255.3,71.4z"/>
	<path class="st0" d="M260.9,70.5c-0.3,0.2-0.5,0.5-0.7,0.8v-0.9h-1.5v6.3h1.7v-2c0-0.7,0-1.4,0.1-2.1c0.1-0.3,0.2-0.5,0.4-0.7
		c0.2-0.1,0.4-0.2,0.6-0.2c0.3,0,0.6,0.1,0.8,0.3l0.5-1.5c-0.3-0.2-0.7-0.3-1.1-0.3C261.4,70.3,261.1,70.4,260.9,70.5z"/>
	<path class="st0" d="M266.3,70.3c-0.6,0-1.2,0.1-1.7,0.4c-0.5,0.3-0.9,0.7-1.2,1.2c-0.3,0.5-0.4,1-0.4,1.6c0,0.6,0.1,1.3,0.4,1.8
		c0.3,0.5,0.7,0.9,1.2,1.2c0.5,0.3,1.1,0.4,1.6,0.4c0.9,0,1.7-0.3,2.3-0.9c0.6-0.6,0.9-1.5,0.9-2.4c0-0.9-0.3-1.7-0.9-2.3
		C268,70.6,267.2,70.3,266.3,70.3z M267.4,75c-0.3,0.3-0.7,0.5-1.1,0.5c-0.4,0-0.8-0.2-1.1-0.5c-0.6-0.9-0.6-2,0-2.9
		c0.3-0.3,0.7-0.5,1.1-0.5c0.4,0,0.8,0.2,1.1,0.5c0.3,0.4,0.5,0.9,0.5,1.4C267.9,74.1,267.7,74.6,267.4,75L267.4,75z"/>
	<path class="st0" d="M273.1,75.5c-0.1,0-0.2,0-0.3-0.1c-0.1-0.1-0.1-0.1-0.1-0.2c0-0.3,0-0.6,0-0.9v-2.5h1.1v-1.3h-1.1v-2.2l-1.7,1
		v1.2h-0.8v1.3h0.8v2.8c0,0.4,0,0.8,0,1.2c0,0.2,0.1,0.5,0.2,0.7c0.1,0.2,0.3,0.3,0.5,0.4c0.3,0.1,0.5,0.2,0.8,0.2
		c0.5,0,0.9-0.1,1.3-0.2l-0.1-1.3C273.6,75.5,273.3,75.5,273.1,75.5z"/>
	<path class="st0" d="M277.8,70.3c-0.6,0-1.2,0.1-1.7,0.4c-0.5,0.3-0.9,0.7-1.2,1.2c-0.3,0.5-0.4,1-0.4,1.6c0,0.6,0.1,1.3,0.4,1.8
		c0.3,0.5,0.7,0.9,1.2,1.2c0.5,0.3,1.1,0.4,1.6,0.4c0.9,0,1.7-0.3,2.3-0.9c1.2-1.3,1.2-3.4,0-4.7C279.5,70.6,278.7,70.3,277.8,70.3z
		 M278.9,75c-0.3,0.3-0.7,0.5-1.1,0.5c-0.4,0-0.8-0.2-1.1-0.5c-0.6-0.9-0.6-2,0-2.9c0.3-0.3,0.7-0.5,1.1-0.5c0.4,0,0.8,0.2,1.1,0.5
		c0.3,0.4,0.5,0.9,0.5,1.4C279.4,74.1,279.2,74.6,278.9,75L278.9,75z"/>
	<path class="st0" d="M285.9,75.3c-0.2,0.2-0.5,0.3-0.8,0.3c-0.4,0-0.8-0.2-1-0.5c-0.3-0.5-0.4-1-0.4-1.6c0-0.5,0.1-1,0.4-1.4
		c0.3-0.3,0.6-0.4,1-0.4c0.3,0,0.6,0.1,0.8,0.2c0.2,0.2,0.3,0.5,0.4,0.7l1.6-0.3c-0.2-0.6-0.5-1.1-1-1.5c-0.5-0.4-1.2-0.5-1.8-0.5
		c-0.8,0-1.6,0.3-2.2,0.9c-1.1,1.4-1.1,3.4,0,4.8c0.6,0.6,1.4,0.9,2.2,0.9c0.7,0,1.4-0.2,1.9-0.6c0.5-0.4,0.9-1,1-1.7l-1.6-0.3
		C286.3,74.7,286.1,75,285.9,75.3z"/>
	<path class="st0" d="M292,70.3c-0.6,0-1.2,0.1-1.7,0.4c-0.5,0.3-0.9,0.7-1.2,1.2c-0.3,0.5-0.4,1-0.4,1.6c0,0.6,0.1,1.3,0.4,1.8
		c0.3,0.5,0.7,0.9,1.2,1.2c0.5,0.3,1.1,0.4,1.6,0.4c0.9,0,1.7-0.3,2.3-0.9c0.6-0.6,0.9-1.5,0.9-2.4c0-0.9-0.3-1.7-0.9-2.3
		C293.7,70.6,292.9,70.3,292,70.3z M293.1,75c-0.3,0.3-0.7,0.5-1.1,0.5c-0.4,0-0.8-0.2-1.1-0.5c-0.6-0.9-0.6-2,0-2.9
		c0.3-0.3,0.7-0.5,1.1-0.5c0.4,0,0.8,0.2,1.1,0.5c0.3,0.4,0.5,0.9,0.4,1.4C293.6,74.1,293.4,74.6,293.1,75L293.1,75z"/>
	<rect x="296.5" y="68.1" class="st0" width="1.7" height="8.7"/>
	<path class="st0" d="M115.6,9.5H99.2L81,58h15.3l2.4-8h17l2.4,8h15.7L115.6,9.5z M101.9,39.5l5.3-17.4l5.3,17.4H101.9z"/>
	<polygon class="st0" points="150.7,21 160.1,58 171.2,58 180.7,21 180.7,58 192.9,58 192.9,9.5 173.2,9.5 165.7,39 158.1,9.5 
		138.4,9.5 138.4,58 150.7,58 	"/>
	<path class="st0" d="M249.2,53.4c-0.6-0.3-1.8-1.1-3.7-2.4c3.5-4.3,5.3-10,5.3-17.2c0-8-2.2-14.2-6.6-18.6
		c-4.4-4.3-10.6-6.5-18.6-6.5c-7.9,0-14,2.2-18.4,6.6c-4.4,4.4-6.6,10.6-6.6,18.6c0,8.2,2.5,14.6,7.5,19.2
		c4.3,3.8,10.1,5.8,17.4,5.8c4.2,0.1,8.5-0.6,12.4-2.2c0.8,0.7,2.2,1.8,4.3,3.2c2,1.4,4.1,2.6,6.2,3.6l4.2-8.4
		C251.2,54.4,250.1,53.8,249.2,53.4z M234.1,43.2c-0.6-0.4-1.1-0.7-1.6-1.1c-1.4-1-2.8-1.9-4.3-2.8c-1-0.4-2-0.7-3.1-0.9l-2.4,5.4
		c2.2,0.8,4.2,1.9,6,3.4c-0.9,0.2-1.9,0.3-2.9,0.3c-2.8,0.1-5.6-1.1-7.4-3.2c-1.8-2.1-2.7-5.9-2.7-11.2c0-4.5,0.9-7.9,2.8-10
		c1.8-2.1,4.4-3.3,7.2-3.3c2.9-0.1,5.6,1,7.5,3.2c1.8,2.1,2.7,5.6,2.7,10.5C235.9,37.9,235.3,41.1,234.1,43.2z"/>
	<path class="st0" d="M296,13.4c-2.7-2.6-6.8-3.9-12.2-3.9h-24.9V58h15V40h8.2c6,0,10.5-1.4,13.5-4.1c2.9-2.8,4.4-6.6,4.4-11.5
		C300,19.6,298.7,16,296,13.4z M283.7,28.7c-1.2,1-3.2,1.5-6.1,1.5h-3.7V19.4h4.3c2.8,0,4.7,0.5,5.7,1.6c1,1,1.6,2.4,1.5,3.9
		C285.4,26.3,284.8,27.7,283.7,28.7z"/>
</g>
</svg>
