<svg id="Layer_1" data-name="Layer 1" xmlns="http://www.w3.org/2000/svg" viewBox="0 0 920 630"><defs><style>.cls-1{fill:#fff;}</style></defs><path class="cls-1" d="M306.5,107.7c-53.9,3.4-99,24.5-131.1,61.4-34.9,39.8-51.8,99-47.4,165.4,2.5,38.4,10.4,69.3,25.4,99.5,24.6,49.7,56.6,76.3,106.9,89,26.4,6.6,65.5,8.5,90.7,4.2q89.4-15.15,125.4-99.4c4.2-10,12-33.7,11.3-34.4-.4-.5-51.1-13.4-52.4-13.4-.5,0-2.2,4.5-3.8,10-14.7,52.9-46.1,83.9-92.5,91.5-18.8,3-46,1.6-63-3.3-31.5-9.2-58.5-32.2-73.4-62.7-13-26.5-18.7-56.2-18.9-98-.1-31.7,3.1-54.2,10.9-76.7,16.1-46.1,46.6-74.3,90.9-84,13.1-2.9,42.7-3.6,55.5-1.4,40.5,7.1,66.9,30.5,83.7,74.1,1.9,4.9,3.6,9.1,3.7,9.3.3.2,51.9-11.8,52.4-12.3s-4.9-15.6-8.3-23.7c-19.9-47.2-59.3-80.1-108.8-90.7C346.9,108.5,322.7,106.6,306.5,107.7Z"/><path class="cls-1" d="M625.6,108.7c-.2,1-3.7,17.5-7.6,36.8s-9.2,45.3-11.8,58l-4.7,23-42.2.3L517,227v41h38c22,0,38,.4,38,.9,0,1-18.4,89.8-20.5,98.8L572,370H517v41h23.5c12.9,0,23.5.3,23.5.7,0,.8-1.6,8.5-16,77.3-4.4,21.2-8,39.1-8,39.7,0,1,4.8,1.3,20.9,1.3h20.9l.6-2.7c.3-1.6,5.5-27.6,11.6-57.8s11.3-55.8,11.6-56.8c.5-1.6,3.5-1.7,44-1.7,38.1,0,43.4.2,43.4,1.5,0,.9-.9,5.7-2,10.8s-6.3,30.1-11.5,55.7-9.8,47.5-10.2,48.8l-.5,2.2,21.3-.2,21.3-.3,6.2-30.5c3.4-16.8,8.8-43.4,11.9-59.3l5.8-28.7H821V370H782.5c-21.2,0-38.5-.1-38.5-.3,0-1.4,20.1-100,20.5-100.7s11.7-1,28.6-1H821V227H797c-13.2,0-24-.1-24-.3,0-.4,22.9-115.1,23.5-117.5l.5-2.2-20.7.2-20.8.3-1.2,5.5c-.7,3-3.3,15.4-5.7,27.5s-7.4,36.4-11,53.9-6.6,32.1-6.6,32.3-19.6.3-43.5.3c-34.6,0-43.5-.3-43.5-1.3,0-.7,5.2-27.1,11.5-58.7S667,109,667,108.3c0-1-4.5-1.3-20.4-1.3C628,107,626.1,107.2,625.6,108.7Zm96.6,159.9c.3.3,0,3.3-.8,6.7-1.4,6.3-12,56.9-17,81.4L701.7,370H658.3c-39.1,0-43.3-.2-43.3-1.6s17.8-91.1,19.5-98.2l.5-2.2h43.4C702.2,268,721.9,268.2,722.2,268.6Z"/></svg>