<?xml version="1.0" encoding="utf-8"?>
<!-- Generator: Adobe Illustrator 25.1.0, SVG Export Plug-In . SVG Version: 6.00 Build 0)  -->
<svg version="1.1" id="Capa_1" xmlns="http://www.w3.org/2000/svg" xmlns:xlink="http://www.w3.org/1999/xlink" x="0px" y="0px"
	 viewBox="0 0 291 315" style="enable-background:new 0 0 291 315;" xml:space="preserve">
<style type="text/css">
	.st0{fill:#FFFFFF;}
</style>
<g>
	<path class="st0" d="M158.7,37.6c-13,0-23.1,4.6-30.5,13.7c-7.4,9.2-11.1,21.8-11.1,37.9c0,16.9,3.6,29.6,10.7,38.2
		c7.1,8.7,17.4,13,30.9,13c5.9,0,11.5-0.6,16.9-1.8s11.1-2.6,17-4.5v19.3c-10.8,4.1-23,6.1-36.7,6.1c-20.1,0-35.5-6.1-46.4-18.3
		C98.7,129.2,93.3,111.7,93.3,89c0-14.3,2.6-26.8,7.9-37.5c5.3-10.7,12.8-18.9,22.7-24.6s21.5-8.6,34.9-8.6c14,0,27,3,38.9,8.8
		l-8.1,18.7c-4.6-2.2-9.5-4.1-14.7-5.8C169.9,38.5,164.4,37.6,158.7,37.6z"/>
</g>
</svg>
