<?xml version="1.0" encoding="utf-8"?>
<!-- Generator: Adobe Illustrator 25.1.0, SVG Export Plug-In . SVG Version: 6.00 Build 0)  -->
<svg version="1.1" id="Logos-java" xmlns="http://www.w3.org/2000/svg" xmlns:xlink="http://www.w3.org/1999/xlink" x="0px" y="0px"
	 viewBox="0 0 261 150" style="enable-background:new 0 0 261 150;" xml:space="preserve">
<style type="text/css">
	.st0{fill:#FFFFFF;}
</style>
<g id="Java">
	<path class="st0" d="M251.4,92.4v13.8c0,0.2-0.1,0.4-0.3,0.4c0,0,0,0-0.1,0c-0.1,0-0.2,0-0.4,0h-4.6c-0.3,0-0.6-0.2-0.6-0.5
		c0,0,0,0,0,0c-0.2-0.9-0.3-1.8-0.5-2.6c0-0.1,0-0.2-0.1-0.4s-0.2-0.2-0.3-0.1l-0.8,0.7c-3.2,2.8-7.4,4.2-11.6,3.9
		c-2-0.1-4-0.7-5.8-1.7c-1.2-0.6-2.1-1.6-2.7-2.8c-1.5-2.8-1.9-6.1-1.1-9.2c0.6-2.3,2.1-4.3,4.1-5.7c2.6-1.8,5.7-2.9,8.8-3.2
		c2.4-0.3,4.9-0.4,7.4-0.5c1,0,1,0,1-1c0.1-1.7-0.1-3.4-0.5-5c-0.6-2.1-2.4-3.6-4.5-3.8c-2.5-0.3-5-0.2-7.5,0.3
		c-1.8,0.4-3.6,0.9-5.3,1.5l-0.5,0.2c-0.2,0.1-0.3,0-0.4-0.2c-0.3-1.3-0.7-2.6-1-3.9c-0.1-0.4,0.1-0.5,0.4-0.7
		c1-0.5,2.1-0.9,3.2-1.2c2.5-0.8,5.1-1.3,7.8-1.6c2.7-0.3,5.3-0.2,7.9,0.5c2.6,0.6,4.9,2.2,6.3,4.5c1,1.7,1.6,3.6,1.5,5.6
		C251.4,83.8,251.4,88.1,251.4,92.4L251.4,92.4z M243.9,93.6L243.9,93.6v-1.4c0-0.8,0-1.6,0-2.4c0-0.4-0.1-0.5-0.5-0.5h-0.3
		c-2.1,0-4.2,0.1-6.2,0.3c-1.3,0.1-2.6,0.5-3.9,1.1c-1.1,0.5-2,1.4-2.5,2.5c-0.5,1.1-0.7,2.2-0.6,3.3c0,2.5,1.7,4.6,4.1,5.2
		c1.5,0.3,3,0.2,4.4-0.3c1.8-0.7,3.5-1.6,5-2.8c0.4-0.3,0.6-0.7,0.6-1.2C243.9,96,243.9,94.8,243.9,93.6z"/>
	<path class="st0" d="M182,92.4v13.9c0,0.2-0.1,0.3-0.3,0.4c0,0,0,0-0.1,0H177c-0.8,0-0.9-0.1-1-0.8s-0.3-1.6-0.5-2.4
		c-0.1-0.6-0.2-0.6-0.6-0.2c-0.8,0.7-1.7,1.3-2.6,1.9c-2.1,1.2-4.3,2.1-6.7,2.4c-1.1,0.1-2.2,0.1-3.3-0.1c-1.5-0.2-3-0.5-4.3-1.1
		c-1.9-0.8-3.5-2.4-4.2-4.4c-1-2.4-1.3-5-0.8-7.5c0.5-2.6,2-4.8,4.2-6.3c2.4-1.7,5.2-2.8,8.1-3.1c2.7-0.3,5.3-0.6,8-0.6
		c1.5,0,1.2-0.1,1.2-1.3c0.1-1.5-0.1-3.1-0.5-4.6c-0.5-2.2-2.4-3.8-4.7-4c-2.4-0.3-4.9-0.2-7.3,0.3c-1.7,0.3-3.4,0.8-5.1,1.4
		l-0.6,0.2c-0.4,0.1-0.4,0-0.6-0.3c-0.1-0.1-0.1-0.3-0.1-0.4c-0.2-1-0.5-1.9-0.8-2.8s-0.2-0.9,0.6-1.3c1.1-0.5,2.3-0.9,3.5-1.3
		c3.4-1,6.9-1.5,10.4-1.5c2.3,0,4.6,0.4,6.7,1.4c3.1,1.4,5.2,4.3,5.6,7.6c0.1,0.7,0.2,1.4,0.2,2.1L182,92.4L182,92.4z M174.6,93.6
		L174.6,93.6v-3.9c0-0.3-0.1-0.5-0.4-0.5h-0.4c-2.1,0.1-4.3,0.1-6.4,0.4c-1.4,0.1-2.7,0.5-3.9,1.2c-1.2,0.6-2.1,1.7-2.5,3
		c-0.4,1.1-0.4,2.2-0.3,3.3c0.2,2,1.6,3.7,3.5,4.4c1.3,0.5,2.7,0.5,4,0.2c2.2-0.6,4.3-1.7,6-3.2c0.4-0.3,0.6-0.7,0.5-1.2
		C174.5,96,174.5,94.8,174.6,93.6L174.6,93.6z"/>
	<path class="st0" d="M203.6,98.8c0.4-1,0.7-1.9,1-2.8c1.8-5.3,3.4-10.6,4.6-16c0.7-2.8,1.2-5.6,1.5-8.4c0.1-0.5,0.1-1,0.1-1.5
		s0.2-0.5,0.5-0.4h1.8c1.7,0,3.3,0,5,0c0.2,0,0.5,0,0.7,0.1c-0.3,1.5-0.6,3.1-1,4.6c-1.1,5.1-2.4,10.2-3.9,15.2
		c-1.4,4.9-3.2,9.7-5.2,14.4l-0.9,1.9c-0.2,0.5-0.8,0.9-1.3,0.8c-2.7,0-5.3,0-8,0c-0.5,0-0.5,0-0.7-0.6c-1.4-4.5-2.8-9-4.2-13.5
		l-7-22.4c0-0.1-0.1-0.2-0.1-0.3s0-0.3,0.2-0.3h7.1c0.8,0,0.9,0.1,1.1,0.8c2.7,8.4,5.4,16.8,7.7,25.3c0.2,0.8,0.4,1.6,0.6,2.4
		C203.4,98.4,203.5,98.6,203.6,98.8z"/>
	<path class="st0" d="M131.4,115.7c0.1-0.1,0.3-0.2,0.4-0.3c2.6-1.1,4.7-3.2,5.9-5.9c1.1-2.3,1.6-4.9,1.6-7.5c0-7.8,0-15.7,0-23.5
		V57.3c0-1.1,0-1,1-1h6.6c0.2,0,0.4,0.1,0.4,0.4v44.2c0,2.8-0.4,5.5-1.2,8.1c-1,3.1-2.8,5.9-5.4,8.1c-1.5,1.2-3.2,2.1-5,2.7
		c-0.3,0.2-0.8,0.1-1-0.2C133.6,118.4,132.5,117.1,131.4,115.7z"/>
	<path class="st0" d="M61.7,80.6c-0.8-0.7-1.5-1.4-2.2-2.2c-3.2-3.3-6.3-6.7-9.1-10.3c-2.1-2.6-4-5.3-5.6-8.3c-0.6-1-1-2.1-1.3-3.3
		c-0.3-1.7-0.2-3.4,0.4-5c0.8-1.9,1.8-3.8,3.2-5.3c2.2-2.7,4.7-5.2,7.4-7.5c4.1-3.6,8.3-7,12.5-10.4c2.3-1.8,4.4-4,6.2-6.3
		c2.8-3.8,4.5-8.3,4.9-13c0.2-2.1,0-4.1-0.3-6.2c0-0.1,0-0.1,0-0.2c0-0.2-0.1-0.4,0.1-0.5s0.3,0.1,0.4,0.3c0.6,0.7,1,1.6,1.2,2.4
		c1,3.5,1.4,7.1,1,10.7c-0.5,4.1-2,8-4.5,11.4c-1.1,1.5-2.4,2.8-3.7,4.1c-3.7,3.5-7.3,7-10.9,10.5c-2.3,2.2-4.4,4.5-6.4,7
		c-1.1,1.5-2.1,3-2.9,4.6c-1.3,2.5-1.6,5.3-0.8,8c0.8,2.7,1.9,5.4,3.2,7.8c2,3.7,4.2,7.2,6.7,10.6C61.3,79.9,61.7,80.2,61.7,80.6
		L61.7,80.6z"/>
	<path class="st0" d="M108,126.9c0.1-0.1,0.2,0,0.3,0c0.6,0.3,1,0.8,1.4,1.4c0.3,0.5,0.3,1.2-0.1,1.7c-0.4,0.6-1,1.1-1.5,1.5
		c-1.7,1.2-3.6,2.2-5.5,2.9c-3.1,1.2-6.3,2.1-9.6,2.7c-4.2,0.9-8.5,1.5-12.7,1.9c-3.3,0.3-6.7,0.5-10,0.7c-6,0.3-12,0.5-18.1,0.5
		c-4.7,0-9.4-0.1-14.1-0.3c-3.6-0.1-7.2-0.4-10.9-0.7c-4.1-0.3-8.2-1-12.2-1.9c-1.5-0.3-3-0.8-4.4-1.5c-0.5-0.2-0.9-0.5-1.3-0.9
		c-0.6-0.5-0.8-1.3-0.5-2.1c0.3-0.9,0.9-1.7,1.7-2.3c1.3-1,2.7-1.7,4.2-2.3c2.9-1.1,5.9-1.9,9-2.3c1.6-0.3,3.2-0.5,4.8-0.6
		c1-0.1,2,0,2.9,0.2c-1.2,0.2-2.4,0.4-3.6,0.7c-2.2,0.4-4.3,1-6.4,1.8c-0.7,0.3-1.4,0.6-2,1c-0.5,0.3-1,0.8-1.3,1.3
		c-0.4,0.5-0.3,1.2,0.2,1.6c0,0,0,0,0,0c0.4,0.4,1,0.7,1.5,0.9c1.5,0.6,3,1,4.6,1.2c2.9,0.6,5.8,0.9,8.7,1.3c3.8,0.4,7.5,0.7,11.3,1
		c3.2,0.2,6.3,0.2,9.5,0.1c4.9,0,9.8-0.2,14.6-0.4c3.8-0.2,7.6-0.3,11.4-0.6s7.6-0.6,11.3-1.1c3.6-0.4,7.3-1.1,10.8-1.9
		c1.7-0.4,3.2-1,4.7-1.8c0.4-0.2,0.8-0.5,1.1-0.9c0.5-0.5,0.7-1.2,0.5-1.9C108.2,127.6,108.1,127.2,108,126.9L108,126.9z"/>
	<path class="st0" d="M68,86.4c0.1-0.3,0.3-0.6,0.5-0.8c1-1.4,1.9-2.8,2.7-4.3c1.2-2.2,1.2-4.8,0-7c-0.5-1-1.1-2-1.8-2.9
		c-1.1-1.6-2.2-3.1-3.3-4.7c-1.7-2.5-2.8-5.4-3.1-8.4c-0.3-2.6,0.2-5.3,1.4-7.7c1.4-2.8,3.3-5.2,5.7-7.2c3.2-2.7,6.7-4.9,10.4-6.7
		c4.2-2.1,8.6-3.8,13.2-5.1c0.2-0.1,0.4-0.1,0.7-0.2c0.1,0,0.1,0,0.2,0c-0.1,0.2-0.3,0.3-0.5,0.4c-3,1.9-6,3.8-8.8,5.8
		c-3.3,2.3-6.5,4.9-9.3,7.7c-1.4,1.4-2.6,3-3.6,4.7c-1.5,2.5-1.5,5.6,0,8c0.8,1.5,1.8,2.9,2.7,4.4c1,1.4,1.9,2.9,2.6,4.5
		c0.6,1.2,1,2.5,1.3,3.9c0.5,2.2,0.1,4.5-1.1,6.4c-1,1.6-2.2,3.1-3.6,4.4c-1.8,1.6-3.7,3.1-5.7,4.4C68.4,86.3,68.2,86.4,68,86.4z"/>
	<path class="st0" d="M42.3,114.8c0,0.3-0.1,0.5-0.3,0.7c-0.5,0.7-0.3,1.7,0.4,2.2c0,0,0.1,0,0.1,0.1c0.8,0.5,1.8,0.9,2.7,1
		c1,0.2,2,0.3,3,0.3c4.5,0.2,9,0.3,13.5,0.1c3.2-0.1,6.4-0.3,9.5-0.7c1.7-0.2,3.4-0.5,5.1-0.9c0.7-0.2,1.4-0.1,2,0.3
		c2.2,1.4,4.5,2.6,6.9,3.6c-0.1,0.3-0.3,0.2-0.4,0.3c-1.7,0.7-3.5,1.1-5.2,1.6c-3.7,1.1-7.5,1.9-11.3,2.4c-3.4,0.4-6.9,0.6-10.3,0.4
		c-4.1-0.1-8.2-0.5-12.2-1.3c-2.2-0.4-4.3-1.1-6.4-2c-0.8-0.4-1.5-0.8-2.1-1.4c-1.2-0.9-1.4-2.7-0.4-3.8c0.1-0.2,0.3-0.3,0.4-0.4
		C38.7,115.9,40.5,115.1,42.3,114.8z"/>
	<path class="st0" d="M87.5,105.8c-1.2,0.5-2.5,0.9-3.8,1.2c-4.1,1.2-8.3,2-12.6,2.6c-4.4,0.6-8.9,0.8-13.3,0.6
		c-1.6-0.1-3.2-0.1-4.9-0.2c-4.8-0.1-9.6-0.7-14.4-1.6c-1.6-0.3-3.1-0.8-4.5-1.5c-0.4-0.2-0.8-0.4-1.2-0.7c-0.8-0.6-1.1-1.7-0.7-2.7
		c0.3-1,1-1.9,1.8-2.5c1.5-1.1,3.2-1.8,5-2.1c0,0,0.1,0,0.1,0c-0.1,0.3-0.3,0.5-0.5,0.7c-0.3,0.3-0.6,0.7-0.7,1.2
		c-0.3,0.6-0.1,1.3,0.4,1.8c0.4,0.4,1,0.8,1.5,1c1.3,0.5,2.6,0.8,3.9,0.9c4,0.4,7.9,0.6,11.9,0.4c3.6-0.1,7.1-0.3,10.7-0.6
		c3.8-0.3,7.6-0.7,11.3-1.3l3.2-0.5c0.7-0.2,1.4,0,1.9,0.5c0.8,0.8,1.8,1.4,2.7,2C86,105.3,86.8,105.6,87.5,105.8z"/>
	<path class="st0" d="M44.3,82.1c-1.5,0.4-3,0.9-4.5,1.3c-2.2,0.6-4.3,1.5-6.4,2.5c-0.7,0.3-1.3,0.8-1.9,1.3
		c-0.9,0.9-0.8,1.6,0.4,2.1c1.1,0.5,2.3,0.8,3.5,0.9c3.8,0.5,7.6,0.7,11.5,0.8c2.9,0.1,5.8,0.1,8.8,0.1c2.8,0,5.6-0.2,8.4-0.4
		c2.3-0.2,4.6-0.3,6.9-0.5s4.8-0.5,7.2-0.7s4.8-0.6,7.2-0.9l7.2-1.1c0.2,0,0.3,0,0.5,0c0.1,0.2-0.1,0.2-0.2,0.3l-5.3,3.2
		c-0.3,0.2-0.6,0.3-0.9,0.3c-4.2,0.7-8.4,1.2-12.6,1.7c-3.5,0.4-7,0.8-10.4,1.1c-5.3,0.5-10.5,0.7-15.8,0.6c-4-0.1-8.1-0.3-12.1-0.6
		c-3.3-0.2-6.6-0.7-9.9-1.2c-1.2-0.2-2.4-0.6-3.6-1c-0.5-0.2-1-0.4-1.5-0.8c-0.5-0.3-0.6-0.9-0.3-1.4c0-0.1,0.1-0.1,0.2-0.2
		c0.4-0.4,0.8-0.8,1.3-1.1c1.7-1,3.5-1.9,5.4-2.5c4.7-1.7,9.6-2.9,14.6-3.5c0.5-0.1,1.1-0.1,1.6-0.2C43.8,81.9,44.1,81.9,44.3,82.1z
		"/>
	<path class="st0" d="M116.4,134.2c-0.2,0.8-0.5,1.5-1.1,2.1c-1.3,1.5-2.8,2.8-4.6,3.7c-3.5,2-7.3,3.4-11.2,4.3
		c-3.3,0.8-6.7,1.3-10.1,1.8c-5.4,0.8-10.9,1.2-16.4,1.5c-5.1,0.3-10.2,0.3-15.3,0.2c-3.3-0.1-6.6-0.3-9.9-0.6
		c-6.1-0.5-12.1-1.7-18-3.4c-0.3,0-0.5-0.2-0.8-0.4c0.2,0,0.4,0,0.6,0l6.1,0.5c2.3,0.2,4.7,0.4,7,0.6c4.7,0.3,9.4,0.5,14.1,0.6
		c4,0.1,8.1,0.1,12.1,0c2.3-0.1,4.7-0.1,7-0.3c2.9-0.2,5.9-0.4,8.8-0.7s5.6-0.7,8.4-1.2c4.4-0.7,8.7-1.8,12.9-3.3
		c3.4-1.2,6.7-2.9,9.6-5.1c0.1-0.1,0.3-0.2,0.5-0.3S116.2,134.2,116.4,134.2z"/>
	<path class="st0" d="M94,109c0.4-0.3,0.8-0.5,1.2-0.7c2.4-1.4,4.6-3,6.8-4.7c2.4-1.9,4.5-4.1,6.2-6.5c1.1-1.5,1.9-3.2,2.2-5
		c0.4-2.2,0-4.4-1.2-6.3c-1-1.5-2.6-2.6-4.4-3c-2.1-0.5-4.3-0.6-6.4-0.3l-0.8,0.1h-0.1c0.1-0.2,0.3-0.4,0.5-0.5
		c0.9-0.6,2-1.1,3.1-1.3c2.8-0.7,5.8-0.5,8.5,0.7c1.7,0.7,3.3,1.8,4.5,3.3c2.4,2.7,3,6.6,1.5,9.9c-1,2.1-2.4,4-4.1,5.6
		c-2.2,2-4.8,3.7-7.5,5.1c-3,1.5-6.2,2.7-9.4,3.6C94.4,109,94.2,109,94,109z"/>
	<path class="st0" d="M61.7,80.6c0,0,0.1,0,0.1,0s0,0,0,0S61.7,80.6,61.7,80.6L61.7,80.6z"/>
	<path class="st0" d="M108,126.9L108,126.9L108,126.9C107.9,126.9,107.9,126.9,108,126.9L108,126.9z"/>
</g>
</svg>
