<?xml version="1.0" encoding="utf-8"?>
<!-- Generator: Adobe Illustrator 25.1.0, SVG Export Plug-In . SVG Version: 6.00 Build 0)  -->
<svg version="1.1" id="Logos-jms" xmlns="http://www.w3.org/2000/svg" xmlns:xlink="http://www.w3.org/1999/xlink" x="0px" y="0px"
	 viewBox="0 0 300 135" style="enable-background:new 0 0 300 135;" xml:space="preserve">
<style type="text/css">
	.st0{fill:#FFFFFF;}
</style>
<g id="JMS">
	<path class="st0" d="M138.1,110.7c-10.3,0-15.7-4.4-16.2-5l5.1-6.3l-0.1-0.1c0.1,0.1,3.3,3.3,11.2,3.3c7.5,0,12.6-3.2,12.6-8.1
		V45.8h8.1v48.7C158.8,104.1,150.3,110.7,138.1,110.7z"/>
	<polygon class="st0" points="181.7,108.6 173.5,108.8 177.2,45.6 184.9,45.6 206.4,90 228,45.6 235.7,45.5 240.1,108.6 232,108.7 
		228.7,61.7 210.1,101.3 202.7,101.3 184.4,62.1 	"/>
	<path class="st0" d="M269.4,110.7c-13.5,0-20.3-4.3-20.9-5l4-6.8l-0.1-0.1c0,0,4.2,3.7,16.9,3.7c11.7,0,13.4-5.9,13.4-9.4
		c0-7.1-4.9-9.2-13.4-12.3C261.2,78,251,74.3,251,61.7c0-7.9,3.4-17.4,19.5-17.4c10.8,0,17.9,3.5,18.2,3.6l-3.6,7.3
		c-4.6-1.9-9.6-2.8-14.6-2.8c-9.4,0-11.3,3.5-11.3,9.2c0,6.6,4.7,8.6,13,11.6S291,80,291,93.2C291,101.7,285.3,110.7,269.4,110.7z"
		/>
	<g id="Java">
		<path class="st0" d="M55.3,70.9c-0.7-0.6-1.4-1.2-2-1.9c-2.8-2.9-5.5-5.8-8-9c-1.9-2.2-3.5-4.7-4.9-7.2c-0.5-0.9-0.9-1.9-1.1-2.9
			c-0.3-1.5-0.2-3,0.3-4.3c0.7-1.7,1.6-3.3,2.8-4.7c1.9-2.4,4.1-4.5,6.4-6.5c3.5-3.1,7.2-6.1,10.9-9.1c2-1.6,3.9-3.5,5.4-5.6
			c2.5-3.3,4-7.2,4.3-11.3c0.1-1.8,0-3.6-0.3-5.4c0-0.1,0-0.1,0-0.2c0-0.1-0.1-0.4,0.1-0.4s0.2,0.1,0.3,0.2c0.5,0.6,0.9,1.4,1.1,2.1
			c0.9,3,1.2,6.2,0.9,9.3c-0.4,3.6-1.8,7-3.9,9.9c-1,1.3-2,2.5-3.2,3.6c-3.2,3-6.4,6-9.5,9.2c-2,1.9-3.8,4-5.6,6.1
			c-1,1.3-1.8,2.6-2.5,4c-1.1,2.1-1.4,4.6-0.7,7c0.7,2.4,1.6,4.7,2.8,6.8c1.7,3.2,3.7,6.3,5.8,9.3C54.9,70.3,55.3,70.5,55.3,70.9
			L55.3,70.9z"/>
		<path class="st0" d="M95.6,111.3c0.1-0.1,0.2,0,0.2,0c0.5,0.3,0.9,0.8,1.2,1.3c0.3,0.5,0.3,1.1-0.1,1.5c-0.4,0.5-0.8,1-1.3,1.3
			c-1.5,1.1-3.1,1.9-4.8,2.6c-2.7,1-5.5,1.8-8.3,2.4c-3.7,0.8-7.4,1.3-11.1,1.6c-2.9,0.3-5.8,0.5-8.7,0.6
			c-5.2,0.3-10.5,0.4-15.8,0.4c-4.1,0-8.2-0.1-12.3-0.3c-3.2-0.1-6.3-0.4-9.5-0.6c-3.6-0.3-7.1-0.8-10.7-1.6
			c-1.3-0.3-2.6-0.7-3.9-1.4c-0.4-0.2-0.8-0.5-1.1-0.8c-0.5-0.5-0.7-1.2-0.4-1.8c0.3-0.8,0.8-1.5,1.4-2c1.1-0.9,2.3-1.5,3.6-2
			c2.5-0.9,5.2-1.6,7.8-2c1.4-0.2,2.8-0.4,4.2-0.5c0.8-0.1,1.7,0,2.5,0.1l-3.1,0.6c-1.9,0.3-3.8,0.8-5.6,1.5
			c-0.6,0.2-1.2,0.5-1.8,0.9c-0.5,0.3-0.9,0.7-1.2,1.1c-0.3,0.4-0.2,1,0.2,1.4c0.4,0.3,0.8,0.6,1.3,0.8c1.3,0.5,2.6,0.8,4,1.1
			c2.5,0.5,5,0.8,7.6,1.1c3.3,0.4,6.6,0.6,9.9,0.8c2.8,0.2,5.5,0.1,8.3,0.1c4.3-0.1,8.5-0.2,12.8-0.3c3.3-0.1,6.6-0.3,9.9-0.5
			s6.6-0.5,9.9-0.9c3.2-0.4,6.3-0.9,9.4-1.7c1.4-0.3,2.8-0.8,4.1-1.6c0.4-0.2,0.7-0.5,1-0.8c0.4-0.4,0.6-1.1,0.4-1.7
			C95.8,111.8,95.7,111.6,95.6,111.3L95.6,111.3z"/>
		<path class="st0" d="M60.8,75.9c0.1-0.3,0.3-0.5,0.5-0.7c0.9-1.2,1.7-2.4,2.3-3.7c1.1-1.9,1.1-4.2,0-6.1c-0.5-0.9-1-1.7-1.6-2.5
			c-0.9-1.4-1.9-2.7-2.9-4.1c-1.5-2.2-2.5-4.7-2.7-7.3c-0.2-2.3,0.2-4.6,1.2-6.7c1.2-2.4,2.9-4.5,5-6.3c2.8-2.3,5.8-4.3,9.1-5.8
			c3.7-1.8,7.5-3.3,11.5-4.4c0.2-0.1,0.4-0.1,0.6-0.1c0.1,0,0.1,0,0.2,0c-0.1,0.2-0.3,0.3-0.5,0.4c-2.6,1.6-5.2,3.3-7.7,5.1
			c-2.9,2-5.6,4.3-8.1,6.8c-1.2,1.2-2.3,2.6-3.1,4.1c-1.3,2.2-1.3,4.8,0,7c0.7,1.3,1.5,2.6,2.3,3.8c0.8,1.3,1.6,2.6,2.3,3.9
			c0.5,1.1,0.9,2.2,1.2,3.4c0.4,1.9,0.1,3.9-1,5.6c-0.9,1.4-1.9,2.7-3.1,3.9c-1.5,1.4-3.2,2.7-5,3.8C61.1,75.9,60.9,75.9,60.8,75.9z
			"/>
		<path class="st0" d="M38.4,100.7c0,0.2-0.1,0.4-0.3,0.6c-0.5,0.6-0.3,1.5,0.3,1.9c0,0,0.1,0,0.1,0.1c0.7,0.5,1.5,0.8,2.4,0.9
			c0.9,0.2,1.7,0.3,2.6,0.3c3.9,0.2,7.8,0.3,11.8,0.1c2.8-0.1,5.5-0.3,8.3-0.6c1.5-0.2,3-0.4,4.5-0.8c0.6-0.2,1.2-0.1,1.8,0.2
			c1.9,1.2,3.9,2.3,6,3.1c-0.1,0.2-0.3,0.2-0.4,0.3c-1.5,0.6-3,1-4.6,1.4c-3.2,0.9-6.5,1.6-9.9,2.1c-3,0.4-6,0.5-9,0.4
			c-3.6-0.1-7.1-0.5-10.6-1.1c-1.9-0.3-3.8-0.9-5.5-1.7c-0.7-0.3-1.3-0.7-1.8-1.2c-1-0.8-1.2-2.3-0.4-3.3c0.1-0.1,0.2-0.3,0.4-0.4
			C35.2,101.7,36.7,101,38.4,100.7z"/>
		<path class="st0" d="M77.8,92.8c-1.1,0.4-2.2,0.8-3.3,1.1c-3.6,1-7.3,1.8-11,2.2c-3.9,0.5-7.8,0.7-11.6,0.5
			c-1.4-0.1-2.8-0.1-4.2-0.1c-4.2-0.1-8.4-0.6-12.5-1.4c-1.4-0.3-2.7-0.7-3.9-1.3c-0.4-0.2-0.7-0.4-1-0.6c-0.7-0.6-1-1.5-0.6-2.4
			c0.3-0.9,0.8-1.6,1.6-2.2c1.3-0.9,2.8-1.6,4.4-1.8h0.1c-0.1,0.2-0.3,0.4-0.5,0.6c-0.3,0.3-0.5,0.6-0.6,1c-0.2,0.5-0.1,1.2,0.3,1.6
			c0.4,0.4,0.8,0.6,1.3,0.8c1.1,0.4,2.2,0.7,3.4,0.8C43,92,46.5,92.1,49.9,92c3.1-0.1,6.2-0.2,9.3-0.5c3.3-0.3,6.6-0.6,9.9-1.2
			c0.9-0.1,1.8-0.3,2.7-0.4c0.6-0.1,1.2,0,1.7,0.4c0.7,0.7,1.5,1.2,2.4,1.7C76.5,92.3,77.2,92.6,77.8,92.8z"/>
		<path class="st0" d="M40.1,72.2c-1.3,0.4-2.6,0.8-3.9,1.2c-1.9,0.5-3.8,1.3-5.6,2.2c-0.6,0.3-1.2,0.7-1.7,1.1
			c-0.8,0.8-0.7,1.4,0.3,1.8c1,0.4,2,0.7,3.1,0.8c3.3,0.4,6.7,0.6,10,0.7c2.5,0.1,5.1,0.1,7.6,0.1s4.9-0.2,7.3-0.4
			c2-0.2,4-0.3,6-0.5c2-0.2,4.1-0.4,6.2-0.6s4.2-0.5,6.3-0.8l6.3-0.9c0.1,0,0.3,0,0.4,0c0.1,0.2,0,0.2-0.1,0.2l-4.6,2.8
			c-0.3,0.1-0.5,0.2-0.8,0.3c-3.7,0.6-7.3,1.1-11,1.5c-3,0.4-6.1,0.7-9.1,0.9c-4.6,0.4-9.2,0.6-13.8,0.5c-3.5-0.1-7-0.2-10.6-0.6
			c-2.9-0.2-5.7-0.6-8.6-1.1c-1.1-0.2-2.1-0.5-3.2-0.8c-0.5-0.1-0.9-0.4-1.3-0.7c-0.4-0.3-0.5-0.8-0.3-1.2c0-0.1,0.1-0.1,0.2-0.2
			c0.3-0.4,0.7-0.7,1.2-1c1.5-0.9,3.1-1.6,4.7-2.2c4.1-1.5,8.4-2.6,12.7-3.1c0.5-0.1,0.9-0.1,1.4-0.1C39.6,72,39.9,72,40.1,72.2z"/>
		<path class="st0" d="M102.9,117.6c-0.1,0.7-0.5,1.3-0.9,1.9c-1.1,1.3-2.5,2.4-4,3.3c-3.1,1.7-6.4,3-9.8,3.7
			c-2.9,0.7-5.8,1.1-8.8,1.6c-4.7,0.6-9.5,1-14.3,1.3c-4.5,0.2-8.9,0.3-13.4,0.2c-2.9-0.1-5.7-0.3-8.6-0.5
			c-5.3-0.5-10.6-1.5-15.7-2.9c-0.2,0-0.5-0.1-0.7-0.3h0.5l5.3,0.5c2,0.2,4,0.4,6.1,0.5c4.1,0.2,8.2,0.4,12.2,0.5
			c3.5,0.1,7.1,0.1,10.6,0c2-0.1,4.1-0.1,6.1-0.2c2.6-0.1,5.1-0.4,7.7-0.6s4.9-0.6,7.3-1c3.8-0.6,7.6-1.6,11.3-2.9
			c3-1.1,5.8-2.5,8.4-4.4l0.4-0.3C102.8,117.6,102.9,117.6,102.9,117.6z"/>
		<path class="st0" d="M83.4,95.6l1-0.7c2.1-1.2,4-2.6,5.9-4.1c2.1-1.6,3.9-3.5,5.4-5.6c1-1.3,1.6-2.8,2-4.3c0.4-1.9,0-3.9-1-5.5
			c-0.9-1.4-2.3-2.3-3.9-2.7c-1.8-0.5-3.7-0.6-5.6-0.3l-0.7,0.1c0,0,0,0-0.1,0c0.1-0.2,0.3-0.3,0.4-0.4c0.8-0.5,1.7-0.9,2.7-1.1
			c2.5-0.6,5.1-0.4,7.4,0.6c1.5,0.6,2.9,1.6,4,2.8c2.1,2.4,2.6,5.8,1.3,8.7c-0.8,1.9-2.1,3.5-3.6,4.9c-2,1.8-4.1,3.3-6.5,4.4
			c-2.6,1.3-5.4,2.4-8.2,3.1C83.8,95.7,83.6,95.7,83.4,95.6z"/>
		<path class="st0" d="M55.2,70.9C55.2,70.9,55.3,70.9,55.2,70.9C55.4,70.9,55.3,70.9,55.2,70.9C55.3,70.9,55.3,70.9,55.2,70.9
			L55.2,70.9z"/>
		<path class="st0" d="M95.6,111.3L95.6,111.3L95.6,111.3C95.6,111.3,95.6,111.3,95.6,111.3L95.6,111.3z"/>
	</g>
</g>
</svg>
