<svg id="Layer_1" data-name="Layer 1" xmlns="http://www.w3.org/2000/svg" viewBox="0 0 211.33 145.79"><defs><style>.cls-1{fill:#fff;}.cls-2{isolation:isolate;}</style></defs><g id="Logos-java"><g id="Java"><path class="cls-1" d="M131.4,115.7c.1-.1.3-.2.4-.3a11.34,11.34,0,0,0,5.9-5.9,17.43,17.43,0,0,0,1.6-7.5V57.3c0-1.1,0-1,1-1h6.6a.37.37,0,0,1,.4.4v44.2a27.39,27.39,0,0,1-1.2,8.1,17.6,17.6,0,0,1-5.4,8.1,16.18,16.18,0,0,1-5,2.7.78.78,0,0,1-1-.2Q133.05,117.8,131.4,115.7Z" transform="translate(-8.66 -2.07)"/><path class="cls-1" d="M61.7,80.6a22.84,22.84,0,0,1-2.2-2.2,126.43,126.43,0,0,1-9.1-10.3,52.48,52.48,0,0,1-5.6-8.3,12,12,0,0,1-1.3-3.3,9.44,9.44,0,0,1,.4-5,17.87,17.87,0,0,1,3.2-5.3,58.22,58.22,0,0,1,7.4-7.5c4.1-3.6,8.3-7,12.5-10.4A37,37,0,0,0,73.2,22,25.58,25.58,0,0,0,78.1,9a25.81,25.81,0,0,0-.3-6.2V2.6c0-.2-.1-.4.1-.5s.3.1.4.3a6,6,0,0,1,1.2,2.4,27.7,27.7,0,0,1,1,10.7A24,24,0,0,1,76,26.9,36,36,0,0,1,72.3,31c-3.7,3.5-7.3,7-10.9,10.5a70.83,70.83,0,0,0-6.4,7,32.15,32.15,0,0,0-2.9,4.6,10.61,10.61,0,0,0-.8,8,41.21,41.21,0,0,0,3.2,7.8,90,90,0,0,0,6.7,10.6c.1.4.5.7.5,1.1Z" transform="translate(-8.66 -2.07)"/><path class="cls-1" d="M108,126.9c.1-.1.2,0,.3,0a3.76,3.76,0,0,1,1.4,1.4,1.51,1.51,0,0,1-.1,1.7,7.11,7.11,0,0,1-1.5,1.5,24.16,24.16,0,0,1-5.5,2.9,52.59,52.59,0,0,1-9.6,2.7A111.25,111.25,0,0,1,80.3,139c-3.3.3-6.7.5-10,.7-6,.3-12,.5-18.1.5q-7.05,0-14.1-.3c-3.6-.1-7.2-.4-10.9-.7A83.66,83.66,0,0,1,15,137.3a17.61,17.61,0,0,1-4.4-1.5,3.81,3.81,0,0,1-1.3-.9,1.82,1.82,0,0,1-.5-2.1,4.81,4.81,0,0,1,1.7-2.3,17.19,17.19,0,0,1,4.2-2.3,39.66,39.66,0,0,1,9-2.3,39.34,39.34,0,0,1,4.8-.6,9.25,9.25,0,0,1,2.9.2c-1.2.2-2.4.4-3.6.7a35.83,35.83,0,0,0-6.4,1.8,12.44,12.44,0,0,0-2,1,4,4,0,0,0-1.3,1.3,1.13,1.13,0,0,0,.2,1.6h0a4.62,4.62,0,0,0,1.5.9,18.35,18.35,0,0,0,4.6,1.2c2.9.6,5.8.9,8.7,1.3,3.8.4,7.5.7,11.3,1,3.2.2,6.3.2,9.5.1,4.9,0,9.8-.2,14.6-.4,3.8-.2,7.6-.3,11.4-.6s7.6-.6,11.3-1.1a97.54,97.54,0,0,0,10.8-1.9,19.05,19.05,0,0,0,4.7-1.8,3.13,3.13,0,0,0,1.1-.9,1.9,1.9,0,0,0,.5-1.9,9.44,9.44,0,0,1-.3-.9Z" transform="translate(-8.66 -2.07)"/><path class="cls-1" d="M68,86.4a2.18,2.18,0,0,1,.5-.8,38.65,38.65,0,0,0,2.7-4.3,7.26,7.26,0,0,0,0-7,17.48,17.48,0,0,0-1.8-2.9c-1.1-1.6-2.2-3.1-3.3-4.7A18.26,18.26,0,0,1,63,58.3a13.79,13.79,0,0,1,1.4-7.7,22.19,22.19,0,0,1,5.7-7.2,49.85,49.85,0,0,1,10.4-6.7,75.13,75.13,0,0,1,13.2-5.1,6.37,6.37,0,0,1,.7-.2h.2a1,1,0,0,1-.5.4c-3,1.9-6,3.8-8.8,5.8A69.16,69.16,0,0,0,76,45.3,23.46,23.46,0,0,0,72.4,50a7.67,7.67,0,0,0,0,8c.8,1.5,1.8,2.9,2.7,4.4a25.09,25.09,0,0,1,2.6,4.5A16.26,16.26,0,0,1,79,70.8a8.47,8.47,0,0,1-1.1,6.4,21.66,21.66,0,0,1-3.6,4.4A48.12,48.12,0,0,1,68.6,86,.72.72,0,0,1,68,86.4Z" transform="translate(-8.66 -2.07)"/><path class="cls-1" d="M42.3,114.8a.91.91,0,0,1-.3.7,1.6,1.6,0,0,0,.4,2.2.1.1,0,0,1,.1.1,6.82,6.82,0,0,0,2.7,1,15.26,15.26,0,0,0,3,.3c4.5.2,9,.3,13.5.1,3.2-.1,6.4-.3,9.5-.7a45.43,45.43,0,0,0,5.1-.9,2.36,2.36,0,0,1,2,.3,45.24,45.24,0,0,0,6.9,3.6c-.1.3-.3.2-.4.3a51.65,51.65,0,0,1-5.2,1.6,73.32,73.32,0,0,1-11.3,2.4,59.18,59.18,0,0,1-10.3.4,71.14,71.14,0,0,1-12.2-1.3,29.65,29.65,0,0,1-6.4-2,7.71,7.71,0,0,1-2.1-1.4,2.62,2.62,0,0,1-.4-3.8c.1-.2.3-.3.4-.4A9.17,9.17,0,0,1,42.3,114.8Z" transform="translate(-8.66 -2.07)"/><path class="cls-1" d="M87.5,105.8a24,24,0,0,1-3.8,1.2,88,88,0,0,1-12.6,2.6,74.08,74.08,0,0,1-13.3.6c-1.6-.1-3.2-.1-4.9-.2a88.15,88.15,0,0,1-14.4-1.6,17,17,0,0,1-4.5-1.5,7.46,7.46,0,0,1-1.2-.7,2.29,2.29,0,0,1-.7-2.7,5.07,5.07,0,0,1,1.8-2.5,11.64,11.64,0,0,1,5-2.1H39a1.79,1.79,0,0,1-.5.7,2.4,2.4,0,0,0-.7,1.2,1.56,1.56,0,0,0,.4,1.8,4.92,4.92,0,0,0,1.5,1,13.77,13.77,0,0,0,3.9.9,78.92,78.92,0,0,0,11.9.4c3.6-.1,7.1-.3,10.7-.6,3.8-.3,7.6-.7,11.3-1.3l3.2-.5a1.9,1.9,0,0,1,1.9.5,17.13,17.13,0,0,0,2.7,2A19.45,19.45,0,0,0,87.5,105.8Z" transform="translate(-8.66 -2.07)"/><path class="cls-1" d="M44.3,82.1c-1.5.4-3,.9-4.5,1.3a38.55,38.55,0,0,0-6.4,2.5,8,8,0,0,0-1.9,1.3c-.9.9-.8,1.6.4,2.1a10.64,10.64,0,0,0,3.5.9,109.19,109.19,0,0,0,11.5.8c2.9.1,5.8.1,8.8.1,2.8,0,5.6-.2,8.4-.4,2.3-.2,4.6-.3,6.9-.5s4.8-.5,7.2-.7,4.8-.6,7.2-.9l7.2-1.1h.5c.1.2-.1.2-.2.3L87.6,91a1.61,1.61,0,0,1-.9.3c-4.2.7-8.4,1.2-12.6,1.7-3.5.4-7,.8-10.4,1.1a139.1,139.1,0,0,1-15.8.6c-4-.1-8.1-.3-12.1-.6-3.3-.2-6.6-.7-9.9-1.2a24.18,24.18,0,0,1-3.6-1,5.48,5.48,0,0,1-1.5-.8,1,1,0,0,1-.3-1.4c0-.1.1-.1.2-.2A6.89,6.89,0,0,1,22,88.4a26.49,26.49,0,0,1,5.4-2.5A66.14,66.14,0,0,1,42,82.4c.5-.1,1.1-.1,1.6-.2A.43.43,0,0,1,44.3,82.1Z" transform="translate(-8.66 -2.07)"/><path class="cls-1" d="M116.4,134.2a4.27,4.27,0,0,1-1.1,2.1,15,15,0,0,1-4.6,3.7,41.22,41.22,0,0,1-11.2,4.3c-3.3.8-6.7,1.3-10.1,1.8-5.4.8-10.9,1.2-16.4,1.5-5.1.3-10.2.3-15.3.2q-5-.15-9.9-.6a92.19,92.19,0,0,1-18-3.4c-.3,0-.5-.2-.8-.4h.6l6.1.5,7,.6q7,.45,14.1.6c4,.1,8.1.1,12.1,0,2.3-.1,4.7-.1,7-.3,2.9-.2,5.9-.4,8.8-.7s5.6-.7,8.4-1.2a71.82,71.82,0,0,0,12.9-3.3,35.45,35.45,0,0,0,9.6-5.1,2.19,2.19,0,0,1,.5-.3C116.3,134.1,116.2,134.2,116.4,134.2Z" transform="translate(-8.66 -2.07)"/><path class="cls-1" d="M94,109a7.46,7.46,0,0,1,1.2-.7,63.25,63.25,0,0,0,6.8-4.7,31.74,31.74,0,0,0,6.2-6.5,11.82,11.82,0,0,0,2.2-5,8.73,8.73,0,0,0-1.2-6.3,7.21,7.21,0,0,0-4.4-3,17.27,17.27,0,0,0-6.4-.3l-.8.1h-.1a1.21,1.21,0,0,1,.5-.5,8.52,8.52,0,0,1,3.1-1.3,13.11,13.11,0,0,1,8.5.7,11.21,11.21,0,0,1,4.5,3.3,9.21,9.21,0,0,1,1.5,9.9,18.83,18.83,0,0,1-4.1,5.6,35.42,35.42,0,0,1-7.5,5.1,53.57,53.57,0,0,1-9.4,3.6Z" transform="translate(-8.66 -2.07)"/><path class="cls-1" d="M61.7,80.6Z" transform="translate(-8.66 -2.07)"/><path class="cls-1" d="M108,126.9Z" transform="translate(-8.66 -2.07)"/></g><g class="cls-2"><path class="cls-1" d="M199.88,107.72h-6.82L165,64.58h-.28q.56,7.59.56,13.92v29.22h-5.52V56.32h6.75l28,43h.28c0-.63-.15-2.67-.31-6.1s-.23-5.89-.18-7.37V56.32h5.59Z" transform="translate(-8.66 -2.07)"/><path class="cls-1" d="M214,107.72V56.32h6v51.4Z" transform="translate(-8.66 -2.07)"/></g></g></svg>