<?xml version="1.0" encoding="utf-8"?>
<!-- Generator: Adobe Illustrator 25.1.0, SVG Export Plug-In . SVG Version: 6.00 Build 0)  -->
<svg version="1.1" id="Layer_1" xmlns="http://www.w3.org/2000/svg" xmlns:xlink="http://www.w3.org/1999/xlink" x="0px" y="0px"
	 viewBox="0 0 100 100" style="enable-background:new 0 0 100 100;" xml:space="preserve">
<style type="text/css">
	.st0{display:none;}
	.st1{display:inline;}
	.st2{opacity:0.6414;fill:none;stroke:#FFFFFF;stroke-width:6;stroke-linecap:square;enable-background:new    ;}
	.st3{fill-rule:evenodd;clip-rule:evenodd;fill:#9FB0BF;}
	.st4{fill:none;stroke:#FFFFFF;stroke-width:2;}
	.st5{fill-rule:evenodd;clip-rule:evenodd;fill:#FFFFFF;fill-opacity:0.4;}
	.st6{fill-rule:evenodd;clip-rule:evenodd;fill:#FFFFFF;}
	.st7{fill:none;stroke:#DCE3EE;stroke-width:2;}
	.st8{fill:#FFFFFF;}
	.st9{display:inline;fill:#FFFFFF;}
	.st10{display:none;fill:#FFFFFF;}
</style>
<desc>Created with Sketch.</desc>
<g id="Dev_Portal" class="st0">
	<g id="Desktop-HD-Copy-2" transform="translate(-329.000000, -1323.000000)" class="st1">
		<g id="Group-11" transform="translate(329.000000, 1323.000000)">
			<g id="Group-2-Copy-3" transform="translate(16.000000, 29.000000)">
				<path id="Line" class="st2" d="M22,12.5h18.3"/>
				<polygon id="Fill-2" class="st3" points="33.1,6 31.7,7.4 37.3,13.1 31.7,18.7 33.1,20.1 40.1,13.1 				"/>
				<polygon id="Fill-2_1_" class="st3" points="28.9,20.1 30.3,18.7 24.7,13.1 30.3,7.4 28.9,6 21.8,13.1 				"/>
				<path id="Line-Copy" class="st2" d="M49,20v11"/>
				<path id="Rectangle-33-Copy-7" class="st4" d="M48.6,8L48.6,8c2.6,0,4.6,2.1,4.6,4.6l0,0c0,2.6-2.1,4.6-4.6,4.6l0,0
					c-2.6,0-4.6-2.1-4.6-4.6l0,0C44,10.1,46.1,8,48.6,8z"/>
				<g id="Group-4-Copy-3">
					<path id="Rectangle-33-Copy" class="st4" d="M5,1h8.8c2.2,0,4,1.8,4,4v16.2c0,2.2-1.8,4-4,4H5c-2.2,0-4-1.8-4-4V5
						C1,2.8,2.8,1,5,1z"/>
					<path id="Rectangle-33-Copy-2" class="st5" d="M4.8,3.8H14c0.6,0,1,0.4,1,1V8c0,0.6-0.4,1-1,1H4.8c-0.6,0-1-0.4-1-1V4.8
						C3.8,4.2,4.2,3.8,4.8,3.8z"/>
					<path id="Rectangle-33-Copy-4" class="st5" d="M4.8,10.5H14c0.6,0,1,0.4,1,1v3.2c0,0.6-0.4,1-1,1H4.8c-0.6,0-1-0.4-1-1v-3.2
						C3.8,10.9,4.2,10.5,4.8,10.5z"/>
					<path id="Rectangle-33-Copy-6" class="st5" d="M4.8,17.2H14c0.6,0,1,0.4,1,1v3.2c0,0.6-0.4,1-1,1H4.8c-0.6,0-1-0.4-1-1v-3.2
						C3.8,17.7,4.2,17.2,4.8,17.2z"/>
				</g>
				<polygon id="Fill-2_2_" class="st3" points="56.3,22.2 54.9,20.8 49.2,26.5 43.6,20.8 42.2,22.2 49.2,29.3 				"/>
			</g>
			<g id="Rectangle-33-Copy_1_">
				<g>
					<path id="path-1" class="st6" d="M64,63h2c4.4,0,8,3.6,8,8v7c0,4.4-3.6,8-8,8h-2c-4.4,0-8-3.6-8-8v-7C56,66.6,59.6,63,64,63z"
						/>
				</g>
				<path class="st7" d="M65,64L65,64c4.4,0,8,3.6,8,8v5c0,4.4-3.6,8-8,8l0,0c-4.4,0-8-3.6-8-8v-5C57,67.6,60.6,64,65,64z"/>
			</g>
			<g id="Rectangle-33-Copy_2_">
				<g>
					<path id="path-2" class="st6" d="M61.5,63h7l0,0c3,0,5.5,2.5,5.5,5.5l0,0l0,0c0,3-2.5,5.5-5.5,5.5h-7l0,0c-3,0-5.5-2.5-5.5-5.5
						l0,0l0,0C56,65.5,58.5,63,61.5,63z"/>
				</g>
				<path class="st7" d="M61.5,64C59,64,57,66,57,68.5s2,4.5,4.5,4.5h7c2.5,0,4.5-2,4.5-4.5S71,64,68.5,64H61.5z"/>
			</g>
		</g>
	</g>
</g>
<g id="Page-1" class="st0">
	<g id="icons8-Java" class="st1">
		<path id="Shape" class="st8" d="M55.9,18.8c3.4,6.8-12.2,11.1-13.6,16.8c-1.3,5.2,9.2,11.3,9.2,11.3c-1.6-2.2-2.8-3.9-4.4-7.3
			C44.5,33.9,63.3,28,55.9,18.8z M67.1,28.2c0,0-11.9,0.8-12.5,8c-0.3,3.2,3.1,5,3.2,7.3c0.1,1.9-2,3.4-2,3.4s3.5-0.5,4.7-3.4
			c1.3-3.2-2.3-5.6-1.8-8.2C59,32.8,67.1,28.2,67.1,28.2z M45,46.9c0,0-12.2-0.1-12.2,3.3c0,3.5,15.9,3.7,27.3,1.6
			c0,0,2.6-1.4,3.4-2.1c-7.5,1.5-23.9,1-23.9-0.3C39.6,48.2,45,46.9,45,46.9z M69.3,47c-1.3-0.1-2.8,0.4-4.1,1.3
			c2.6-0.6,4.9,1,4.9,2.9c0,4.2-6,8.2-6,8.2s9.3-1.1,9.3-8C73.4,48.6,71.5,47.1,69.3,47z M40.8,53.2c-1.9,0-4.8,1.6-4.8,3
			c0,2.9,14.3,5.1,24.9,0.9l-3.7-2.3C50,57.1,36.8,56.4,40.8,53.2z M43.4,59.4c-2.6,0-4.3,1.8-4.3,3.1c0,4,15.6,4.1,21.8,0L57,60.1
			C52.4,62.2,40.7,62.5,43.4,59.4z M32.1,65.6c-3.7-0.1-5.5,1.8-5.5,3.3c0,8.3,40.5,8,40.5-0.5c0-1.4-1.6-2.1-2.1-2.4
			c3.3,8.1-33.5,7.5-33.5,2.7c0-1.1,1.9-2.2,4.4-1.7c0,0-0.8-1.1-2-1.3C33.2,65.7,32.6,65.6,32.1,65.6z M73.4,71.8
			C67,78.1,49.3,81.9,32.9,78C49.3,84.8,73.3,79.6,73.4,71.8z"/>
	</g>
</g>
<g class="st0">
	<path class="st9" d="M47,14.4c1.8-1,4.2-1,6,0c9.1,5.1,18.1,10.2,27.2,15.4c1.7,1,2.8,2.9,2.8,4.8v30.8c0,2-1.2,4-3,4.9
		c-9,5.1-18.1,10.2-27.1,15.3c-1.8,1.1-4.2,1-6-0.2c-2.7-1.6-5.4-3.1-8.1-4.7c-0.6-0.3-1.2-0.6-1.6-1.1c0.3-0.5,1-0.5,1.5-0.7
		c1.1-0.4,2.2-0.9,3.2-1.5c0.3-0.2,0.6-0.1,0.8,0.1c2.3,1.3,4.6,2.7,6.9,4c0.5,0.3,1-0.1,1.4-0.3c8.9-5,17.8-10,26.6-15
		c0.3-0.2,0.5-0.5,0.5-0.9c0-10.2,0-20.3,0-30.5c0-0.4-0.2-0.8-0.6-1c-9-5.1-18-10.2-27-15.2c-0.3-0.2-0.7-0.2-1.1,0
		c-9,5.1-18,10.2-27,15.2c-0.4,0.2-0.6,0.5-0.6,0.9c0,10.2,0,20.3,0,30.5c0,0.4,0.2,0.7,0.5,0.9c2.4,1.4,4.8,2.7,7.2,4.1
		c1.4,0.7,3,1.2,4.5,0.6c1.3-0.5,2.2-1.8,2.2-3.2c0-10.1,0-20.2,0-30.3c0-0.4,0.4-0.8,0.8-0.8c1.2,0,2.3,0,3.5,0
		c0.5,0,0.8,0.5,0.8,0.9c0,10.2,0,20.4,0,30.5c0,2.7-1.1,5.7-3.6,7c-3.1,1.6-6.9,1.3-10-0.3c-2.6-1.3-5.2-2.9-7.8-4.3
		c-1.8-0.9-3.1-2.9-3-4.9V34.6c0-2,1.2-3.9,2.9-4.9C28.9,24.6,38,19.5,47,14.4z"/>
	<path class="st9" d="M54.9,35.7c3.9-0.3,8.2-0.2,11.7,1.8c2.7,1.5,4.3,4.6,4.3,7.7c-0.1,0.4-0.5,0.6-0.9,0.6c-1.1,0-2.3,0-3.4,0
		c-0.5,0-0.8-0.4-0.8-0.9c-0.3-1.5-1.1-2.9-2.5-3.6c-2.1-1.1-4.6-1-6.9-1c-1.7,0.1-3.5,0.2-4.9,1.2c-1.1,0.7-1.4,2.3-1,3.5
		c0.4,0.9,1.4,1.2,2.2,1.4c4.8,1.2,9.8,1.1,14.4,2.8c1.9,0.7,3.8,2,4.5,4c0.9,2.7,0.5,5.9-1.4,8.1c-1.6,1.8-3.8,2.8-6.1,3.3
		c-3,0.7-6.2,0.7-9.2,0.4c-2.9-0.3-5.9-1.1-8.1-3c-1.9-1.7-2.8-4.2-2.7-6.7c0-0.4,0.4-0.7,0.8-0.7c1.2,0,2.3,0,3.5,0
		c0.5,0,0.8,0.4,0.8,0.8c0.2,1.4,0.7,2.9,1.9,3.7c2.3,1.5,5.3,1.4,8,1.4c2.2-0.1,4.7-0.1,6.5-1.6c1-0.8,1.2-2.2,1-3.4
		c-0.3-1-1.3-1.5-2.3-1.8c-4.7-1.5-9.8-0.9-14.4-2.6c-1.9-0.7-3.7-1.9-4.4-3.9c-1-2.7-0.5-6.1,1.6-8.2C49.1,36.8,52.1,36,54.9,35.7
		L54.9,35.7z"/>
</g>
<path class="st10" d="M84,46.2L70.2,22.5c-1.2-2.1-4.1-3.8-6.5-3.8H36.3c-2.4,0-5.3,1.7-6.5,3.8L16,46.2c-1.2,2.1-1.2,5.4,0,7.5
	l13.7,23.8c1.2,2.1,4.1,3.8,6.5,3.8h27.5c2.4,0,5.3-1.7,6.5-3.8L84,53.8C85.2,51.7,85.2,48.3,84,46.2z M47,31.9
	c-0.1-1.6,1.2-2.9,2.7-2.9c1.6-0.1,2.9,1.2,2.9,2.7c0,0.1,0,0.1,0,0.2v16.9c0.1,1.6-1.2,2.9-2.7,2.9C48.3,51.8,47,50.5,47,49
	c0-0.1,0-0.1,0-0.2V31.9z M49.9,68c-10.6,0-19.2-8.6-19.2-19.2c0-6.1,2.9-11.8,7.7-15.4c1.1-0.8,2.7-0.6,3.5,0.5s0.6,2.7-0.5,3.5
	c-6.3,4.7-7.6,13.5-2.9,19.8s13.5,7.6,19.8,2.9c3.6-2.7,5.7-6.9,5.7-11.4s-2.1-8.7-5.8-11.4c-1.1-0.8-1.4-2.4-0.6-3.5
	c0.8-1.1,2.4-1.4,3.5-0.6l0,0c8.5,6.3,10.3,18.3,4.1,26.8C61.7,65.1,56,68,49.9,68z"/>
<path class="st8" d="M19.2,44.8l7.2-4.3C27.7,43,29,45,32,45c2.9,0,4.7-1.1,4.7-5.5V9.7h8.8v29.9c0,9-5.3,13.2-13.1,13.2
	C25.3,52.9,21.2,49.2,19.2,44.8 M50.2,43.9l7.2-4.2c1.9,3.1,4.3,5.3,8.6,5.3c3.7,0,6-1.8,6-4.3c0-3-2.4-4.1-6.4-5.8l-2.2-1
	c-6.4-2.7-10.5-6.1-10.5-13.2c0-6.6,5-11.6,12.9-11.6c5.5,0,9.6,2,12.5,7l-6.8,4.4c-1.5-2.7-3.1-3.8-5.6-3.8c-2.6,0-4.2,1.6-4.2,3.8
	c0,2.6,1.6,3.7,5.4,5.3l2.2,1c7.4,3.2,11.7,6.4,11.7,13.8c0,7.9-6.2,12.2-14.5,12.2C58,52.9,52.8,49,50.2,43.9"/>
</svg>
