<svg id="Layer_1" data-name="Layer 1" xmlns="http://www.w3.org/2000/svg" viewBox="0 0 1460 1251"><defs><style>.cls-1{fill:#fff;}</style></defs><path class="cls-1" d="M474.89,69.77c-6.39,1.72-16.11,11.31-17.83,17.71-.74,2.71-1.36,11.56-1.36,19.68,0,17.47-1,16.48,16,16.48,19.81,0,50.68,3.57,77.5,8.74,174.66,34,319.43,159.53,377.37,327.31,15.62,45,24.35,90.77,26.81,140.22l.86,17H969c12.55,0,15.63-.36,20.18-2.58a27,27,0,0,0,13.77-16.36c1.11-3.57,1.36-32.22,1.11-101.6l-.37-96.56-5.9-12.91c-32.23-69.62-68.39-123.13-117.72-173.93C822.5,153.66,749.8,105.19,673.79,75.18l-17.47-6.89L568,68.42C511.18,68.54,478,69,474.89,69.77Z"/><path class="cls-1" d="M839.47,69.4c0,.61.86,1.35,1.85,1.72,2.46,1,28.41,20.3,43,32,41.94,33.83,77.24,70.73,111.81,117.1L1004.3,231V160.54c0-69,0-70.72-2.59-75.89-3.32-6.89-10.94-13.28-17.71-15S839.47,67.68,839.47,69.4Z"/><path class="cls-1" d="M455.7,251.2v44.4l12.67.86c66.92,4.31,125.22,24.85,176.14,61.87,80,58.06,128.66,146.87,134.2,244.41l.86,14.14h93.11l-.61-5.28c-.25-2.83-.86-11.57-1.23-19.32-3.81-83.15-40.1-171.58-98.4-239.85-73.93-86.6-184.39-140.72-296.07-144.78l-20.67-.73Z"/><path class="cls-1" d="M455.7,487.49v108l3.45,6.77a28.66,28.66,0,0,0,8.61,10.33l5.41,3.69,112.42.37,112.43.24v-3c0-7-2.83-29.4-5-40.71-19.19-95.45-95.45-170.61-191.77-188.81-10.82-2.09-35.67-4.92-43.29-4.92C455.83,379.49,455.7,385.39,455.7,487.49Z"/><path class="cls-1" d="M651.4,700.65c-35.79,3.2-67.28,18.33-91,43.67-15,16.11-25.22,35.17-31.86,59.41-2.95,10.82-3.2,13.77-3.32,37,0,22.63.25,26.32,2.95,36.29,14.76,56.58,56.21,94.34,113.41,103.44,12.3,2,39.12,1.85,56.46-.25l5.53-.61,18.33,20.79c27.55,31.24,25,30.13,70.73,30.75,21.15.24,33.46,0,33.21-.74s-15.87-17.84-34.56-38.25L757.18,955l7.63-6.52c10.82-9.1,23.25-25.09,30.26-38.75,11.07-21.64,16.11-43,16.11-68.39,0-31.24-8.12-58.67-24.72-83.15-6.77-10.08-22.88-26.19-33-33-11.68-8-31.24-16.85-44.4-20.3-9.72-2.46-39.24-6.15-44.65-5.53C663.58,699.54,657.8,700.16,651.4,700.65Zm37.76,54.61c37.15,8.74,58.92,44.28,56.34,92.38-2.71,49.81-28.42,79-72,81.3-22.51,1.23-43.17-4.92-56.95-16.85-18.33-15.87-28.17-45-26.44-78.11,2.33-41.94,22.63-70.6,55.72-78.59C655.58,753.05,679.32,752.93,689.16,755.26Z"/><path class="cls-1" d="M197.4,841.36V979.74h56.7l-.37-91c-.24-50.06-.24-91-.24-91s4.43,8.12,9.47,18.08C307.61,903,326.67,939,331,943.7c5.9,6.15,12.42,8.24,24.48,7.51,9.84-.62,17.59-4.06,21.28-9.23,2.09-3.07,15.25-28.29,62-119.19l12.67-24.72.37,90.77.24,90.9,28.05-.24,27.92-.37V703.6l-29.89-.37c-24.35-.24-30.38,0-33.33,1.48s-6.89,8.49-20.79,35.42c-29.15,57-64.82,127.93-68.14,135.68l-3.2,7.38-2.83-6.77c-2.58-6.4-35.8-72.69-69-137.76-8.11-15.87-16.11-30.26-17.71-32l-2.95-3.08-31.37-.37-31.36-.37Z"/><path class="cls-1" d="M803.8,728.2v25.22h73.8l.25,112.79.37,112.92h64l.37-112.92.24-112.79h73.81V703H803.8Z"/><path class="cls-1" d="M1046.12,728.2v25.22l37.27.24,37.14.37.37,112.8.25,112.91h64V753.42h77.49V703H1046.12Z"/></svg>