<?xml version="1.0" encoding="utf-8"?>
<!-- Generator: Adobe Illustrator 25.1.0, SVG Export Plug-In . SVG Version: 6.00 Build 0)  -->
<svg version="1.1" id="Logos" xmlns="http://www.w3.org/2000/svg" xmlns:xlink="http://www.w3.org/1999/xlink" x="0px" y="0px"
	 viewBox="0 0 224 140" style="enable-background:new 0 0 224 140;" xml:space="preserve">
<style type="text/css">
	.st0{fill:#FFFFFF;}
	.st1{fill-rule:evenodd;clip-rule:evenodd;fill:#FFFFFF;}
	.st2{clip-path:url(#SVGID_2_);}
</style>
<g id="Websocket">
	<path class="st0" d="M111.8,133.7c-0.7,0-1.4-0.2-2-0.5l-6.3-3.7c-0.9-0.5-0.5-0.7-0.2-0.8c1-0.3,1.9-0.7,2.8-1.3
		c0.1-0.1,0.3-0.1,0.5,0l4.8,2.9c0.2,0.1,0.4,0.1,0.6,0l18.8-10.8c0.2-0.1,0.3-0.3,0.3-0.5V97.2c0-0.2-0.1-0.4-0.3-0.5l-18.7-10.8
		c-0.2-0.1-0.4-0.1-0.6,0L92.8,96.7c-0.2,0.1-0.3,0.3-0.3,0.5v21.7c0,0.2,0.1,0.4,0.3,0.5l5.1,3c2.8,1.4,4.5-0.2,4.5-1.9V99.1
		c0-0.3,0.2-0.5,0.5-0.5c0,0,0,0,0,0h2.4c0.3,0,0.5,0.3,0.5,0.6v21.4c0,3.7-2,5.9-5.6,5.9c-1.5,0-3-0.4-4.3-1.2l-4.9-2.8
		c-1.2-0.7-2-2-2-3.4V97.2c0-1.4,0.8-2.7,2-3.4l18.8-10.8c1.2-0.7,2.7-0.7,3.9,0l18.8,10.8c1.2,0.7,2,2,2,3.4v21.7
		c0,1.4-0.8,2.7-2,3.4l-18.8,10.8C113.2,133.5,112.5,133.7,111.8,133.7z"/>
	<path class="st0" d="M117.6,118.7c-8.2,0-9.9-3.8-9.9-6.9c0-0.3,0.2-0.5,0.5-0.5h2.4c0.3,0,0.5,0.2,0.5,0.5
		c0.4,2.5,1.5,3.7,6.4,3.7c3.9,0,5.6-0.9,5.6-3c0-1.2-0.5-2.1-6.6-2.7c-5.1-0.5-8.3-1.6-8.3-5.8c0-3.8,3.2-6,8.5-6
		c6,0,9,2.1,9.4,6.6c0,0.2,0,0.3-0.1,0.4c-0.1,0.1-0.2,0.2-0.4,0.2h-2.4c-0.3,0-0.5-0.2-0.5-0.4c-0.6-2.6-2-3.4-5.9-3.4
		c-4.3,0-4.8,1.5-4.8,2.6c0,1.4,0.6,1.8,6.4,2.5s8.5,1.8,8.5,5.9S123.6,118.7,117.6,118.7z"/>
	<path class="st0" d="M144.7,96c0,2-1.6,3.6-3.6,3.6c-2,0-3.6-1.6-3.6-3.6c0-2,1.6-3.6,3.6-3.6c0,0,0,0,0,0
		C143.1,92.4,144.7,94,144.7,96z M138,96c0,1.7,1.3,3,3,3s3-1.3,3-3s-1.3-3-3-3S138,94.3,138,96z M139.7,94h1.4c0.5,0,1.4,0,1.4,1.1
		c0,0.5-0.3,0.9-0.8,1c0.6,0,0.6,0.4,0.7,0.9c0,0.4,0.1,0.7,0.2,1.1h-0.9c0-0.2-0.1-1.2-0.1-1.3c-0.1-0.2-0.1-0.3-0.4-0.3h-0.7V98
		h-0.8V94z M140.4,95.8h0.6c0.3,0,0.6-0.2,0.6-0.5c0,0,0-0.1,0-0.1c0-0.6-0.4-0.6-0.6-0.6h-0.6L140.4,95.8z"/>
	<path class="st1" d="M53.7,48.9c0-0.9-0.5-1.7-1.2-2.1L32.6,35.3c-0.3-0.2-0.7-0.3-1.1-0.3h-0.2c-0.4,0-0.8,0.1-1.1,0.3L10.2,46.8
		C9.5,47.2,9,48,9,48.9l0,30.8c0,0.4,0.2,0.8,0.6,1c0.4,0.2,0.8,0.2,1.2,0L22.7,74c0.7-0.4,1.2-1.2,1.2-2.1V57.5
		c0-0.9,0.5-1.7,1.2-2.1l5-2.9c0.4-0.2,0.8-0.3,1.2-0.3c0.4,0,0.8,0.1,1.2,0.3l5,2.9c0.7,0.4,1.2,1.2,1.2,2.1v14.4
		c0,0.9,0.5,1.7,1.3,2.1l11.8,6.8c0.4,0.2,0.8,0.2,1.2,0c0.4-0.2,0.6-0.6,0.6-1L53.7,48.9z"/>
	<path class="st1" d="M149.4,6.5c-0.4-0.2-0.8-0.2-1.2,0c-0.4,0.2-0.6,0.6-0.6,1v30.6c0,0.5-0.4,0.8-0.8,0.8c-0.1,0-0.3,0-0.4-0.1
		l-5-2.9c-0.7-0.4-1.7-0.4-2.4,0l-19.9,11.5c-0.7,0.4-1.2,1.2-1.2,2.1v23c0,0.9,0.5,1.6,1.2,2.1L139,86.1c0.7,0.4,1.7,0.4,2.4,0
		l19.9-11.5c0.7-0.4,1.2-1.2,1.2-2.1V15.2c0-0.9-0.5-1.7-1.2-2.1L149.4,6.5z M147.6,65c0,0.2-0.1,0.4-0.3,0.5l-6.8,3.9
		c-0.2,0.1-0.4,0.1-0.6,0l-6.9-4c-0.2-0.1-0.3-0.3-0.3-0.5v-7.9c0-0.2,0.1-0.4,0.3-0.5l6.8-4c0.2-0.1,0.4-0.1,0.6,0l6.8,4
		c0.2,0.1,0.3,0.3,0.3,0.5L147.6,65z"/>
	<path class="st1" d="M215.8,56.8c0.7-0.4,1.2-1.2,1.2-2.1v-5.6c0-0.9-0.5-1.6-1.2-2.1L196,35.6c-0.7-0.4-1.7-0.4-2.4,0l-19.9,11.5
		c-0.7,0.4-1.2,1.2-1.2,2.1v23c0,0.9,0.5,1.7,1.2,2.1l19.8,11.3c0.7,0.4,1.6,0.4,2.4,0l12-6.7c0.6-0.3,0.8-1.1,0.4-1.7
		c-0.1-0.2-0.3-0.3-0.4-0.4l-20-11.5c-0.4-0.2-0.6-0.6-0.6-1v-7.2c0-0.4,0.2-0.8,0.6-1l6.2-3.7c0.4-0.2,0.8-0.2,1.2,0l6.2,3.6
		c0.4,0.2,0.6,0.6,0.6,1v5.7c0,0.7,0.6,1.2,1.3,1.2c0.2,0,0.4-0.1,0.6-0.2L215.8,56.8z"/>
	<path class="st1" d="M194.5,55.8c0.1-0.1,0.3-0.1,0.5,0l3.8,2.2c0.1,0.1,0.2,0.2,0.2,0.4v4.4c0,0.2-0.1,0.3-0.2,0.4l-3.8,2.2
		c-0.1,0.1-0.3,0.1-0.5,0l-3.8-2.2c-0.1-0.1-0.2-0.2-0.2-0.4v-4.4c0-0.2,0.1-0.3,0.2-0.4L194.5,55.8z"/>
	<path class="st1" d="M87,35.8c-0.7-0.4-1.7-0.4-2.4,0L64.8,47.2c-0.7,0.4-1.2,1.2-1.2,2.1v22.9c0,0.9,0.5,1.6,1.2,2.1l19.8,11.4
		c0.7,0.4,1.7,0.4,2.4,0l19.8-11.4c0.7-0.4,1.2-1.2,1.2-2.1V49.2c0-0.9-0.5-1.6-1.2-2.1L87,35.8z"/>
	<g>
		<defs>
			<path id="SVGID_1_" d="M87,35.8c-0.7-0.4-1.7-0.4-2.4,0L64.8,47.2c-0.7,0.4-1.2,1.2-1.2,2.1v22.9c0,0.9,0.5,1.6,1.2,2.1
				l19.8,11.4c0.7,0.4,1.7,0.4,2.4,0l19.8-11.4c0.7-0.4,1.2-1.2,1.2-2.1V49.2c0-0.9-0.5-1.6-1.2-2.1L87,35.8z"/>
		</defs>
		<clipPath id="SVGID_2_">
			<use xlink:href="#SVGID_1_"  style="overflow:visible;"/>
		</clipPath>
		<g class="st2">
			<path class="st0" d="M84.5,35.8L64.7,47.2c-0.8,0.4-1.2,1.2-1.3,2.1v22.9c0,0.6,0.2,1.1,0.6,1.5l22.3-38.1
				C85.7,35.4,85.1,35.4,84.5,35.8z"/>
			<path class="st0" d="M86.4,85.9c0.2-0.1,0.4-0.1,0.6-0.2l19.8-11.4c0.8-0.4,1.2-1.2,1.2-2.1V49.2c0-0.6-0.3-1.2-0.7-1.7
				L86.4,85.9z"/>
			<path class="st0" d="M106.8,47.2L87,35.8c-0.2-0.1-0.4-0.2-0.6-0.2L64,73.6c0.2,0.2,0.4,0.4,0.7,0.6l19.9,11.4
				c0.6,0.3,1.2,0.4,1.8,0.2l20.9-38.3C107.2,47.4,107,47.3,106.8,47.2z"/>
			<path class="st0" d="M108.1,72.1V49.2c0-0.9-0.5-1.7-1.3-2.1L87,35.8c-0.2-0.1-0.5-0.2-0.7-0.3L108,72.7
				C108,72.5,108.1,72.3,108.1,72.1z"/>
			<path class="st0" d="M64.7,47.2c-0.8,0.4-1.2,1.2-1.3,2.1v22.9c0,0.9,0.5,1.7,1.3,2.1l19.9,11.4c0.5,0.3,1,0.4,1.5,0.3L64.8,47.1
				L64.7,47.2z"/>
			<polygon class="st0" points="83.9,31.5 83.7,31.7 84,31.7 			"/>
			<path class="st0" d="M106.8,74.2c0.6-0.3,1-0.9,1.2-1.5L86.2,35.5c-0.6-0.1-1.2,0-1.7,0.3L64.8,47.1l21.3,38.8
				c0.3,0,0.6-0.1,0.9-0.3L106.8,74.2z"/>
			<polygon class="st0" points="108.7,73.8 108.5,73.6 108.5,73.9 			"/>
			<path class="st0" d="M106.8,74.2L87,85.6c-0.3,0.2-0.6,0.3-0.9,0.3l0.4,0.7l22-12.8v-0.3l-0.6-0.9
				C107.8,73.3,107.4,73.9,106.8,74.2z"/>
			<path class="st0" d="M106.8,74.2L87,85.6c-0.3,0.2-0.6,0.3-0.9,0.3l0.4,0.7l22-12.8v-0.3l-0.6-0.9
				C107.8,73.3,107.4,73.9,106.8,74.2z"/>
		</g>
	</g>
</g>
</svg>
