<?xml version="1.0" encoding="utf-8"?>
<!-- Generator: Adobe Illustrator 25.1.0, SVG Export Plug-In . SVG Version: 6.00 Build 0)  -->
<svg version="1.1" id="Layer_1" xmlns="http://www.w3.org/2000/svg" xmlns:xlink="http://www.w3.org/1999/xlink" x="0px" y="0px"
	 viewBox="0 0 311 161" style="enable-background:new 0 0 311 161;" xml:space="preserve">
<style type="text/css">
	.st0{fill:#FFFFFF;stroke:#000000;stroke-miterlimit:10;}
</style>
<g transform="translate(0.000000,161.000000) scale(0.100000,-0.100000)">
	<path class="st0" d="M328.3,1227.1c-71.8-24.5-137.2-93.1-156.8-163.3c-13.1-50.6-9.8-75.1,14.7-133.9
		c29.4-63.7,45.7-78.4,173.1-140.4c153.5-76.7,189.4-111,189.4-187.8c0-115.9-107.8-171.5-262.9-135.5
		c-115.9,26.1-114.3,26.1-130.6-14.7c-11.4-32.7-6.5-39.2,70.2-62.1c98-29.4,161.7-31,244.9-8.2C607.5,420.5,682.6,543,646.7,672
		c-21.2,80-65.3,120.8-197.6,184.5c-137.2,65.3-178,104.5-178,169.8c0,81.6,63.7,130.6,168.2,129c47.4-1.6,102.9-9.8,122.5-21.2
		c31-16.3,35.9-14.7,45.7,22.9c13.1,52.3,8.2,57.2-70.2,75.1C457.3,1250,390.3,1248.4,328.3,1227.1z"/>
	<path class="st0" d="M810,805.9V381.3h236.8h236.8v49v49h-179.6H924.3v155.1v155.1h163.3h163.3v40.8v40.8h-163.3H924.3v130.6v130.6
		h171.5h171.5v49v49h-228.6H810V805.9z"/>
	<path class="st0" d="M1472.9,1210.8c-3.3-11.4-14.7-150.2-24.5-307s-22.9-339.6-29.4-403.3l-9.8-119.2h49
		c47.4,0,50.6,3.3,58.8,86.5c6.5,45.7,16.3,213.9,21.2,370.7c6.5,156.8,18,269.4,24.5,253.1c6.5-18,60.4-186.2,122.5-372.3
		c106.1-326.6,112.7-339.6,150.2-334.7c44.1,4.9,62.1,45.7,223.7,517.6l70.2,202.5l9.8-88.2c4.9-49,14.7-209,21.2-357.6l13.1-269.4
		l55.5-4.9l53.9-4.9l-8.2,86.5c-6.5,47.4-19.6,238.4-29.4,426.2l-19.6,338h-68.6h-68.6l-62.1-166.6
		c-34.3-93.1-89.8-251.5-122.5-352.7l-60.4-182.9l-53.9,166.6c-29.4,93.1-81.6,251.5-117.6,352.7l-65.3,182.9h-63.7
		C1505.6,1230.4,1476.2,1222.2,1472.9,1210.8z"/>
	<path class="st0" d="M2488.6,1219l-45.7-6.5V796.1V381.3h57.2h57.2v171.5v171.5h94.7c109.4,0,210.6,40.8,261.3,104.5
		c73.5,94.7,57.2,262.9-32.7,336.4C2811.9,1220.6,2648.6,1243.5,2488.6,1219z M2761.3,1125.9c65.3-27.8,89.8-68.6,89.8-148.6
		c0-115.9-68.6-171.5-212.3-171.5h-81.6v171.5v171.5h73.5C2671.5,1148.8,2730.3,1139,2761.3,1125.9z"/>
</g>
</svg>
