<svg id="Logos-amqp" xmlns="http://www.w3.org/2000/svg" viewBox="0 0 300 150"><defs><style>.cls-1{fill:#fff;}</style></defs><title>AMQP</title><g id="AMQP"><polygon class="cls-1" points="25.08 84.64 44.89 84.64 44.89 84.63 44.89 64.83 44.89 59.55 44.89 39.74 25.08 39.74 25.08 59.55 25.08 64.83 25.09 64.83 25.08 64.83 19.81 64.83 0 64.83 0 84.64 19.81 84.64 25.08 84.64"/><polygon class="cls-1" points="50.53 59.55 50.53 64.83 50.53 84.64 50.53 90.27 50.53 90.27 50.53 90.27 44.89 90.27 25.08 90.27 19.81 90.27 0 90.27 0 110.08 19.81 110.08 25.08 110.08 44.89 110.08 50.53 110.08 70.34 110.08 70.34 110.08 70.34 90.27 70.34 84.64 70.34 64.83 70.34 59.55 70.34 39.74 50.53 39.74 50.53 59.55"/><polygon class="cls-1" points="19.81 59.55 19.81 39.74 0 39.74 0 39.74 0 59.55 19.81 59.55 19.81 59.55"/><path class="cls-1" d="M84.11,99.05l-3.39,8.71h1.87l.72-2h3.48l.76,2h1.91L86,99.05Zm-.26,5.27L85,101.08l1.2,3.24Z"/><path class="cls-1" d="M94.5,102.19a2.37,2.37,0,0,0-1.83-.88,2.48,2.48,0,0,0-1.91.83,4.31,4.31,0,0,0,0,4.89,2.38,2.38,0,0,0,2.92.61,2.5,2.5,0,0,0,.91-.81v.93h1.56V99.05H94.5Zm-.4,3.9a1.23,1.23,0,0,1-1,.49,1.26,1.26,0,0,1-1.13-.65,2.85,2.85,0,0,1-.28-1.46,2.1,2.1,0,0,1,.4-1.41,1.29,1.29,0,0,1,2,0,2.46,2.46,0,0,1,.39,1.56A2.23,2.23,0,0,1,94.1,106.09Z"/><path class="cls-1" d="M100.64,104.67q-.11.27-.18.54c0,.08-.08.26-.17.54l-.35-1.08-1.19-3.22H97l2.54,6.31h1.51l2.5-6.31h-1.71Z"/><path class="cls-1" d="M109.68,105.69l0-2a3.35,3.35,0,0,0-.23-1.49,1.63,1.63,0,0,0-.77-.68,4.09,4.09,0,0,0-1.66-.26,3.22,3.22,0,0,0-1.85.44,2.32,2.32,0,0,0-.88,1.35l1.51.28a1.24,1.24,0,0,1,.41-.62,1.21,1.21,0,0,1,.69-.17,1.42,1.42,0,0,1,.9.2.87.87,0,0,1,.24.69v.16a8.21,8.21,0,0,1-1.63.41,5.91,5.91,0,0,0-1.32.39,1.73,1.73,0,0,0-.72.64,1.81,1.81,0,0,0-.25,1,1.72,1.72,0,0,0,.56,1.33,2.1,2.1,0,0,0,1.53.53,2.75,2.75,0,0,0,1-.2,3,3,0,0,0,.92-.63l.06.2a4,4,0,0,0,.16.49h1.65a3.22,3.22,0,0,1-.3-.85A6.14,6.14,0,0,1,109.68,105.69Zm-1.62-.63a3.46,3.46,0,0,1-.07.82,1,1,0,0,1-.4.55,1.43,1.43,0,0,1-.86.3.9.9,0,0,1-.66-.26.79.79,0,0,1-.26-.6.68.68,0,0,1,.32-.59A3,3,0,0,1,107,105c.46-.1.8-.19,1-.26Z"/><path class="cls-1" d="M116.66,102a1.69,1.69,0,0,0-.69-.51,2.56,2.56,0,0,0-1-.2,2.53,2.53,0,0,0-2.08,1.07v-.93h-1.55v6.31H113V104.9a5.29,5.29,0,0,1,.13-1.45,1.18,1.18,0,0,1,.47-.63,1.4,1.4,0,0,1,.78-.23,1,1,0,0,1,.58.16.92.92,0,0,1,.34.47,5,5,0,0,1,.11,1.32v3.22h1.67v-3.92a5.27,5.27,0,0,0-.09-1.12A1.74,1.74,0,0,0,116.66,102Z"/><path class="cls-1" d="M122.29,106.27a1.12,1.12,0,0,1-.78.27,1.23,1.23,0,0,1-1-.46,2.57,2.57,0,0,1-.38-1.59,2.2,2.2,0,0,1,.37-1.44,1.28,1.28,0,0,1,1-.43,1.18,1.18,0,0,1,.76.25,1.23,1.23,0,0,1,.38.74l1.64-.29a2.71,2.71,0,0,0-1-1.51,3,3,0,0,0-1.83-.5,2.92,2.92,0,0,0-2.23.87,4,4,0,0,0,0,4.85,2.87,2.87,0,0,0,2.2.87,3,3,0,0,0,1.94-.57,3,3,0,0,0,1-1.71l-1.64-.28A1.68,1.68,0,0,1,122.29,106.27Z"/><path class="cls-1" d="M130.16,102.24a2.79,2.79,0,0,0-2.22-.93,2.72,2.72,0,0,0-2.07.89,3.46,3.46,0,0,0-.82,2.45,3.67,3.67,0,0,0,.62,2.18,2.85,2.85,0,0,0,2.44,1.07,3,3,0,0,0,1.73-.48,2.67,2.67,0,0,0,1-1.39l-1.66-.28a1.34,1.34,0,0,1-.4.69,1,1,0,0,1-.66.22,1.26,1.26,0,0,1-1-.42,1.7,1.7,0,0,1-.4-1.15h4.18A4,4,0,0,0,130.16,102.24Zm-3.37,1.83a1.53,1.53,0,0,1,.35-1.08,1.21,1.21,0,0,1,1.77,0,1.61,1.61,0,0,1,.37,1.11Z"/><path class="cls-1" d="M136.42,102.19a2.37,2.37,0,0,0-1.83-.88,2.48,2.48,0,0,0-1.91.83,3.55,3.55,0,0,0-.75,2.44,3.61,3.61,0,0,0,.77,2.45,2.42,2.42,0,0,0,1.86.87,2.48,2.48,0,0,0,1.07-.26,2.58,2.58,0,0,0,.91-.81v.93h1.55V99.05h-1.67Zm-.4,3.9a1.23,1.23,0,0,1-1,.49,1.26,1.26,0,0,1-1.13-.65,3,3,0,0,1-.28-1.46,2.16,2.16,0,0,1,.4-1.41,1.24,1.24,0,0,1,1-.47,1.23,1.23,0,0,1,1,.48,2.46,2.46,0,0,1,.39,1.56A2.23,2.23,0,0,1,136,106.09Z"/><polygon class="cls-1" points="147.31 104.99 145.73 99.05 143.1 99.05 143.1 107.76 144.73 107.76 144.73 100.91 146.46 107.76 148.15 107.76 149.88 100.91 149.88 107.76 151.51 107.76 151.51 99.05 148.87 99.05 147.31 104.99"/><path class="cls-1" d="M157.87,102.24a2.79,2.79,0,0,0-2.22-.93,2.7,2.7,0,0,0-2.07.89,3.46,3.46,0,0,0-.82,2.45,3.67,3.67,0,0,0,.62,2.18,2.85,2.85,0,0,0,2.44,1.07,3,3,0,0,0,1.73-.48,2.67,2.67,0,0,0,1-1.39l-1.66-.28a1.29,1.29,0,0,1-.41.69,1,1,0,0,1-.65.22,1.26,1.26,0,0,1-1-.42,1.7,1.7,0,0,1-.4-1.15h4.18A4.1,4.1,0,0,0,157.87,102.24Zm-3.37,1.83a1.48,1.48,0,0,1,.35-1.08,1.21,1.21,0,0,1,1.77,0,1.61,1.61,0,0,1,.37,1.11Z"/><path class="cls-1" d="M162.93,103.8a6.38,6.38,0,0,1-1.56-.46.4.4,0,0,1-.17-.31.42.42,0,0,1,.19-.34,1.9,1.9,0,0,1,1-.18,1.3,1.3,0,0,1,.8.2,1,1,0,0,1,.39.56l1.57-.29a2.17,2.17,0,0,0-.87-1.25,3.5,3.5,0,0,0-1.92-.42,3,3,0,0,0-2,.56,1.75,1.75,0,0,0-.65,1.38,1.63,1.63,0,0,0,.75,1.42,9.42,9.42,0,0,0,2.56.81,1.34,1.34,0,0,1,.56.22.43.43,0,0,1,.12.31.52.52,0,0,1-.22.45,1.63,1.63,0,0,1-1,.24,1.53,1.53,0,0,1-.92-.25,1.23,1.23,0,0,1-.43-.74l-1.68.25a2.4,2.4,0,0,0,1,1.42,3.5,3.5,0,0,0,2,.52,3.18,3.18,0,0,0,2.14-.62,1.91,1.91,0,0,0,.72-1.49,1.53,1.53,0,0,0-.52-1.24A4.61,4.61,0,0,0,162.93,103.8Z"/><path class="cls-1" d="M169.7,103.8a6.38,6.38,0,0,1-1.56-.46.38.38,0,0,1,0-.65,1.85,1.85,0,0,1,.94-.18,1.35,1.35,0,0,1,.81.2,1,1,0,0,1,.38.56l1.58-.29a2.17,2.17,0,0,0-.87-1.25,3.52,3.52,0,0,0-1.93-.42,3,3,0,0,0-2,.56,1.75,1.75,0,0,0-.65,1.38,1.63,1.63,0,0,0,.75,1.42,9.29,9.29,0,0,0,2.56.81,1.41,1.41,0,0,1,.56.22.42.42,0,0,1,.11.31.54.54,0,0,1-.21.45,1.67,1.67,0,0,1-1,.24,1.49,1.49,0,0,1-.91-.25,1.24,1.24,0,0,1-.44-.74l-1.67.25a2.39,2.39,0,0,0,1,1.42,3.5,3.5,0,0,0,2,.52,3.21,3.21,0,0,0,2.15-.62,1.91,1.91,0,0,0,.72-1.49,1.53,1.53,0,0,0-.52-1.24A4.74,4.74,0,0,0,169.7,103.8Z"/><path class="cls-1" d="M178.64,105.69l0-2a3.39,3.39,0,0,0-.22-1.49,1.68,1.68,0,0,0-.77-.68,4.13,4.13,0,0,0-1.66-.26,3.27,3.27,0,0,0-1.86.44,2.37,2.37,0,0,0-.88,1.35l1.52.28a1.24,1.24,0,0,1,.4-.62,1.27,1.27,0,0,1,.7-.17,1.37,1.37,0,0,1,.89.2.87.87,0,0,1,.24.69v.16a8.26,8.26,0,0,1-1.62.41,6,6,0,0,0-1.33.39,1.76,1.76,0,0,0-.71.64,1.82,1.82,0,0,0-.26,1,1.75,1.75,0,0,0,.56,1.33,2.14,2.14,0,0,0,1.54.53,2.79,2.79,0,0,0,1-.2,3,3,0,0,0,.91-.63l.06.2c.07.21.12.38.16.49H179a4.14,4.14,0,0,1-.3-.85A7,7,0,0,1,178.64,105.69Zm-1.62-.63a3.63,3.63,0,0,1-.06.82,1.08,1.08,0,0,1-.4.55,1.43,1.43,0,0,1-.86.3.94.94,0,0,1-.67-.26.83.83,0,0,1-.26-.6.69.69,0,0,1,.33-.59A2.87,2.87,0,0,1,176,105c.46-.1.8-.19,1-.26Z"/><path class="cls-1" d="M184.52,102.34a2.29,2.29,0,0,0-1.93-1,2.44,2.44,0,0,0-1.89.84,3.46,3.46,0,0,0-.77,2.42,3.75,3.75,0,0,0,.58,2.12,2.35,2.35,0,0,0,2,1.07,2.26,2.26,0,0,0,1.89-1v.92a2.61,2.61,0,0,1-.08.77.89.89,0,0,1-.33.42,2,2,0,0,1-1,.19,1.26,1.26,0,0,1-.75-.18.61.61,0,0,1-.22-.45l-1.91-.23v.2a1.7,1.7,0,0,0,.67,1.39,3.58,3.58,0,0,0,2.27.55,4.65,4.65,0,0,0,1.41-.18,2.37,2.37,0,0,0,.89-.49,2.05,2.05,0,0,0,.51-.87,5.68,5.68,0,0,0,.19-1.67v-5.66h-1.57Zm-.5,3.59a1.31,1.31,0,0,1-1,.48,1.2,1.2,0,0,1-1-.46,2.29,2.29,0,0,1-.39-1.47,2.2,2.2,0,0,1,.39-1.43,1.23,1.23,0,0,1,1-.46,1.3,1.3,0,0,1,1,.47,2.21,2.21,0,0,1,.41,1.46A2,2,0,0,1,184,105.93Z"/><path class="cls-1" d="M192.36,102.24a2.79,2.79,0,0,0-2.22-.93,2.72,2.72,0,0,0-2.07.89,3.46,3.46,0,0,0-.82,2.45,3.67,3.67,0,0,0,.62,2.18,2.85,2.85,0,0,0,2.44,1.07,3,3,0,0,0,1.73-.48,2.67,2.67,0,0,0,1-1.39l-1.66-.28a1.34,1.34,0,0,1-.4.69,1,1,0,0,1-.66.22,1.26,1.26,0,0,1-1-.42,1.7,1.7,0,0,1-.4-1.15h4.18A4,4,0,0,0,192.36,102.24ZM189,104.07a1.53,1.53,0,0,1,.35-1.08,1.21,1.21,0,0,1,1.77,0,1.66,1.66,0,0,1,.38,1.11Z"/><path class="cls-1" d="M205.66,105.39a5.71,5.71,0,0,0,.32-2,4.58,4.58,0,0,0-1.14-3.32,4,4,0,0,0-3.07-1.19,4.09,4.09,0,0,0-3.09,1.19,4.58,4.58,0,0,0-1.14,3.32,4.64,4.64,0,0,0,1.13,3.32,4.2,4.2,0,0,0,3.15,1.18,4.66,4.66,0,0,0,1.89-.38l1.17.78a5.13,5.13,0,0,0,.78.32l.65-1.24a5.89,5.89,0,0,1-1.41-.73A4.12,4.12,0,0,0,205.66,105.39ZM204,104.7a2.75,2.75,0,0,1-.51,1,6.22,6.22,0,0,0-1.66-.89l-.49,1a5.26,5.26,0,0,1,1.09.54,2,2,0,0,1-.72.13,2.14,2.14,0,0,1-1.69-.76,3.34,3.34,0,0,1-.67-2.28,3.24,3.24,0,0,1,.67-2.25,2.21,2.21,0,0,1,1.74-.75,2.23,2.23,0,0,1,1.74.74,3.33,3.33,0,0,1,.67,2.26A4.58,4.58,0,0,1,204,104.7Z"/><path class="cls-1" d="M211.38,104.11a6.42,6.42,0,0,1-.13,1.71,1.22,1.22,0,0,1-.46.58,1.37,1.37,0,0,1-.77.23,1.1,1.1,0,0,1-.62-.17.91.91,0,0,1-.33-.48,8.19,8.19,0,0,1-.09-1.63v-2.9h-1.67v4a3.53,3.53,0,0,0,.22,1.4,1.63,1.63,0,0,0,.73.78,2.29,2.29,0,0,0,1.14.28,2.58,2.58,0,0,0,2.1-1.08v.94h1.55v-6.31h-1.67Z"/><path class="cls-1" d="M219.4,102.24a2.79,2.79,0,0,0-2.22-.93,2.69,2.69,0,0,0-2.07.89,3.46,3.46,0,0,0-.82,2.45,3.67,3.67,0,0,0,.62,2.18,2.85,2.85,0,0,0,2.44,1.07,3,3,0,0,0,1.73-.48,2.67,2.67,0,0,0,1-1.39l-1.66-.28a1.29,1.29,0,0,1-.41.69,1,1,0,0,1-.66.22,1.26,1.26,0,0,1-1-.42,1.65,1.65,0,0,1-.4-1.15h4.18A4.15,4.15,0,0,0,219.4,102.24ZM216,104.07a1.48,1.48,0,0,1,.35-1.08,1.21,1.21,0,0,1,1.77,0,1.61,1.61,0,0,1,.37,1.11Z"/><path class="cls-1" d="M225.57,104.11a7.11,7.11,0,0,1-.12,1.71,1.22,1.22,0,0,1-.46.58,1.39,1.39,0,0,1-.77.23,1.08,1.08,0,0,1-.62-.17.91.91,0,0,1-.33-.48,7.17,7.17,0,0,1-.1-1.63v-2.9H221.5v4a3.51,3.51,0,0,0,.23,1.4,1.58,1.58,0,0,0,.73.78,2.29,2.29,0,0,0,1.14.28,2.49,2.49,0,0,0,1.19-.29,2.46,2.46,0,0,0,.9-.79v.94h1.55v-6.31h-1.67Z"/><rect class="cls-1" x="228.97" y="101.45" width="1.67" height="6.31"/><rect class="cls-1" x="228.97" y="99.05" width="1.67" height="1.54"/><path class="cls-1" d="M237.67,102a1.69,1.69,0,0,0-.69-.51,2.56,2.56,0,0,0-1-.2,2.53,2.53,0,0,0-2.08,1.07v-.93h-1.55v6.31H234V104.9a5.29,5.29,0,0,1,.13-1.45,1.18,1.18,0,0,1,.47-.63,1.4,1.4,0,0,1,.78-.23,1,1,0,0,1,.57.16.88.88,0,0,1,.35.47,5,5,0,0,1,.11,1.32v3.22h1.67v-3.92a5.27,5.27,0,0,0-.09-1.12A1.89,1.89,0,0,0,237.67,102Z"/><path class="cls-1" d="M244,102.34a2.3,2.3,0,0,0-1.93-1,2.46,2.46,0,0,0-1.9.84,3.46,3.46,0,0,0-.76,2.42,3.67,3.67,0,0,0,.58,2.12,2.32,2.32,0,0,0,2,1.07,2.26,2.26,0,0,0,1.89-1v.92a2.3,2.3,0,0,1-.08.77.78.78,0,0,1-.33.42,2,2,0,0,1-1,.19,1.26,1.26,0,0,1-.75-.18.64.64,0,0,1-.22-.45l-1.9-.23a1.48,1.48,0,0,0,0,.2,1.7,1.7,0,0,0,.67,1.39,3.63,3.63,0,0,0,2.28.55,4.62,4.62,0,0,0,1.4-.18,2.29,2.29,0,0,0,.89-.49,2.17,2.17,0,0,0,.52-.87,5.75,5.75,0,0,0,.18-1.67v-5.66H244Zm-.5,3.59a1.33,1.33,0,0,1-1,.48,1.17,1.17,0,0,1-1-.46,2.29,2.29,0,0,1-.39-1.47,2.2,2.2,0,0,1,.39-1.43,1.21,1.21,0,0,1,1-.46,1.31,1.31,0,0,1,1,.47,2.21,2.21,0,0,1,.4,1.46A2.08,2.08,0,0,1,243.5,105.93Z"/><path class="cls-1" d="M255.51,99.18a10.77,10.77,0,0,0-2.09-.13H250.6v8.71h1.76v-3.28h1.15a10.24,10.24,0,0,0,1.82-.13,2.54,2.54,0,0,0,.91-.41,2.4,2.4,0,0,0,.74-.86,2.75,2.75,0,0,0,.29-1.35,2.72,2.72,0,0,0-.5-1.69A2.3,2.3,0,0,0,255.51,99.18Zm-.25,3.25a1.08,1.08,0,0,1-.55.43,4.5,4.5,0,0,1-1.39.14h-1v-2.47h.85a10.88,10.88,0,0,1,1.27,0,1.28,1.28,0,0,1,.7.39,1.12,1.12,0,0,1,.28.79A1.11,1.11,0,0,1,255.26,102.43Z"/><path class="cls-1" d="M260.9,101.51a2.93,2.93,0,0,0-.72.84v-.9h-1.55v6.31h1.67v-2a10,10,0,0,1,.14-2.11,1.38,1.38,0,0,1,.38-.7,1,1,0,0,1,.6-.19,1.47,1.47,0,0,1,.78.27l.52-1.46a2.21,2.21,0,0,0-1.1-.31A1.34,1.34,0,0,0,260.9,101.51Z"/><path class="cls-1" d="M266.3,101.31a3.48,3.48,0,0,0-1.68.41,2.83,2.83,0,0,0-1.16,1.19,3.44,3.44,0,0,0-.41,1.61,3.85,3.85,0,0,0,.41,1.84,2.67,2.67,0,0,0,1.2,1.15,3.64,3.64,0,0,0,1.65.39,3.12,3.12,0,0,0,2.33-.94,3.27,3.27,0,0,0,.92-2.37,3.2,3.2,0,0,0-.91-2.35A3.15,3.15,0,0,0,266.3,101.31Zm1.1,4.73a1.37,1.37,0,0,1-1.09.5,1.39,1.39,0,0,1-1.1-.5,2.51,2.51,0,0,1,0-2.87,1.43,1.43,0,0,1,1.1-.5,1.4,1.4,0,0,1,1.09.5,2.05,2.05,0,0,1,.45,1.42A2.08,2.08,0,0,1,267.4,106Z"/><path class="cls-1" d="M273.08,106.52a.51.51,0,0,1-.28-.08.37.37,0,0,1-.15-.22,6.77,6.77,0,0,1,0-.9v-2.54h1.14v-1.33h-1.14V99.23l-1.67,1v1.25h-.77v1.33H271v2.75a7.66,7.66,0,0,0,.05,1.18,1.55,1.55,0,0,0,.23.65,1.2,1.2,0,0,0,.54.39,2.09,2.09,0,0,0,.81.15,3.27,3.27,0,0,0,1.32-.25l-.15-1.29A2,2,0,0,1,273.08,106.52Z"/><path class="cls-1" d="M277.78,101.31a3.48,3.48,0,0,0-1.68.41,2.83,2.83,0,0,0-1.16,1.19,3.44,3.44,0,0,0-.41,1.61,3.85,3.85,0,0,0,.41,1.84,2.72,2.72,0,0,0,1.2,1.15,3.67,3.67,0,0,0,1.65.39,3.12,3.12,0,0,0,2.33-.94,3.5,3.5,0,0,0,0-4.72A3.15,3.15,0,0,0,277.78,101.31Zm1.1,4.73a1.37,1.37,0,0,1-1.09.5,1.39,1.39,0,0,1-1.1-.5,2.51,2.51,0,0,1,0-2.87,1.43,1.43,0,0,1,1.1-.5,1.4,1.4,0,0,1,1.09.5,2.05,2.05,0,0,1,.45,1.42A2.08,2.08,0,0,1,278.88,106Z"/><path class="cls-1" d="M285.87,106.27a1.16,1.16,0,0,1-.78.27,1.22,1.22,0,0,1-1-.46,2.51,2.51,0,0,1-.38-1.59,2.2,2.2,0,0,1,.37-1.44,1.27,1.27,0,0,1,1-.43,1.19,1.19,0,0,1,.77.25,1.22,1.22,0,0,1,.37.74l1.65-.29a2.71,2.71,0,0,0-1-1.51,3,3,0,0,0-1.83-.5,2.92,2.92,0,0,0-2.23.87,4,4,0,0,0,0,4.85,2.91,2.91,0,0,0,2.21.87,3,3,0,0,0,1.94-.57,2.91,2.91,0,0,0,1-1.71l-1.64-.28A1.62,1.62,0,0,1,285.87,106.27Z"/><path class="cls-1" d="M292,101.31a3.48,3.48,0,0,0-1.68.41,2.78,2.78,0,0,0-1.16,1.19,3.44,3.44,0,0,0-.41,1.61,3.85,3.85,0,0,0,.41,1.84,2.62,2.62,0,0,0,1.2,1.15,3.64,3.64,0,0,0,1.65.39,3.12,3.12,0,0,0,2.33-.94,3.27,3.27,0,0,0,.92-2.37,3.21,3.21,0,0,0-.92-2.35A3.14,3.14,0,0,0,292,101.31Zm1.1,4.73a1.39,1.39,0,0,1-1.1.5,1.37,1.37,0,0,1-1.09-.5,2.51,2.51,0,0,1,0-2.87,1.4,1.4,0,0,1,1.09-.5,1.43,1.43,0,0,1,1.1.5,2,2,0,0,1,.44,1.42A2.08,2.08,0,0,1,293.08,106Z"/><rect class="cls-1" x="296.55" y="99.05" width="1.67" height="8.71"/><path class="cls-1" d="M115.59,40.51H99.25L81,89h15.3l2.36-8h17l2.43,8h15.69Zm-13.65,30,5.29-17.43,5.35,17.43Z"/><polygon class="cls-1" points="150.68 52.02 160.11 88.99 171.22 88.99 180.67 52.02 180.67 88.99 192.94 88.99 192.94 40.51 173.25 40.51 165.71 70.01 158.11 40.51 138.41 40.51 138.41 88.99 150.68 88.99 150.68 52.02"/><path class="cls-1" d="M249.23,84.36c-.57-.33-1.79-1.14-3.67-2.45q5.3-6.45,5.29-17.19,0-12.07-6.56-18.56t-18.64-6.48q-11.84,0-18.44,6.63t-6.59,18.6q0,12.35,7.54,19.15,6.38,5.76,17.43,5.76A31.42,31.42,0,0,0,238,87.67c.82.7,2.25,1.76,4.3,3.16a48.88,48.88,0,0,0,6.22,3.62l4.17-8.4C251.25,85.41,250.09,84.85,249.23,84.36ZM234.08,74.24c-.59-.37-1.14-.74-1.65-1.09a40.39,40.39,0,0,0-4.31-2.78,12.76,12.76,0,0,0-3.1-.89l-2.35,5.39a18.58,18.58,0,0,1,6,3.44,13.39,13.39,0,0,1-2.88.3,9.23,9.23,0,0,1-7.44-3.21q-2.72-3.21-2.71-11.15,0-6.81,2.78-10A9.11,9.11,0,0,1,225.62,51a9.42,9.42,0,0,1,7.52,3.15q2.73,3.13,2.73,10.48C235.87,68.91,235.28,72.1,234.08,74.24Z"/><path class="cls-1" d="M296,44.38q-4.05-3.87-12.19-3.87h-24.9V89h15.05V71h8.2q9.06,0,13.47-4.13T300,55.39Q300,48.25,296,44.38ZM283.66,59.67q-1.76,1.52-6.08,1.51h-3.67V50.36h4.26q4.2,0,5.72,1.59a5.37,5.37,0,0,1,1.52,3.87A4.83,4.83,0,0,1,283.66,59.67Z"/></g></svg>