<?xml version="1.0" encoding="utf-8"?>
<!-- Generator: Adobe Illustrator 25.1.0, SVG Export Plug-In . SVG Version: 6.00 Build 0)  -->
<svg version="1.1" id="Layer_1" xmlns="http://www.w3.org/2000/svg" xmlns:xlink="http://www.w3.org/1999/xlink" x="0px" y="0px"
	 viewBox="0 0 452 452" style="enable-background:new 0 0 452 452;" xml:space="preserve">
<style type="text/css">
	.st0{fill:#FFFFFF;stroke:#000000;stroke-miterlimit:10;}
</style>
<g transform="translate(0.000000,452.000000) scale(0.100000,-0.100000)">
	<path class="st0" d="M2155,4323c-58-18-1600-880-1661-929c-55-44-99-115-119-189c-23-89-23-1801,0-1890c20-74,64-145,119-189
		c65-53,1604-912,1665-930c71-21,136-20,208,2c66,21,1594,875,1659,928c55,44,99,115,119,189c23,89,23,1801,0,1890
		c-20,74-64,145-119,189c-65,53-1594,907-1659,928C2297,4344,2223,4344,2155,4323z M2338,4140c118-54,1551-868,1583-900
		c21-19,42-53,48-75c15-55,15-1754,0-1808c-6-22-25-54-42-73c-21-22-289-178-772-450c-407-229-760-426-786-439c-60-31-107-39-155-26
		c-63,17-1584,876-1621,915c-17,19-36,51-42,73c-15,53-15,1753,0,1806c6,22,25,54,42,73c21,22,296,182,782,455
		c413,232,773,432,800,445C2236,4165,2281,4166,2338,4140z"/>
	<path class="st0" d="M2158,3428c-343-25-677-223-874-519c-149-224-213-472-192-750c26-346,222-677,519-875
		c328-219,744-257,1114-103c103,43,266,153,353,238c66,66,172,195,172,210c0,7-523,311-535,311c-4,0-37-28-74-62
		c-113-107-237-158-385-158c-142,0-271,55-376,160c-215,214-215,546,0,760c105,105,234,160,376,160c148,0,272-51,386-159
		c40-37,74-61,82-58c13,5,517,296,525,303c13,12-140,193-224,264C2779,3359,2490,3452,2158,3428z M2494,3226c103-29,206-75,290-130
		c82-53,186-141,186-156c0-9-223-140-237-140c-5,0-33,18-62,40c-123,92-264,140-417,140c-330,0-613-224-696-552
		c-29-117-22-279,17-397c71-210,246-385,456-456c109-36,268-45,374-21c85,20,194,72,266,126c29,22,57,40,62,40c14,0,237-131,237-140
		c0-12-97-97-160-140c-82-56-189-107-287-137c-81-25-102-27-263-27c-205-1-269,13-435,93c-261,128-443,347-527,636
		c-20,71-23,101-22,260c0,166,2,187,27,268c112,362,388,619,758,702C2147,3255,2411,3249,2494,3226z"/>
	<path class="st0" d="M3160,2620v-90h-90h-90v-90v-90h90h90v-90v-90h-90h-90v-90v-90h90h90v-90v-90h90h89l3,88l3,87h90h90l3-87l3-88
		h89h90v90v90h90h90v90v90h-90h-90v90v90h90h90v90v90h-90h-90v90v90h-90h-89l-3-87l-3-88h-90h-90l-3,88l-3,87h-89h-90V2620z
		 M3530,2260v-90h-95h-95v90v90h95h95V2260z"/>
</g>
</svg>
