<?xml version="1.0" encoding="utf-8"?>
<!-- Generator: Adobe Illustrator 25.1.0, SVG Export Plug-In . SVG Version: 6.00 Build 0)  -->
<svg version="1.1" id="Layer_1" xmlns="http://www.w3.org/2000/svg" xmlns:xlink="http://www.w3.org/1999/xlink" x="0px" y="0px"
	 viewBox="0 0 512 512" style="enable-background:new 0 0 512 512;" xml:space="preserve">
<style type="text/css">
	.st0{fill:#FFFFFF;stroke:#000000;stroke-miterlimit:10;}
</style>
<g id="Layer_2">
	<rect x="71" y="169" class="st0" width="374" height="186"/>
</g>
<g>
	<g>
		<polygon class="st0" points="311.2,254 308.5,265.6 315.7,265.6 318.4,254 		"/>
	</g>
</g>
<g>
	<g>
		<path class="st0" d="M256,0C114.8,0,0,114.8,0,256s114.8,256,256,256s256-114.8,256-256S397.2,0,256,0z M248.1,291.9
			c-1.8,4.4-4.5,8.3-8.2,11.8c-3.6,3.4-7.7,6.3-12.3,8.7c-4.6,2.3-9.5,4.1-14.7,5.3c-5.2,1.2-10.4,1.8-15.3,1.8
			c-8.7,0-16.8-1.8-24-5.2c-7.2-3.5-13.5-8.1-18.7-13.8c-5.2-5.7-9.3-12.3-12.2-19.5c-2.9-7.2-4.3-14.7-4.3-22.2
			c0-7.2,1.4-14.3,4.1-21.2c2.7-6.9,6.7-13.2,11.9-18.7c5.2-5.5,11.5-10,18.9-13.4c7.4-3.4,15.9-5.1,25.4-5.1
			c11.3,0,21.3,2.4,29.6,7.1c8.3,4.7,14.7,11,18.8,18.8l0.5,1L221,245.6l-0.6-1.5c-1-2.6-2.4-4.8-4-6.6c-1.7-1.7-3.6-3.1-5.6-4.1
			c-2.1-1-4.2-1.8-6.4-2.2c-7-1.3-13.1-0.6-17.7,1.9c-3.1,1.7-5.7,3.9-7.7,6.6c-2,2.7-3.5,5.9-4.5,9.3c-1,3.5-1.5,7-1.5,10.5
			c0,3.9,0.6,7.6,1.7,11.1c1.1,3.5,2.8,6.7,5,9.3c2.1,2.7,4.8,4.8,8,6.4c4.8,2.4,10.7,3,16.9,1.7c2.1-0.5,4.2-1.2,6.2-2.3
			c2-1.1,3.8-2.5,5.4-4.1c1.6-1.7,2.8-3.7,3.7-6.2l0.5-1.4l28,16.7L248.1,291.9z M371.4,254L371.4,254h-26.1l-2.7,11.6h20.5v25.2
			h-26.6l-6.7,27.6h-27.1l6.8-27.6h-7.2l-6.7,27.6h-27.1l6.8-27.6h-17.8v-25.2h24l2.7-11.6H266v-23.6h24.1l7.3-29.7h27.1l-7.5,29.7
			h7.2l7.3-29.7h27.1l-7.5,29.7h20.3V254z"/>
	</g>
</g>
</svg>
