<?xml version="1.0" encoding="utf-8"?>
<!-- Generator: Adobe Illustrator 25.0.1, SVG Export Plug-In . SVG Version: 6.00 Build 0)  -->
<svg version="1.1" id="Capa_1" xmlns="http://www.w3.org/2000/svg" xmlns:xlink="http://www.w3.org/1999/xlink" x="0px" y="0px"
	 viewBox="0 0 512 512" style="enable-background:new 0 0 512 512;" xml:space="preserve">
<style type="text/css">
	.st0{fill:#FFFFFF;}
	.st1{fill:#20262A;}
</style>
<path class="st0" d="M446.1,175.6v167.4c0,1.2,0,2.5-0.2,3.7c-8.2,14.5-17.9,28.1-29,40.3l-116.5,67.2h0c-15,3.2-30.4,4.9-46.4,4.9
	s-31.4-1.7-46.4-4.9h0l-95.3-55l-21.2-12.2c-11.1-12.3-20.9-25.8-29-40.3c-0.1-1.2-0.2-2.5-0.2-3.7V175.6c0-16.8,9-32.3,23.5-40.7
	l145-83.7c14.6-8.4,32.5-8.4,47,0l116,67l29,16.7C437.1,143.3,446.1,158.8,446.1,175.6z"/>
<path class="st1" d="M357,225.2c0-49-42.2-85.4-97.9-85.4s-108,36.5-108,113.3S202,364.4,256.7,364.4s100.3-25,100.3-82.1h-59
	c0,0-1.9,30.2-36,30.2s-45.6-32.2-45.6-58.6s10.1-61,43.7-61s37,32.2,37,32.2L357,225.2L357,225.2z"/>
</svg>
