<?xml version="1.0" encoding="utf-8"?>
<!-- Generator: Adobe Illustrator 25.1.0, SVG Export Plug-In . SVG Version: 6.00 Build 0)  -->
<svg version="1.1" id="Capa_1" xmlns="http://www.w3.org/2000/svg" xmlns:xlink="http://www.w3.org/1999/xlink" x="0px" y="0px"
	 viewBox="0 0 291 315" style="enable-background:new 0 0 291 315;" xml:space="preserve">
<style type="text/css">
	.st0{fill:#FFFFFF;}
</style>
<g>
	<path class="st0" d="M163.3,83.4c-14.8,0-26.4,5.2-34.8,15.7c-8.5,10.5-12.7,24.9-12.7,43.3c0,19.3,4.1,33.8,12.2,43.7
		c8.1,9.9,19.9,14.8,35.3,14.8c6.7,0,13.1-0.7,19.3-2c6.2-1.3,12.7-3,19.4-5.1v22c-12.3,4.7-26.3,7-41.9,7c-23,0-40.6-7-53-20.9
		c-12.3-13.9-18.5-33.9-18.5-59.8c0-16.3,3-30.6,9-42.9c6-12.2,14.6-21.6,25.9-28.1c11.3-6.5,24.6-9.8,39.9-9.8
		c16,0,30.9,3.4,44.5,10.1l-9.2,21.4c-5.3-2.5-10.9-4.7-16.8-6.6C176.1,84.4,169.8,83.4,163.3,83.4z"/>
</g>
</svg>
