<?xml version="1.0" encoding="utf-8"?>
<!-- Generator: Adobe Illustrator 25.0.1, SVG Export Plug-In . SVG Version: 6.00 Build 0)  -->
<svg version="1.1" id="Layer_1" xmlns="http://www.w3.org/2000/svg" xmlns:xlink="http://www.w3.org/1999/xlink" x="0px" y="0px"
	 viewBox="0 0 100 100" style="enable-background:new 0 0 100 100;" xml:space="preserve">
<style type="text/css">
	.st0{display:none;}
	.st1{display:inline;}
	.st2{opacity:0.6414;fill:none;stroke:#FFFFFF;stroke-width:6;stroke-linecap:square;enable-background:new    ;}
	.st3{fill-rule:evenodd;clip-rule:evenodd;fill:#9FB0BF;}
	.st4{fill:none;stroke:#FFFFFF;stroke-width:2;}
	.st5{fill-rule:evenodd;clip-rule:evenodd;fill:#FFFFFF;fill-opacity:0.4;}
	.st6{fill-rule:evenodd;clip-rule:evenodd;fill:#FFFFFF;}
	.st7{fill:none;stroke:#DCE3EE;stroke-width:2;}
	.st8{fill:#FFFFFF;}
</style>
<desc>Created with Sketch.</desc>
<g id="Dev_Portal" class="st0">
	<g id="Desktop-HD-Copy-2" transform="translate(-329.000000, -1323.000000)" class="st1">
		<g id="Group-11" transform="translate(329.000000, 1323.000000)">
			<g id="Group-2-Copy-3" transform="translate(16.000000, 29.000000)">
				<path id="Line" class="st2" d="M22,12.5h18.3"/>
				<polygon id="Fill-2" class="st3" points="33.1,6 31.7,7.4 37.3,13.1 31.7,18.7 33.1,20.1 40.1,13.1 				"/>
				<polygon id="Fill-2_1_" class="st3" points="28.9,20.1 30.3,18.7 24.7,13.1 30.3,7.4 28.9,6 21.8,13.1 				"/>
				<path id="Line-Copy" class="st2" d="M49,20v11"/>
				<path id="Rectangle-33-Copy-7" class="st4" d="M48.6,8L48.6,8c2.6,0,4.6,2.1,4.6,4.6l0,0c0,2.6-2.1,4.6-4.6,4.6l0,0
					c-2.6,0-4.6-2.1-4.6-4.6l0,0C44,10.1,46.1,8,48.6,8z"/>
				<g id="Group-4-Copy-3">
					<path id="Rectangle-33-Copy" class="st4" d="M5,1h8.8c2.2,0,4,1.8,4,4v16.2c0,2.2-1.8,4-4,4H5c-2.2,0-4-1.8-4-4V5
						C1,2.8,2.8,1,5,1z"/>
					<path id="Rectangle-33-Copy-2" class="st5" d="M4.8,3.8H14c0.6,0,1,0.4,1,1V8c0,0.6-0.4,1-1,1H4.8c-0.6,0-1-0.4-1-1V4.8
						C3.8,4.2,4.2,3.8,4.8,3.8z"/>
					<path id="Rectangle-33-Copy-4" class="st5" d="M4.8,10.5H14c0.6,0,1,0.4,1,1v3.2c0,0.6-0.4,1-1,1H4.8c-0.6,0-1-0.4-1-1v-3.2
						C3.8,10.9,4.2,10.5,4.8,10.5z"/>
					<path id="Rectangle-33-Copy-6" class="st5" d="M4.8,17.2H14c0.6,0,1,0.4,1,1v3.2c0,0.6-0.4,1-1,1H4.8c-0.6,0-1-0.4-1-1v-3.2
						C3.8,17.7,4.2,17.2,4.8,17.2z"/>
				</g>
				<polygon id="Fill-2_2_" class="st3" points="56.3,22.2 54.9,20.8 49.2,26.5 43.6,20.8 42.2,22.2 49.2,29.3 				"/>
			</g>
			<g id="Rectangle-33-Copy_1_">
				<g>
					<path id="path-1" class="st6" d="M64,63h2c4.4,0,8,3.6,8,8v7c0,4.4-3.6,8-8,8h-2c-4.4,0-8-3.6-8-8v-7C56,66.6,59.6,63,64,63z"
						/>
				</g>
				<path class="st7" d="M65,64L65,64c4.4,0,8,3.6,8,8v5c0,4.4-3.6,8-8,8l0,0c-4.4,0-8-3.6-8-8v-5C57,67.6,60.6,64,65,64z"/>
			</g>
			<g id="Rectangle-33-Copy_2_">
				<g>
					<path id="path-2" class="st6" d="M61.5,63h7l0,0c3,0,5.5,2.5,5.5,5.5l0,0l0,0c0,3-2.5,5.5-5.5,5.5h-7l0,0c-3,0-5.5-2.5-5.5-5.5
						l0,0l0,0C56,65.5,58.5,63,61.5,63z"/>
				</g>
				<path class="st7" d="M61.5,64C59,64,57,66,57,68.5s2,4.5,4.5,4.5h7c2.5,0,4.5-2,4.5-4.5S71,64,68.5,64H61.5z"/>
			</g>
		</g>
	</g>
</g>
<g id="Page-1">
	<g id="icons8-Java">
		<path id="Shape" class="st8" d="M55.9,18.8c3.4,6.8-12.2,11.1-13.6,16.8c-1.3,5.2,9.2,11.3,9.2,11.3c-1.6-2.2-2.8-3.9-4.4-7.3
			C44.5,33.9,63.3,28,55.9,18.8z M67.1,28.2c0,0-11.9,0.8-12.5,8c-0.3,3.2,3.1,5,3.2,7.3c0.1,1.9-2,3.4-2,3.4s3.5-0.5,4.7-3.4
			c1.3-3.2-2.3-5.6-1.8-8.2C59,32.8,67.1,28.2,67.1,28.2z M45,46.9c0,0-12.2-0.1-12.2,3.3c0,3.5,15.9,3.7,27.3,1.6
			c0,0,2.6-1.4,3.4-2.1c-7.5,1.5-23.9,1-23.9-0.3C39.6,48.2,45,46.9,45,46.9z M69.3,47c-1.3-0.1-2.8,0.4-4.1,1.3
			c2.6-0.6,4.9,1,4.9,2.9c0,4.2-6,8.2-6,8.2s9.3-1.1,9.3-8C73.4,48.6,71.5,47.1,69.3,47z M40.8,53.2c-1.9,0-4.8,1.6-4.8,3
			c0,2.9,14.3,5.1,24.9,0.9l-3.7-2.3C50,57.1,36.8,56.4,40.8,53.2z M43.4,59.4c-2.6,0-4.3,1.8-4.3,3.1c0,4,15.6,4.1,21.8,0L57,60.1
			C52.4,62.2,40.7,62.5,43.4,59.4z M32.1,65.6c-3.7-0.1-5.5,1.8-5.5,3.3c0,8.3,40.5,8,40.5-0.5c0-1.4-1.6-2.1-2.1-2.4
			c3.3,8.1-33.5,7.5-33.5,2.7c0-1.1,1.9-2.2,4.4-1.7c0,0-0.8-1.1-2-1.3C33.2,65.7,32.6,65.6,32.1,65.6z M73.4,71.8
			c-6.4,6.3-24.1,10.1-40.5,6.2C49.3,84.8,73.3,79.6,73.4,71.8z"/>
	</g>
</g>
</svg>
