<svg id="Logos-java" xmlns="http://www.w3.org/2000/svg" viewBox="0 0 300 150"><defs><style>.cls-1{fill:#fff;}</style></defs><title>Java</title><g id="Java"><path class="cls-1" d="M271.39,92.38V106.2a.35.35,0,0,1-.37.4,2.3,2.3,0,0,1-.37,0h-4.57a.54.54,0,0,1-.58-.52c-.16-.89-.33-1.76-.5-2.64,0-.13,0-.25-.06-.37s-.19-.23-.33-.11l-.77.65a16,16,0,0,1-11.61,3.88,13.79,13.79,0,0,1-5.77-1.71,6.65,6.65,0,0,1-2.74-2.84,12.68,12.68,0,0,1-1.07-9.22,9.82,9.82,0,0,1,4.09-5.65,18.37,18.37,0,0,1,8.83-3.21c2.44-.26,4.89-.45,7.35-.53,1,0,1,0,1-1a15.44,15.44,0,0,0-.55-5,5.14,5.14,0,0,0-4.54-3.81,21.75,21.75,0,0,0-7.46.3,46.05,46.05,0,0,0-5.29,1.47l-.48.16c-.2.09-.31,0-.37-.17-.34-1.29-.68-2.58-1-3.87-.09-.37.15-.51.42-.66a19.49,19.49,0,0,1,3.21-1.23,36,36,0,0,1,7.76-1.59,21.46,21.46,0,0,1,7.94.47,10.14,10.14,0,0,1,6.28,4.53,10.8,10.8,0,0,1,1.55,5.59c0,4.3,0,8.59,0,12.89Zm-7.48,1.18h0V92.12c0-.81,0-1.63,0-2.44,0-.45-.06-.5-.5-.52h-.31c-2.09,0-4.17.12-6.24.35A11.46,11.46,0,0,0,253,90.59a5.11,5.11,0,0,0-2.47,2.47,7.28,7.28,0,0,0-.6,3.35,5.36,5.36,0,0,0,4.1,5.2,7.73,7.73,0,0,0,4.36-.31,16.83,16.83,0,0,0,5-2.84,1.36,1.36,0,0,0,.6-1.21C263.9,96,263.91,94.79,263.91,93.56Z"/><path class="cls-1" d="M202,92.36v13.89a.33.33,0,0,1-.35.36H197c-.81,0-.88-.07-1-.85s-.3-1.6-.46-2.39c-.11-.56-.18-.59-.6-.23a19.86,19.86,0,0,1-2.55,1.9,18,18,0,0,1-6.71,2.43,11.85,11.85,0,0,1-3.31-.08,15.46,15.46,0,0,1-4.34-1.09,7.84,7.84,0,0,1-4.25-4.36,13.07,13.07,0,0,1-.75-7.54,10,10,0,0,1,4.2-6.29A17.73,17.73,0,0,1,185.34,85a79,79,0,0,1,8-.64c1.48,0,1.21-.14,1.23-1.26a15.37,15.37,0,0,0-.49-4.58,5.25,5.25,0,0,0-4.71-4,22.25,22.25,0,0,0-7.28.32A36.13,36.13,0,0,0,177,76.2l-.59.2c-.35.09-.44,0-.56-.3-.05-.14-.07-.28-.11-.42-.25-1-.51-1.89-.76-2.84s-.19-.9.62-1.28a23,23,0,0,1,3.52-1.26,35.66,35.66,0,0,1,10.41-1.54,15.57,15.57,0,0,1,6.68,1.37,9.77,9.77,0,0,1,5.64,7.6,12.61,12.61,0,0,1,.16,2.12V92.36Zm-7.42,1.21h0V89.63c0-.31-.14-.47-.45-.47h-.38c-2.14.06-4.29.12-6.42.37a11.09,11.09,0,0,0-3.93,1.17,5,5,0,0,0-2.54,3,7.27,7.27,0,0,0-.28,3.34,5.18,5.18,0,0,0,3.46,4.36,6.71,6.71,0,0,0,4,.17,15.38,15.38,0,0,0,6-3.2,1.38,1.38,0,0,0,.54-1.19C194.52,96,194.53,94.78,194.53,93.57Z"/><path class="cls-1" d="M223.65,98.76c.35-1,.67-1.89,1-2.79,1.78-5.27,3.37-10.6,4.64-16a70.74,70.74,0,0,0,1.52-8.42c.06-.49.12-1,.15-1.49s.2-.46.53-.45h1.81c1.67,0,3.33,0,5,0a1.2,1.2,0,0,1,.66.08c-.32,1.54-.62,3.09-1,4.63-1.13,5.1-2.38,10.18-3.88,15.19a110,110,0,0,1-5.24,14.43l-.91,1.92a1.32,1.32,0,0,1-1.33.84c-2.67,0-5.34,0-8,0-.49,0-.5,0-.68-.6q-2.11-6.74-4.22-13.48l-7-22.36c0-.1-.06-.19-.09-.3s0-.31.25-.33h7.07c.78,0,.88.08,1.12.82,2.68,8.39,5.39,16.77,7.68,25.28.22.8.4,1.61.6,2.42A1.19,1.19,0,0,0,223.65,98.76Z"/><path class="cls-1" d="M151.35,115.74a.83.83,0,0,1,.43-.26,11.07,11.07,0,0,0,5.85-5.88,17.79,17.79,0,0,0,1.61-7.46c0-7.84,0-15.68,0-23.51V57.3c0-1.08,0-1,1-1h6.63c.24,0,.39.14.39.39v44.23a24.29,24.29,0,0,1-1.25,8.11,17.21,17.21,0,0,1-5.36,8.07,16.23,16.23,0,0,1-5,2.73.77.77,0,0,1-1-.18C153.59,118.36,152.47,117.06,151.35,115.74Z"/><path class="cls-1" d="M81.67,80.62a30.42,30.42,0,0,1-2.24-2.16c-3.16-3.33-6.28-6.69-9.12-10.3a51.57,51.57,0,0,1-5.6-8.27,13.58,13.58,0,0,1-1.3-3.3,8.91,8.91,0,0,1,.4-5A19.2,19.2,0,0,1,67,46.24a59.79,59.79,0,0,1,7.37-7.47c4.06-3.6,8.28-7,12.48-10.43A34.22,34.22,0,0,0,93.05,22,25.39,25.39,0,0,0,98,9a24,24,0,0,0-.33-6.16,1.13,1.13,0,0,1,0-.18c0-.17-.14-.4.11-.49s.28.13.37.26a7.34,7.34,0,0,1,1.25,2.44,28,28,0,0,1,1,10.7,23.4,23.4,0,0,1-4.51,11.37A30.28,30.28,0,0,1,92.18,31C88.52,34.5,84.84,38,81.26,41.51a73.3,73.3,0,0,0-6.37,7A29.58,29.58,0,0,0,72,53.14a10.61,10.61,0,0,0-.76,8,39.72,39.72,0,0,0,3.21,7.85A89.39,89.39,0,0,0,81.1,79.58c.23.32.59.58.57,1Z"/><path class="cls-1" d="M128,126.92c.11-.08.2,0,.28,0a3.84,3.84,0,0,1,1.37,1.43,1.51,1.51,0,0,1-.1,1.71,7,7,0,0,1-1.54,1.53,23.67,23.67,0,0,1-5.51,2.92,59.51,59.51,0,0,1-9.55,2.73,109.08,109.08,0,0,1-12.73,1.87c-3.32.3-6.65.52-10,.68q-9,.45-18.07.48-7.06,0-14.13-.29c-3.63-.15-7.25-.4-10.86-.73a86.9,86.9,0,0,1-12.22-1.87,19.08,19.08,0,0,1-4.41-1.54,5.52,5.52,0,0,1-1.28-.89,1.93,1.93,0,0,1-.52-2.07,4.71,4.71,0,0,1,1.66-2.29,14.75,14.75,0,0,1,4.16-2.26,46.33,46.33,0,0,1,9-2.33,47.57,47.57,0,0,1,4.78-.56,11.38,11.38,0,0,1,2.91.15c-1.19.22-2.38.43-3.56.66a34.16,34.16,0,0,0-6.37,1.76,13.5,13.5,0,0,0-2,1A3.66,3.66,0,0,0,38,130.35a1.12,1.12,0,0,0,.24,1.57,5,5,0,0,0,1.5.89,24.93,24.93,0,0,0,4.57,1.25c2.87.57,5.76.93,8.66,1.26,3.77.44,7.55.7,11.34,1,3.16.21,6.33.16,9.5.13q7.32-.07,14.64-.38c3.79-.16,7.58-.34,11.36-.63s7.56-.61,11.33-1.07a86.3,86.3,0,0,0,10.82-1.92,17.75,17.75,0,0,0,4.72-1.79,5.59,5.59,0,0,0,1.14-.86,1.84,1.84,0,0,0,.49-1.9,4.36,4.36,0,0,1-.29-1Z"/><path class="cls-1" d="M88,86.37a3.61,3.61,0,0,1,.51-.81,33.88,33.88,0,0,0,2.7-4.28,7.06,7.06,0,0,0,0-7,24.93,24.93,0,0,0-1.78-2.87c-1.1-1.56-2.22-3.12-3.3-4.71A18.2,18.2,0,0,1,83,58.31a14.07,14.07,0,0,1,1.37-7.65,22,22,0,0,1,5.73-7.18,48.48,48.48,0,0,1,10.39-6.66,83.65,83.65,0,0,1,13.16-5.09c.21-.07.44-.12.66-.17a.63.63,0,0,1,.2,0c-.11.25-.34.32-.52.44-3,1.87-6,3.75-8.83,5.8a65.12,65.12,0,0,0-9.32,7.74,22.79,22.79,0,0,0-3.58,4.71,7.88,7.88,0,0,0,0,8.05c.81,1.51,1.75,2.93,2.69,4.36a42.49,42.49,0,0,1,2.64,4.46A18.26,18.26,0,0,1,98.92,71a8.66,8.66,0,0,1-1.12,6.43,19.4,19.4,0,0,1-3.58,4.39,37.79,37.79,0,0,1-5.7,4.37A.6.6,0,0,1,88,86.37Z"/><path class="cls-1" d="M62.34,114.77a1.3,1.3,0,0,1-.3.71,1.58,1.58,0,0,0,.45,2.26,7,7,0,0,0,2.72,1,15.74,15.74,0,0,0,3,.35c4.5.22,9,.3,13.51.13,3.18-.12,6.37-.33,9.53-.74a32.68,32.68,0,0,0,5.1-.93,2.28,2.28,0,0,1,2,.29,40.57,40.57,0,0,0,6.92,3.6c-.07.26-.3.24-.45.3-1.72.66-3.49,1.12-5.25,1.62a78.08,78.08,0,0,1-11.31,2.36,60.08,60.08,0,0,1-10.3.44,77.76,77.76,0,0,1-12.17-1.27,26.28,26.28,0,0,1-6.36-2,7.56,7.56,0,0,1-2.11-1.43,2.73,2.73,0,0,1,0-4.28A10.07,10.07,0,0,1,62.34,114.77Z"/><path class="cls-1" d="M107.54,105.79a27.12,27.12,0,0,1-3.82,1.22,87,87,0,0,1-12.59,2.58,76.36,76.36,0,0,1-13.35.59c-1.62-.07-3.25-.09-4.88-.16a85,85,0,0,1-14.39-1.62A19.25,19.25,0,0,1,54,106.91a5.07,5.07,0,0,1-1.16-.74,2.4,2.4,0,0,1-.74-2.71A4.86,4.86,0,0,1,53.94,101a11.75,11.75,0,0,1,5-2.08s.08,0,.14,0a2.35,2.35,0,0,1-.53.68,3.89,3.89,0,0,0-.72,1.16,1.62,1.62,0,0,0,.37,1.79,4.42,4.42,0,0,0,1.53,1,14.85,14.85,0,0,0,3.89.89,83.24,83.24,0,0,0,11.92.4c3.57-.07,7.12-.27,10.68-.55,3.78-.31,7.55-.71,11.29-1.31l3.15-.52a2.1,2.1,0,0,1,1.91.49,14.71,14.71,0,0,0,2.74,2A16.39,16.39,0,0,0,107.54,105.79Z"/><path class="cls-1" d="M64.32,82.06c-1.53.45-3,.86-4.53,1.32a38.44,38.44,0,0,0-6.4,2.46,7.15,7.15,0,0,0-1.9,1.31c-.89.91-.77,1.59.38,2.11a12.55,12.55,0,0,0,3.51.87,107.44,107.44,0,0,0,11.47.79q4.38.12,8.76.06c2.81,0,5.62-.21,8.43-.43,2.31-.18,4.61-.33,6.92-.54s4.77-.47,7.15-.72,4.8-.55,7.2-.89l7.23-1.08a1.15,1.15,0,0,1,.49,0c.09.17-.06.22-.15.28l-5.28,3.24a2.37,2.37,0,0,1-.94.31c-4.2.65-8.41,1.24-12.63,1.73-3.48.4-7,.78-10.45,1.06a148.81,148.81,0,0,1-15.8.58c-4.05-.12-8.09-.3-12.12-.64a96.2,96.2,0,0,1-9.86-1.23,24.06,24.06,0,0,1-3.61-1,4.34,4.34,0,0,1-1.48-.8,1,1,0,0,1-.14-1.58,5.15,5.15,0,0,1,1.33-1.13,30.22,30.22,0,0,1,5.37-2.52,63.74,63.74,0,0,1,14.6-3.52q.81-.1,1.62-.15A1.44,1.44,0,0,1,64.32,82.06Z"/><path class="cls-1" d="M136.37,134.16a4.83,4.83,0,0,1-1.08,2.14,15.87,15.87,0,0,1-4.57,3.74,40.8,40.8,0,0,1-11.24,4.26c-3.33.77-6.7,1.31-10.09,1.78-5.43.75-10.89,1.2-16.36,1.51-5.11.29-10.21.32-15.32.18q-4.93-.14-9.86-.61a96,96,0,0,1-18-3.36,1.44,1.44,0,0,1-.75-.36,5,5,0,0,1,.57,0l6.11.53c2.32.2,4.65.41,7,.56q7,.45,14.06.61c4,.08,8.08.09,12.13,0,2.33-.07,4.66-.15,7-.29,2.93-.16,5.86-.41,8.78-.72s5.63-.68,8.42-1.17a77.89,77.89,0,0,0,12.93-3.32,37.13,37.13,0,0,0,9.65-5.08c.15-.11.3-.22.46-.32S136.23,134.19,136.37,134.16Z"/><path class="cls-1" d="M114,109c.43-.27.79-.52,1.16-.74a59.68,59.68,0,0,0,6.76-4.72A33.21,33.21,0,0,0,128.16,97a13.08,13.08,0,0,0,2.25-5,8.44,8.44,0,0,0-1.19-6.29,7.18,7.18,0,0,0-4.44-3,15.6,15.6,0,0,0-6.38-.31l-.8.12-.09,0a1.08,1.08,0,0,1,.49-.46,8.14,8.14,0,0,1,3.11-1.26,13.65,13.65,0,0,1,8.51.68,12.26,12.26,0,0,1,4.53,3.26,9.1,9.1,0,0,1,1.47,9.94,16.28,16.28,0,0,1-4.14,5.59,31.58,31.58,0,0,1-7.48,5.06,51.64,51.64,0,0,1-9.45,3.59A.84.84,0,0,1,114,109Z"/><path class="cls-1" d="M81.67,80.62s.09,0,.11,0,0,0,0,0-.08,0-.09-.09Z"/><path class="cls-1" d="M128,126.91l-.07-.06h0s0,0,0,.08Z"/></g></svg>