<svg id="Logos-jms" xmlns="http://www.w3.org/2000/svg" viewBox="0 0 300 150"><defs><style>.cls-1{fill:#fff;}</style></defs><title>JMS</title><g id="JMS"><path class="cls-1" d="M138,120.74c-10.26,0-15.69-4.44-16.23-5l5.13-6.32-.06-.07c.13.13,3.28,3.3,11.16,3.3,7.51,0,12.56-3.24,12.56-8.07V55.8h8.14v48.73C158.73,114.08,150.22,120.74,138,120.74Z"/><polygon class="cls-1" points="181.57 118.62 173.44 118.75 177.06 55.57 184.81 55.57 206.29 100 227.9 55.56 235.64 55.52 239.98 118.64 231.85 118.69 228.6 71.7 209.96 111.32 202.59 111.31 184.26 72.13 181.57 118.62"/><path class="cls-1" d="M269.31,120.74c-13.49,0-20.26-4.32-20.85-5l4-6.81-.1-.11s4.21,3.74,16.94,3.74c11.68,0,13.43-5.87,13.43-9.37,0-7.14-4.85-9.22-13.42-12.28-8.19-2.92-18.39-6.56-18.39-19.24,0-7.93,3.38-17.38,19.47-17.38,10.8,0,17.92,3.46,18.21,3.61l-3.6,7.3a36.91,36.91,0,0,0-14.61-2.76c-9.43,0-11.33,3.53-11.33,9.23,0,6.62,4.69,8.62,13,11.57s18.82,6.72,18.82,20C290.88,111.7,285.22,120.74,269.31,120.74Z"/><g id="Java"><path class="cls-1" d="M55.15,80.9a23.29,23.29,0,0,1-2-1.89c-2.75-2.9-5.48-5.82-7.95-9a44.68,44.68,0,0,1-4.89-7.22,11.9,11.9,0,0,1-1.13-2.88,7.74,7.74,0,0,1,.35-4.34,16.47,16.47,0,0,1,2.75-4.68,52,52,0,0,1,6.42-6.52c3.54-3.13,7.22-6.11,10.89-9.09a30.15,30.15,0,0,0,5.44-5.56,22,22,0,0,0,4.3-11.31,22,22,0,0,0-.28-5.38.94.94,0,0,1,0-.16c0-.15-.12-.35.1-.42s.24.11.33.23a6.45,6.45,0,0,1,1.08,2.12,24.32,24.32,0,0,1,.88,9.33,20.39,20.39,0,0,1-3.93,9.92,26.33,26.33,0,0,1-3.2,3.56c-3.19,3-6.4,6-9.52,9.15a64.71,64.71,0,0,0-5.56,6.14,25.25,25.25,0,0,0-2.52,4A9.17,9.17,0,0,0,46,63.87a34.26,34.26,0,0,0,2.8,6.84A78.84,78.84,0,0,0,54.64,80c.2.27.52.5.5.9Z"/><path class="cls-1" d="M95.52,121.28c.09-.07.17,0,.24,0A3.48,3.48,0,0,1,97,122.56a1.31,1.31,0,0,1-.08,1.49,6.35,6.35,0,0,1-1.35,1.34,20.86,20.86,0,0,1-4.8,2.55,52.39,52.39,0,0,1-8.33,2.37,92.22,92.22,0,0,1-11.1,1.63c-2.9.27-5.8.46-8.71.6-5.25.26-10.5.41-15.75.42q-6.16,0-12.33-.26c-3.16-.13-6.32-.35-9.47-.64a76.86,76.86,0,0,1-10.66-1.62,16.62,16.62,0,0,1-3.85-1.35,4.46,4.46,0,0,1-1.11-.78,1.68,1.68,0,0,1-.45-1.8,4,4,0,0,1,1.45-2,12.76,12.76,0,0,1,3.62-2,41.54,41.54,0,0,1,7.85-2c1.38-.22,2.77-.4,4.17-.49a10.32,10.32,0,0,1,2.54.13l-3.1.58a29.77,29.77,0,0,0-5.56,1.54,11,11,0,0,0-1.76.86A3.14,3.14,0,0,0,17,124.27a1,1,0,0,0,.22,1.37,4.21,4.21,0,0,0,1.3.78,22.21,22.21,0,0,0,4,1.08c2.5.5,5,.81,7.55,1.11,3.29.38,6.59.61,9.89.83,2.76.18,5.52.14,8.29.12q6.38-.08,12.76-.34c3.31-.13,6.61-.29,9.91-.54s6.6-.53,9.88-.94a73.73,73.73,0,0,0,9.44-1.67,15.63,15.63,0,0,0,4.11-1.56,5.28,5.28,0,0,0,1-.76,1.61,1.61,0,0,0,.43-1.65,3.48,3.48,0,0,1-.26-.83Z"/><path class="cls-1" d="M60.7,85.91a2.9,2.9,0,0,1,.45-.7,30,30,0,0,0,2.35-3.73,6.17,6.17,0,0,0,0-6.1,22.23,22.23,0,0,0-1.56-2.5C61,71.51,60,70.16,59,68.77a15.86,15.86,0,0,1-2.74-7.32,12.24,12.24,0,0,1,1.19-6.68,19.24,19.24,0,0,1,5-6.26,42.48,42.48,0,0,1,9.06-5.81A73.9,73.9,0,0,1,83,38.26c.19-.06.39-.1.58-.14a.45.45,0,0,1,.18,0c-.1.21-.3.28-.46.38-2.6,1.63-5.2,3.28-7.7,5.06a57.68,57.68,0,0,0-8.13,6.75,20.16,20.16,0,0,0-3.12,4.11,6.87,6.87,0,0,0,0,7c.7,1.32,1.53,2.56,2.34,3.8A37.21,37.21,0,0,1,69,69.16a16.25,16.25,0,0,1,1.22,3.38,7.5,7.5,0,0,1-1,5.6A17.26,17.26,0,0,1,66.09,82a33.48,33.48,0,0,1-5,3.82A.52.52,0,0,1,60.7,85.91Z"/><path class="cls-1" d="M38.29,110.68a1.19,1.19,0,0,1-.27.62,1.38,1.38,0,0,0,.4,2,6.12,6.12,0,0,0,2.37.91,15.23,15.23,0,0,0,2.6.3c3.92.19,7.85.26,11.78.11,2.78-.11,5.55-.29,8.31-.64a29.06,29.06,0,0,0,4.45-.82,2,2,0,0,1,1.75.25,34.28,34.28,0,0,0,6,3.14c-.06.23-.26.22-.4.27-1.49.57-3,1-4.58,1.41a69.07,69.07,0,0,1-9.86,2.06,51.8,51.8,0,0,1-9,.38,66.29,66.29,0,0,1-10.61-1.11,22.52,22.52,0,0,1-5.55-1.74,6.8,6.8,0,0,1-1.84-1.25,2.38,2.38,0,0,1,0-3.73A8.91,8.91,0,0,1,38.29,110.68Z"/><path class="cls-1" d="M77.71,102.85a24.14,24.14,0,0,1-3.33,1.07,77.6,77.6,0,0,1-11,2.25,67.55,67.55,0,0,1-11.64.51c-1.41-.06-2.83-.08-4.25-.14A74.54,74.54,0,0,1,35,105.13a17,17,0,0,1-3.92-1.3,5.07,5.07,0,0,1-1-.64,2.09,2.09,0,0,1-.64-2.37A4.13,4.13,0,0,1,31,98.66a10.25,10.25,0,0,1,4.39-1.82l.12,0a2,2,0,0,1-.46.59,3.28,3.28,0,0,0-.63,1A1.4,1.4,0,0,0,34.7,100a3.81,3.81,0,0,0,1.34.83,12.66,12.66,0,0,0,3.39.78,73.64,73.64,0,0,0,10.4.35c3.1-.06,6.21-.24,9.31-.48,3.29-.27,6.58-.62,9.85-1.15.91-.14,1.83-.29,2.74-.45a1.87,1.87,0,0,1,1.67.43,12.24,12.24,0,0,0,2.39,1.71A12.92,12.92,0,0,0,77.71,102.85Z"/><path class="cls-1" d="M40,82.16c-1.33.39-2.64.75-3.94,1.15a32.6,32.6,0,0,0-5.59,2.15,6.29,6.29,0,0,0-1.66,1.14c-.77.79-.67,1.38.34,1.84a10.72,10.72,0,0,0,3.06.75,93,93,0,0,0,10,.69c2.55.07,5.09.09,7.64.05s4.9-.18,7.35-.37c2-.16,4-.29,6-.47s4.15-.41,6.23-.63,4.19-.47,6.28-.77l6.31-.94a.86.86,0,0,1,.42,0c.08.15,0,.2-.13.25l-4.6,2.83a2.15,2.15,0,0,1-.82.27c-3.66.56-7.33,1.08-11,1.5-3,.36-6.06.69-9.11.93A129.43,129.43,0,0,1,43,93c-3.53-.1-7.05-.25-10.57-.55a85.75,85.75,0,0,1-8.59-1.07,21.34,21.34,0,0,1-3.16-.85,3.72,3.72,0,0,1-1.28-.7.87.87,0,0,1-.13-1.38,4.72,4.72,0,0,1,1.16-1,26.27,26.27,0,0,1,4.68-2.2,55.34,55.34,0,0,1,12.74-3.07c.47-.06.94-.1,1.41-.13A1.23,1.23,0,0,1,40,82.16Z"/><path class="cls-1" d="M102.84,127.59a4.18,4.18,0,0,1-.93,1.87,13.81,13.81,0,0,1-4,3.26,35.45,35.45,0,0,1-9.8,3.71c-2.9.67-5.84,1.15-8.8,1.56-4.74.65-9.5,1-14.27,1.32-4.45.25-8.91.28-13.36.16q-4.3-.12-8.6-.54A83.13,83.13,0,0,1,27.37,136a1.32,1.32,0,0,1-.66-.31h.51l5.32.47c2,.17,4.05.36,6.09.49,4.08.25,8.16.44,12.25.52,3.53.08,7.06.09,10.59,0,2-.06,4.07-.13,6.1-.25,2.56-.14,5.11-.36,7.66-.63s4.91-.59,7.34-1a67.68,67.68,0,0,0,11.28-2.9,32.24,32.24,0,0,0,8.41-4.43l.4-.28A.89.89,0,0,1,102.84,127.59Z"/><path class="cls-1" d="M83.33,105.61l1-.65a51.08,51.08,0,0,0,5.9-4.12,28.45,28.45,0,0,0,5.45-5.62,11.39,11.39,0,0,0,2-4.34,7.3,7.3,0,0,0-1-5.48,6.24,6.24,0,0,0-3.86-2.65,13.6,13.6,0,0,0-5.57-.27l-.7.1s0,0-.08,0c.08-.2.27-.29.43-.4a7.13,7.13,0,0,1,2.71-1.09,11.81,11.81,0,0,1,7.42.59,10.58,10.58,0,0,1,4,2.85,7.92,7.92,0,0,1,1.29,8.66,14.24,14.24,0,0,1-3.62,4.88,27.52,27.52,0,0,1-6.52,4.41,45.08,45.08,0,0,1-8.24,3.13A.76.76,0,0,1,83.33,105.61Z"/><path class="cls-1" d="M55.14,80.9s.09,0,.1,0,0,0,0,0-.08,0-.08-.08Z"/><path class="cls-1" d="M95.53,121.27l-.06,0h0s0,.05,0,.07Z"/></g></g></svg>