<svg id="Logos" xmlns="http://www.w3.org/2000/svg" xmlns:xlink="http://www.w3.org/1999/xlink" viewBox="0 0 300 150"><defs><style>.cls-1,.cls-2,.cls-3{fill:#fff;}.cls-1{clip-rule:evenodd;}.cls-3{fill-rule:evenodd;}.cls-4{clip-path:url(#clip-path);}</style><clipPath id="clip-path"><path class="cls-1" d="M124,40.75a2.39,2.39,0,0,0-2.4,0l-19.8,11.43a2.38,2.38,0,0,0-1.2,2.07V77.12a2.38,2.38,0,0,0,1.2,2.07l19.8,11.44a2.39,2.39,0,0,0,2.4,0l19.79-11.44a2.38,2.38,0,0,0,1.2-2.07V54.25a2.38,2.38,0,0,0-1.2-2.07Z"/></clipPath></defs><title>node js</title><g id="Websocket"><path class="cls-2" d="M148.81,138.67a3.91,3.91,0,0,1-2-.53l-6.27-3.71c-.94-.52-.48-.71-.17-.81a13,13,0,0,0,2.83-1.29.49.49,0,0,1,.47,0l4.82,2.86a.6.6,0,0,0,.58,0l18.77-10.84a.58.58,0,0,0,.29-.5V102.21a.6.6,0,0,0-.29-.52L149.1,90.86a.6.6,0,0,0-.58,0l-18.76,10.83a.62.62,0,0,0-.3.52v21.67a.59.59,0,0,0,.3.5l5.14,3c2.79,1.39,4.5-.25,4.5-1.9V104.06a.54.54,0,0,1,.54-.55h2.39a.55.55,0,0,1,.54.55v21.39c0,3.72-2,5.86-5.56,5.86a8,8,0,0,1-4.32-1.17l-4.93-2.84a4,4,0,0,1-2-3.42V102.21a4,4,0,0,1,2-3.43l18.78-10.85a4.11,4.11,0,0,1,3.94,0l18.78,10.85a4,4,0,0,1,2,3.43v21.67a4,4,0,0,1-2,3.42l-18.78,10.84A3.91,3.91,0,0,1,148.81,138.67Z"/><path class="cls-2" d="M154.61,123.74c-8.22,0-9.94-3.77-9.94-6.94a.54.54,0,0,1,.54-.54h2.43a.55.55,0,0,1,.54.46c.37,2.47,1.46,3.72,6.43,3.72,3.95,0,5.64-.89,5.64-3,0-1.21-.48-2.11-6.63-2.71-5.14-.51-8.31-1.64-8.31-5.75,0-3.79,3.19-6,8.54-6,6,0,9,2.09,9.37,6.56a.53.53,0,0,1-.14.42.55.55,0,0,1-.4.18h-2.44a.53.53,0,0,1-.52-.43c-.59-2.6-2-3.43-5.87-3.43-4.31,0-4.82,1.5-4.82,2.63,0,1.37.6,1.77,6.43,2.54s8.51,1.84,8.51,5.9S160.56,123.74,154.61,123.74Z"/><path class="cls-2" d="M181.68,101a3.62,3.62,0,1,1-3.62-3.61A3.63,3.63,0,0,1,181.68,101ZM175,101a3,3,0,1,0,3-3A3,3,0,0,0,175,101Zm1.67-2h1.4c.48,0,1.42,0,1.42,1.08a.93.93,0,0,1-.77,1c.56,0,.6.41.67.92a4.13,4.13,0,0,0,.21,1.07h-.86c0-.19-.15-1.22-.15-1.28-.06-.23-.14-.34-.42-.34h-.71V103h-.79Zm.77,1.79h.63a.55.55,0,0,0,.61-.58c0-.55-.38-.55-.59-.55h-.65Z"/><path class="cls-3" d="M90.66,53.89a2.4,2.4,0,0,0-1.2-2.09L69.55,40.34A2.33,2.33,0,0,0,68.46,40h-.21a2.4,2.4,0,0,0-1.1.31L47.25,51.8A2.41,2.41,0,0,0,46,53.89l.05,30.85a1.18,1.18,0,0,0,.6,1,1.16,1.16,0,0,0,1.19,0L59.71,79a2.41,2.41,0,0,0,1.2-2.08V62.5a2.41,2.41,0,0,1,1.21-2.08l5-2.9a2.38,2.38,0,0,1,1.21-.32,2.29,2.29,0,0,1,1.19.32l5,2.9a2.4,2.4,0,0,1,1.2,2.08V76.92A2.42,2.42,0,0,0,77,79l11.82,6.78a1.19,1.19,0,0,0,1.21,0,1.21,1.21,0,0,0,.59-1Z"/><path class="cls-3" d="M186.45,11.48a1.22,1.22,0,0,0-1.2,0,1.21,1.21,0,0,0-.59,1V43.08a.84.84,0,0,1-1.26.73l-5-2.87a2.39,2.39,0,0,0-2.4,0L156.09,52.43a2.42,2.42,0,0,0-1.2,2.09v23a2.41,2.41,0,0,0,1.2,2.08L176,91.09a2.39,2.39,0,0,0,2.4,0l19.92-11.5a2.41,2.41,0,0,0,1.2-2.08V20.2a2.4,2.4,0,0,0-1.23-2.1ZM184.6,70a.58.58,0,0,1-.3.52l-6.84,3.94a.59.59,0,0,1-.6,0L170,70.47a.6.6,0,0,1-.3-.52V62.06a.6.6,0,0,1,.3-.52l6.84-3.95a.59.59,0,0,1,.6,0l6.84,3.95a.58.58,0,0,1,.3.52Z"/><path class="cls-3" d="M252.76,61.85a2.41,2.41,0,0,0,1.2-2.08V54.2a2.41,2.41,0,0,0-1.2-2.08L233,40.63a2.41,2.41,0,0,0-2.41,0l-19.9,11.49a2.41,2.41,0,0,0-1.21,2.08v23a2.42,2.42,0,0,0,1.22,2.09l19.78,11.27a2.39,2.39,0,0,0,2.36,0l12-6.65a1.21,1.21,0,0,0,0-2.09l-20-11.5a1.19,1.19,0,0,1-.61-1v-7.2a1.21,1.21,0,0,1,.61-1L231,57.44a1.17,1.17,0,0,1,1.2,0L238.43,61a1.23,1.23,0,0,1,.6,1v5.66a1.21,1.21,0,0,0,1.81,1Z"/><path class="cls-3" d="M231.48,60.77a.47.47,0,0,1,.46,0L235.76,63a.46.46,0,0,1,.23.4v4.41a.46.46,0,0,1-.23.4l-3.82,2.21a.47.47,0,0,1-.46,0l-3.82-2.21a.44.44,0,0,1-.23-.4V63.38a.44.44,0,0,1,.23-.4Z"/><path class="cls-3" d="M124,40.75a2.39,2.39,0,0,0-2.4,0l-19.8,11.43a2.38,2.38,0,0,0-1.2,2.07V77.12a2.38,2.38,0,0,0,1.2,2.07l19.8,11.44a2.39,2.39,0,0,0,2.4,0l19.79-11.44a2.38,2.38,0,0,0,1.2-2.07V54.25a2.38,2.38,0,0,0-1.2-2.07Z"/><g class="cls-4"><path class="cls-2" d="M121.54,40.75,101.7,52.18a2.46,2.46,0,0,0-1.28,2.07V77.12a2.28,2.28,0,0,0,.62,1.52L123.33,40.5A2.44,2.44,0,0,0,121.54,40.75Z"/><path class="cls-2" d="M123.44,90.86a2.28,2.28,0,0,0,.56-.23l19.82-11.44a2.43,2.43,0,0,0,1.25-2.07V54.25a2.37,2.37,0,0,0-.72-1.66Z"/><path class="cls-2" d="M143.81,52.18,124,40.75a2.6,2.6,0,0,0-.62-.25L101,78.64a2.48,2.48,0,0,0,.66.55l19.9,11.44a2.38,2.38,0,0,0,1.84.23l20.91-38.27A2.41,2.41,0,0,0,143.81,52.18Z"/><path class="cls-2" d="M145.07,77.12V54.25a2.44,2.44,0,0,0-1.26-2.07L124,40.75a2.32,2.32,0,0,0-.72-.27L145,77.67A2,2,0,0,0,145.07,77.12Z"/><path class="cls-2" d="M101.7,52.18a2.46,2.46,0,0,0-1.28,2.07V77.12a2.46,2.46,0,0,0,1.28,2.07l19.9,11.44a2.4,2.4,0,0,0,1.53.3L101.82,52.11Z"/><polygon class="cls-2" points="120.92 36.55 120.65 36.7 121.02 36.7 120.92 36.55"/><path class="cls-2" d="M143.82,79.19A2.47,2.47,0,0,0,145,77.67L123.23,40.48a2.43,2.43,0,0,0-1.69.27L101.82,52.11l21.31,38.82a2.31,2.31,0,0,0,.87-.3Z"/><polygon class="cls-2" points="145.67 78.83 145.54 78.6 145.54 78.9 145.67 78.83"/><path class="cls-2" d="M143.82,79.19,124,90.63a2.31,2.31,0,0,1-.87.3l.39.72,22-12.75v-.3l-.55-.93A2.47,2.47,0,0,1,143.82,79.19Z"/><path class="cls-2" d="M143.82,79.19,124,90.63a2.31,2.31,0,0,1-.87.3l.39.72,22-12.75v-.3l-.55-.93A2.47,2.47,0,0,1,143.82,79.19Z"/></g></g></svg>