<?xml version="1.0" encoding="utf-8"?>
<!-- Generator: Adobe Illustrator 25.1.0, SVG Export Plug-In . SVG Version: 6.00 Build 0)  -->
<svg version="1.1" id="Layer_1" xmlns="http://www.w3.org/2000/svg" xmlns:xlink="http://www.w3.org/1999/xlink" x="0px" y="0px"
	 viewBox="0 0 1012 186" style="enable-background:new 0 0 1012 186;" xml:space="preserve">
<style type="text/css">
	.st0{fill:#FFFFFF;}
</style>
<path class="st0" d="M214.9,52.8c1.8-0.7,4.4-1.7,7.7-3.1c3.3-1.4,6.7-2.1,10.1-2.1c12.5,0,22.9,4.1,31.1,12.4
	c8.2,8.4,12.4,19,12.4,31.9c0,6-1,11.5-3.1,16.8c-2.1,5.2-5.1,10-9.1,14.3c-8.1,8.9-18,13.4-29.6,13.4c-4.9,0-9.4-0.5-13.6-1.5
	c-1.1-0.2-2.2-0.5-3.3-0.9c-1-0.3-2-0.7-2.9-1v41.4h-16.8V49.2h17L214.9,52.8L214.9,52.8z M250.9,112.2c5-5.3,7.6-12,7.6-20.1
	c0-7.9-2.6-14.5-7.9-19.8c-5.4-5.4-12-8.1-19.9-8.1c-2.3,0-4.4,0.4-6.2,1.3s-3.4,1.6-4.8,2.2c-1,0.5-2,0.9-2.8,1.2s-1.6,0.6-2.1,0.9
	v45.9c0.8,0.5,1.7,0.9,2.6,1.2s1.9,0.7,3.1,1c3.2,1.3,7,1.9,11.3,1.9C239.9,119.8,246.3,117.3,250.9,112.2L250.9,112.2z M301.6,93.5
	c0.2,7.4,2.8,13.6,7.7,18.4c5.3,5.3,11.8,7.9,19.6,7.9c5.7,0,10.6-1.2,14.8-3.6c1.3-0.7,2.5-1.4,3.6-2.1s2.4-1.5,3.6-2.5
	c1.3-1,2.7-2.2,4.3-3.6c1.6-1.4,3.5-3.2,5.8-5.2v21.1c-5,3.9-10.1,7-15.3,9.2c-5.1,2.2-11,3.4-17.5,3.4c-12.8,0-23.4-4.3-31.6-12.9
	s-12.4-19.5-12.4-32.6c0-5.8,0.9-11.3,2.8-16.5s4.6-9.8,8.4-14.1c7.6-8.5,17.1-12.7,28.7-12.7c11.3,0,20.6,4,27.8,11.8
	c3.7,4,6.4,8.7,8.1,14s2.6,12,2.6,20L301.6,93.5L301.6,93.5z M304.2,80h38.6c-0.6-1.9-1.3-3.9-2.1-6s-1.9-3.7-3-4.8
	c-3.2-3.2-7.7-4.8-13.4-4.8c-6.9,0-12.3,2.5-16.3,7.6c-0.7,0.9-1.4,2.2-2,3.8C305.4,77.3,304.8,78.7,304.2,80L304.2,80z M450.9,84.1
	v50.8h-17V86.7c0-4-0.4-7.4-1.2-10.1c-0.8-2.8-1.8-5-3.1-6.9c-2.6-3.6-6.8-5.3-12.5-5.3c-2.8,0-5.1,0.3-7.1,0.9s-3.8,1.6-5.4,2.8
	c-3.1,2.6-5.9,5.7-8.4,9.3v57.5h-16.8V49.2h16.8v6.4c0.8-0.8,1.6-1.5,2.5-2.2s1.7-1.2,2.7-1.8c4.7-2.6,10-4,16-4
	c10.1,0,18.3,3.3,24.6,10c3.1,3.3,5.4,7.2,6.9,11.7C450.1,73.8,450.9,78.7,450.9,84.1L450.9,84.1z"/>
<path class="st0" d="M587.8,9.2v125.7h-17.7V38.6l-40.2,49.8l-40.4-49.8V135h-17.7V9.2h15.5l42.6,52l42.4-52L587.8,9.2L587.8,9.2z
	 M672,8.3l57.9,126.6h-18.7l-18.5-40.5H641l-18.5,40.5h-18.9l58-126.6C661.6,8.3,672,8.3,672,8.3z M648.2,78.2h36.9l-18.5-40.5
	C666.6,37.7,648.2,78.2,648.2,78.2z M861.4,9.2v125.7h-17.7V38.6l-40.2,49.8l-40.4-49.8V135h-17.7V9.2h15.5l42.6,52l42.4-52
	C846,9.2,861.4,9.2,861.4,9.2z M945.6,8.3l57.9,126.6h-18.7l-18.6-40.5h-51.7L896,134.9h-19L935.1,8.3L945.6,8.3L945.6,8.3z
	 M921.9,78.2h36.9l-18.6-40.5L921.9,78.2L921.9,78.2z"/>
<path class="st0" d="M120.2,153.1c-28,0-51.6-19.1-58.6-44.9c-5.5,9.6-15.8,16.1-27.7,16.1c-8.8,0-16.7-3.6-22.5-9.3
	c9.9,34.9,42,60.5,79.9,60.5c29.7,0,55.8-15.6,70.5-39.1C151,146.8,136.3,153.1,120.2,153.1z M62.7,31.8c28,0,51.6,19.1,58.6,44.9
	c5.5-9.6,15.9-16.1,27.7-16.1c8.8,0,16.7,3.6,22.4,9.3c-9.9-34.8-42-60.5-79.9-60.5C61.8,9.3,35.7,25,21,48.5
	C31.8,38.1,46.5,31.8,62.7,31.8z"/>
<path class="st0" d="M91.4,60.5c7.2,0,13.9,2.4,19.3,6.5c-9.1-17.2-27.2-29-48.1-29c-14.5,0-28.2,5.7-38.4,15.9
	C14,64.3,8.3,77.9,8.3,92.4c0,14.1,11.5,25.6,25.6,25.6s25.6-11.5,25.6-25.6C59.5,74.8,73.8,60.5,91.4,60.5z M91.4,124.3
	c-7.2,0-13.9-2.4-19.3-6.5c9.1,17.2,27.2,29,48.1,29c14.5,0,28.2-5.7,38.4-15.9c10.3-10.3,15.9-23.9,15.9-38.4
	c0-14.1-11.5-25.6-25.6-25.6s-25.6,11.5-25.6,25.6C123.3,110,109,124.3,91.4,124.3L91.4,124.3z"/>
</svg>
