<?xml version="1.0" encoding="utf-8"?>
<!-- Generator: Adobe Illustrator 25.1.0, SVG Export Plug-In . SVG Version: 6.00 Build 0)  -->
<svg version="1.1" id="Layer_1" xmlns="http://www.w3.org/2000/svg" xmlns:xlink="http://www.w3.org/1999/xlink" x="0px" y="0px"
	 viewBox="0 0 107.5 108.7" style="enable-background:new 0 0 107.5 108.7;" xml:space="preserve">
<style type="text/css">
	.st0{fill:#FFFFFF;}
</style>
<g id="Layer_4">
	<path id="path1948" class="st0" d="M53.3,7.2c-2.6,0-5.2,0.2-7.8,0.7c-6.9,1.2-8.2,3.8-8.2,8.5v6.2h16.3v2.1H31.3
		c-4.7,0-8.9,2.8-10.2,8.3c-1.5,6.2-1.6,10.1,0,16.6c1.2,4.8,3.9,8.3,8.7,8.3h5.6v-7.5c0.1-5.6,4.6-10,10.2-10.1h16.3
		c4.5,0,8.2-3.7,8.2-8.2c0,0,0,0,0,0V16.3c0-4.4-3.7-7.7-8.2-8.5C59,7.4,56.2,7.2,53.3,7.2z M44.5,12.2c1.7,0,3.1,1.3,3.2,3.1
		c0,1.7-1.3,3.1-3.1,3.2c-1.7,0-3.1-1.3-3.2-3.1c0,0,0,0,0,0C41.4,13.6,42.8,12.2,44.5,12.2C44.5,12.2,44.5,12.2,44.5,12.2
		L44.5,12.2z"/>
	<path id="path1950" class="st0" d="M72,24.6v7.2c-0.1,5.6-4.6,10.2-10.2,10.3H45.5c-4.5,0.1-8.2,3.8-8.2,8.3V66
		c0,4.4,3.8,7,8.2,8.3c5.3,1.7,11,1.7,16.3,0c4.1-1.2,8.2-3.6,8.2-8.3v-6.2H53.7v-2.1h24.4c4.7,0,6.5-3.3,8.2-8.3
		c1.7-5.1,1.6-10,0-16.6c-1.2-4.7-3.4-8.3-8.2-8.3L72,24.6z M62.9,63.9c1.7,0,3.1,1.4,3.1,3.1c0,1.7-1.4,3.1-3.1,3.1
		c-1.7,0-3.1-1.4-3.1-3.1c0,0,0,0,0-0.1C59.8,65.3,61.1,63.9,62.9,63.9C62.8,63.9,62.8,63.9,62.9,63.9z"/>
</g>
</svg>
