<svg id="Layer_1" data-name="Layer 1" xmlns="http://www.w3.org/2000/svg" viewBox="0 0 107.49 108.68"><defs><style>.cls-1{fill:#fff;}</style></defs><g id="Layer_4" data-name="Layer 4"><path id="path1948" class="cls-1" d="M83.74,29.85a73.84,73.84,0,0,0-12.39,1.06c-11,1.94-13,6-13,13.48v9.88H84.31v3.29H48.65c-7.53,0-14.13,4.53-16.19,13.15-2.38,9.87-2.49,16,0,26.35,1.84,7.68,6.24,13.15,13.78,13.15h8.91V98.36a16.48,16.48,0,0,1,16.2-16.11h25.9a13.05,13.05,0,0,0,13-13.17V44.39c0-7-5.93-12.31-13-13.48A81.18,81.18,0,0,0,83.74,29.85Zm-14,7.95a4.94,4.94,0,1,1-4.87,5A4.91,4.91,0,0,1,69.72,37.8Z" transform="translate(-30.63 -29.85)"/><path id="path1950" class="cls-1" d="M113.44,57.56V69.08A16.62,16.62,0,0,1,97.25,85.51H71.35a13.23,13.23,0,0,0-13,13.18v24.69c0,7,6.1,11.16,13,13.17a43.25,43.25,0,0,0,25.9,0c6.52-1.88,13-5.69,13-13.17V113.5H84.31v-3.29h38.86c7.54,0,10.35-5.26,13-13.15,2.7-8.12,2.59-15.93,0-26.35-1.87-7.5-5.42-13.15-13-13.15ZM98.88,120.09A4.94,4.94,0,1,1,94,125,4.88,4.88,0,0,1,98.88,120.09Z" transform="translate(-30.63 -29.85)"/></g></svg>