<?xml version="1.0" encoding="utf-8"?>
<!-- Generator: Adobe Illustrator 25.1.0, SVG Export Plug-In . SVG Version: 6.00 Build 0)  -->
<svg version="1.1" id="Logos-rest" xmlns="http://www.w3.org/2000/svg" xmlns:xlink="http://www.w3.org/1999/xlink" x="0px" y="0px"
	 viewBox="0 0 206.7 90.5" style="enable-background:new 0 0 206.7 90.5;" xml:space="preserve">
<style type="text/css">
	.st0{fill:#FFFFFF;}
</style>
<g id="RESTful">
	<path class="st0" d="M13,14.9c5.1-0.9,10.3-1.3,15.5-1.3c8.6,0,14.2,1.6,18.1,5.1c3.3,3.1,5.1,7.4,4.9,11.9c0,8.3-5.2,13.8-11.8,16
		v0.3c4.8,1.7,7.7,6.1,9.2,12.6c2,8.7,3.5,14.8,4.8,17.2h-8.4c-1-1.8-2.4-7.2-4.2-15c-1.9-8.6-5.2-11.9-12.5-12.2h-7.6v27.2H13V14.9
		z M21.1,43.4h8.3c8.6,0,14.1-4.7,14.1-11.9c0-8.1-5.8-11.6-14.4-11.7c-2.7-0.1-5.4,0.2-8,0.8L21.1,43.4z"/>
	<path class="st0" d="M95.4,47.3H71.1v22.6h27.1v6.8H63V14.1h33.8v6.8H71.1v19.8h24.4V47.3z"/>
	<path class="st0" d="M107.6,66.8c4.4,2.6,9.4,4,14.5,4.1c8.3,0,13.1-4.4,13.1-10.7c0-5.8-3.4-9.2-11.8-12.4
		c-10.2-3.6-16.6-8.9-16.6-17.8c0-9.8,8.1-17,20.3-17c6.4,0,11.1,1.5,13.8,3.1l-2.2,6.6c-3.7-2-7.7-3-11.9-3
		c-8.6,0-11.8,5.1-11.8,9.4c0,5.9,3.8,8.7,12.5,12.1c10.6,4.1,16,9.2,16,18.4c0,9.7-7.1,18-21.9,18c-6,0-12.6-1.8-16-4L107.6,66.8z"
		/>
	<path class="st0" d="M166.4,20.9h-19v-6.9h46.4v6.9h-19.2v55.8h-8.2L166.4,20.9z"/>
</g>
</svg>
