<svg id="Logos-rest" xmlns="http://www.w3.org/2000/svg" viewBox="0 0 300 150"><defs><style>.cls-1{fill:#fff;}</style></defs><title>RESTful</title><g id="RESTful"><path class="cls-1" d="M13,46.19a83.89,83.89,0,0,1,15.52-1.3c8.64,0,14.22,1.58,18.12,5.11a15.6,15.6,0,0,1,4.93,11.89c0,8.28-5.21,13.76-11.81,16v.28C44.6,79.83,47.48,84.29,49,90.8c2,8.74,3.53,14.78,4.83,17.2H45.43c-1-1.77-2.41-7.16-4.18-15-1.86-8.64-5.2-11.9-12.55-12.17H21.08V108H13Zm8.08,28.53h8.27c8.65,0,14.13-4.74,14.13-11.9,0-8.08-5.85-11.61-14.41-11.71a32.71,32.71,0,0,0-8,.75Z"/><path class="cls-1" d="M95.44,78.62H71.09v22.59H98.23V108H63V45.35H96.83v6.79H71.09V71.93H95.44Z"/><path class="cls-1" d="M107.62,98.14a28.64,28.64,0,0,0,14.5,4.09c8.27,0,13.1-4.37,13.1-10.69,0-5.85-3.35-9.2-11.8-12.45-10.23-3.63-16.55-8.92-16.55-17.75,0-9.76,8.09-17,20.26-17,6.42,0,11.07,1.48,13.85,3.06L138.75,54a25,25,0,0,0-11.89-3c-8.56,0-11.81,5.11-11.81,9.39,0,5.85,3.81,8.73,12.46,12.08,10.59,4.09,16,9.2,16,18.4,0,9.67-7.15,18-21.93,18-6,0-12.64-1.77-16-4Z"/><path class="cls-1" d="M166.45,52.23h-19V45.35h46.38v6.88H174.63V108h-8.18Z"/><path class="cls-1" d="M201.31,108V69.24H195V63h6.32V60.87c0-6.32,1.39-12.08,5.2-15.71a15.68,15.68,0,0,1,11-4.18,19,19,0,0,1,7,1.3l-1.11,6.32a12.38,12.38,0,0,0-5.21-1c-7,0-8.74,6.14-8.74,13V63h10.88v6.23H209.39V108Z"/><path class="cls-1" d="M265.25,95.73c0,4.64.1,8.73.38,12.27h-7.25l-.47-7.35h-.18A16.93,16.93,0,0,1,242.85,109c-7.06,0-15.52-3.91-15.52-19.71V63h8.18V87.92c0,8.55,2.6,14.31,10,14.31a11.52,11.52,0,0,0,11.53-11.62V63h8.17Z"/><path class="cls-1" d="M278.83,42H287v66h-8.17Z"/></g></svg>