<svg id="Capa_1" enable-background="new 0 0 512 512" height="512" viewBox="0 0 512 512" width="512" xmlns="http://www.w3.org/2000/svg"><path d="m484.333 256c0-19.73-2.515-39.248-7.484-58.162l28.9-21.261-56.093-97.155-32.913 14.42c-28.138-27.938-62.594-47.847-100.689-58.18l-3.961-35.662h-112.186l-3.962 35.662c-38.096 10.333-72.551 30.242-100.689 58.18l-32.912-14.42-56.093 97.155 28.9 21.261c-4.97 18.914-7.484 38.432-7.484 58.162s2.515 39.248 7.484 58.162l-28.9 21.26 56.093 97.155 32.912-14.42c28.139 27.939 62.594 47.848 100.689 58.18l3.962 35.663h112.186l3.962-35.663c38.096-10.332 72.551-30.242 100.689-58.18l32.912 14.42 56.093-97.155-28.9-21.26c4.969-18.914 7.484-38.432 7.484-58.162zm-185.272 193.633-10.481 2.32-3.339 30.047h-58.482l-3.339-30.047-10.481-2.32c-39.739-8.795-75.382-29.389-103.074-59.555l-7.25-7.898-27.716 12.143-29.241-50.647 24.325-17.894-3.216-10.228c-6.038-19.207-9.1-39.244-9.1-59.554 0-20.311 3.062-40.348 9.1-59.554l3.216-10.228-24.325-17.894 29.241-50.647 27.716 12.143 7.25-7.898c27.692-30.166 63.335-50.76 103.074-59.555l10.481-2.32 3.339-30.047h58.482l3.339 30.047 10.481 2.32c39.739 8.796 75.382 29.39 103.074 59.555l7.25 7.898 27.716-12.143 29.241 50.647-24.325 17.894 3.216 10.228c6.038 19.207 9.1 39.244 9.1 59.554s-3.061 40.347-9.1 59.554l-3.216 10.228 24.325 17.894-29.241 50.647-27.716-12.143-7.25 7.898c-27.692 30.166-63.334 50.76-103.074 59.555z"/><path d="m196.448 221.66-21.433-20.99-54.863 56.019 56.02 54.863 20.99-21.434-34.586-33.872z"/><path d="m315.552 221.66 33.872 34.586-34.586 33.872 20.99 21.434 56.02-54.863-54.863-56.019z"/><path d="m152.445 240.999h207.109v30.001h-207.109z" transform="matrix(.206 -.979 .979 .206 -47.245 453.774)"/></svg>