<?xml version="1.0" encoding="utf-8"?>
<!-- Generator: Adobe Illustrator 25.1.0, SVG Export Plug-In . SVG Version: 6.00 Build 0)  -->
<svg version="1.1" id="Layer_1" xmlns="http://www.w3.org/2000/svg" xmlns:xlink="http://www.w3.org/1999/xlink" x="0px" y="0px"
	 viewBox="0 0 100 100" style="enable-background:new 0 0 100 100;" xml:space="preserve">
<style type="text/css">
	.st0{display:none;}
	.st1{display:inline;}
	.st2{opacity:0.6414;fill:none;stroke:#FFFFFF;stroke-width:6;stroke-linecap:square;enable-background:new    ;}
	.st3{fill-rule:evenodd;clip-rule:evenodd;fill:#9FB0BF;}
	.st4{fill:none;stroke:#FFFFFF;stroke-width:2;}
	.st5{fill-rule:evenodd;clip-rule:evenodd;fill:#FFFFFF;fill-opacity:0.4;}
	.st6{fill-rule:evenodd;clip-rule:evenodd;fill:#FFFFFF;}
	.st7{fill:none;stroke:#DCE3EE;stroke-width:2;}
	.st8{fill:#FFFFFF;}
	.st9{display:inline;fill:#FFFFFF;}
</style>
<desc>Created with Sketch.</desc>
<g id="Dev_Portal" class="st0">
	<g id="Desktop-HD-Copy-2" transform="translate(-329.000000, -1323.000000)" class="st1">
		<g id="Group-11" transform="translate(329.000000, 1323.000000)">
			<g id="Group-2-Copy-3" transform="translate(16.000000, 29.000000)">
				<path id="Line" class="st2" d="M28.5,8.8H42"/>
				<polygon id="Fill-2" class="st3" points="36.7,4.1 35.6,5.1 39.7,9.3 35.6,13.4 36.7,14.4 41.8,9.3 				"/>
				<polygon id="Fill-2_1_" class="st3" points="33.6,14.4 34.6,13.4 30.5,9.3 34.6,5.1 33.6,4.1 28.3,9.3 				"/>
				<path id="Line-Copy" class="st2" d="M48.4,14.4v8.1"/>
				<path id="Rectangle-33-Copy-7" class="st4" d="M48.1,5.5L48.1,5.5c1.9,0,3.4,1.5,3.4,3.4l0,0c0,1.9-1.5,3.4-3.4,3.4l0,0
					c-1.9,0-3.4-1.5-3.4-3.4l0,0C44.7,7.1,46.2,5.5,48.1,5.5z"/>
				<g id="Group-4-Copy-3">
					<path id="Rectangle-33-Copy" class="st4" d="M16,0.4h6.5c1.6,0,2.9,1.3,2.9,2.9v11.9c0,1.6-1.3,2.9-2.9,2.9H16
						c-1.6,0-2.9-1.3-2.9-2.9V3.3C13,1.7,14.3,0.4,16,0.4z"/>
					<path id="Rectangle-33-Copy-2" class="st5" d="M15.8,2.4h6.8c0.4,0,0.7,0.3,0.7,0.7v2.4c0,0.4-0.3,0.7-0.7,0.7h-6.8
						c-0.4,0-0.7-0.3-0.7-0.7V3.2C15.1,2.7,15.4,2.4,15.8,2.4z"/>
					<path id="Rectangle-33-Copy-4" class="st5" d="M15.8,7.4h6.8c0.4,0,0.7,0.3,0.7,0.7v2.4c0,0.4-0.3,0.7-0.7,0.7h-6.8
						c-0.4,0-0.7-0.3-0.7-0.7V8.1C15.1,7.7,15.4,7.4,15.8,7.4z"/>
					<path id="Rectangle-33-Copy-6" class="st5" d="M15.8,12.3h6.8c0.4,0,0.7,0.3,0.7,0.7v2.4c0,0.4-0.3,0.7-0.7,0.7h-6.8
						c-0.4,0-0.7-0.3-0.7-0.7V13C15.1,12.7,15.4,12.3,15.8,12.3z"/>
				</g>
				<polygon id="Fill-2_2_" class="st3" points="53.7,16 52.7,15 48.5,19.2 44.4,15 43.4,16 48.5,21.2 				"/>
			</g>
			<g id="Rectangle-33-Copy_1_">
				<g>
					<path id="path-1" class="st6" d="M63.6,53.7h1.5c3.2,0,5.9,2.7,5.9,5.9v5.2c0,3.2-2.7,5.9-5.9,5.9h-1.5c-3.2,0-5.9-2.7-5.9-5.9
						v-5.2C57.7,56.3,60.4,53.7,63.6,53.7z"/>
				</g>
				<path class="st7" d="M64.4,54.4L64.4,54.4c3.2,0,5.9,2.7,5.9,5.9V64c0,3.2-2.7,5.9-5.9,5.9l0,0c-3.2,0-5.9-2.7-5.9-5.9v-3.7
					C58.5,57.1,61.1,54.4,64.4,54.4z"/>
			</g>
			<g id="Rectangle-33-Copy_2_">
				<g>
					<path id="path-2" class="st6" d="M61.8,53.7h5.2l0,0c2.2,0,4.1,1.8,4.1,4.1l0,0l0,0c0,2.2-1.8,4.1-4.1,4.1h-5.2l0,0
						c-2.2,0-4.1-1.8-4.1-4.1l0,0l0,0C57.7,55.5,59.6,53.7,61.8,53.7z"/>
				</g>
				<path class="st7" d="M61.8,54.4c-1.8,0-3.3,1.5-3.3,3.3c0,1.8,1.5,3.3,3.3,3.3h5.2c1.8,0,3.3-1.5,3.3-3.3c0-1.8-1.5-3.3-3.3-3.3
					H61.8z"/>
			</g>
		</g>
	</g>
</g>
<g id="Page-1" class="st0">
	<g id="icons8-Java" class="st1">
		<path id="Shape" class="st8" d="M54.3,27c2.5,5-9,8.2-10,12.4c-1,3.8,6.8,8.3,6.8,8.3c-1.2-1.6-2.1-2.9-3.2-5.4
			C45.9,38.2,59.8,33.8,54.3,27z M62.6,34c0,0-8.8,0.6-9.2,5.9c-0.2,2.4,2.3,3.7,2.4,5.4c0.1,1.4-1.5,2.5-1.5,2.5s2.6-0.4,3.5-2.5
			c1-2.4-1.7-4.1-1.3-6C56.6,37.4,62.6,34,62.6,34z M46.3,47.7c0,0-9-0.1-9,2.4c0,2.6,11.7,2.7,20.1,1.2c0,0,1.9-1,2.5-1.5
			c-5.5,1.1-17.6,0.7-17.6-0.2C42.3,48.7,46.3,47.7,46.3,47.7z M64.2,47.8c-1-0.1-2.1,0.3-3,1c1.9-0.4,3.6,0.7,3.6,2.1
			c0,3.1-4.4,6-4.4,6s6.8-0.8,6.8-5.9C67.2,49,65.8,47.9,64.2,47.8z M43.2,52.4c-1.4,0-3.5,1.2-3.5,2.2c0,2.1,10.5,3.8,18.3,0.7
			l-2.7-1.7C50,55.2,40.3,54.7,43.2,52.4z M45.1,56.9c-1.9,0-3.2,1.3-3.2,2.3c0,2.9,11.5,3,16.1,0l-2.9-1.8
			C51.8,59,43.2,59.2,45.1,56.9z M36.8,61.5c-2.7-0.1-4.1,1.3-4.1,2.4c0,6.1,29.8,5.9,29.8-0.4c0-1-1.2-1.5-1.5-1.8
			c2.4,6-24.7,5.5-24.7,2c0-0.8,1.4-1.6,3.2-1.3c0,0-0.6-0.8-1.5-1C37.6,61.6,37.2,61.5,36.8,61.5z M67.2,66.1
			c-4.7,4.6-17.8,7.4-29.8,4.6C49.5,75.6,67.2,71.8,67.2,66.1z"/>
	</g>
</g>
<g class="st0">
	<path class="st9" d="M47.8,23.8c1.3-0.7,3.1-0.7,4.4,0c6.7,3.8,13.3,7.5,20,11.3c1.3,0.7,2.1,2.1,2.1,3.5v22.7
		c0,1.5-0.9,2.9-2.2,3.6c-6.6,3.8-13.3,7.5-20,11.3c-1.3,0.8-3.1,0.7-4.4-0.1c-2-1.2-4-2.3-6-3.5c-0.4-0.2-0.9-0.4-1.2-0.8
		c0.2-0.4,0.7-0.4,1.1-0.5c0.8-0.3,1.6-0.7,2.4-1.1c0.2-0.1,0.4-0.1,0.6,0.1c1.7,1,3.4,2,5.1,2.9c0.4,0.2,0.7-0.1,1-0.2
		c6.6-3.7,13.1-7.4,19.6-11c0.2-0.1,0.4-0.4,0.4-0.7c0-7.5,0-15,0-22.5c0-0.3-0.1-0.6-0.4-0.7c-6.6-3.8-13.3-7.5-19.9-11.2
		c-0.2-0.1-0.5-0.1-0.8,0c-6.6,3.8-13.3,7.5-19.9,11.2c-0.3,0.1-0.4,0.4-0.4,0.7c0,7.5,0,15,0,22.5c0,0.3,0.1,0.5,0.4,0.7
		c1.8,1,3.5,2,5.3,3c1,0.5,2.2,0.9,3.3,0.4c1-0.4,1.6-1.3,1.6-2.4c0-7.4,0-14.9,0-22.3c0-0.3,0.3-0.6,0.6-0.6c0.9,0,1.7,0,2.6,0
		c0.4,0,0.6,0.4,0.6,0.7c0,7.5,0,15,0,22.5c0,2-0.8,4.2-2.7,5.2c-2.3,1.2-5.1,1-7.4-0.2c-1.9-1-3.8-2.1-5.7-3.2
		c-1.3-0.7-2.3-2.1-2.2-3.6V38.7c0-1.5,0.9-2.9,2.1-3.6C34.5,31.3,41.2,27.5,47.8,23.8z"/>
	<path class="st9" d="M53.6,39.5c2.9-0.2,6-0.1,8.6,1.3c2,1.1,3.2,3.4,3.2,5.7c-0.1,0.3-0.4,0.4-0.7,0.4c-0.8,0-1.7,0-2.5,0
		c-0.4,0-0.6-0.3-0.6-0.7c-0.2-1.1-0.8-2.1-1.8-2.7c-1.5-0.8-3.4-0.7-5.1-0.7c-1.3,0.1-2.6,0.1-3.6,0.9c-0.8,0.5-1,1.7-0.7,2.6
		c0.3,0.7,1,0.9,1.6,1c3.5,0.9,7.2,0.8,10.6,2.1c1.4,0.5,2.8,1.5,3.3,2.9c0.7,2,0.4,4.3-1,6c-1.2,1.3-2.8,2.1-4.5,2.4
		c-2.2,0.5-4.6,0.5-6.8,0.3c-2.1-0.2-4.3-0.8-6-2.2c-1.4-1.3-2.1-3.1-2-4.9c0-0.3,0.3-0.5,0.6-0.5c0.9,0,1.7,0,2.6,0
		c0.4,0,0.6,0.3,0.6,0.6c0.1,1,0.5,2.1,1.4,2.7c1.7,1.1,3.9,1,5.9,1c1.6-0.1,3.5-0.1,4.8-1.2c0.7-0.6,0.9-1.6,0.7-2.5
		c-0.2-0.7-1-1.1-1.7-1.3c-3.5-1.1-7.2-0.7-10.6-1.9c-1.4-0.5-2.7-1.4-3.2-2.9c-0.7-2-0.4-4.5,1.2-6C49.4,40.3,51.6,39.7,53.6,39.5
		L53.6,39.5z"/>
</g>
<path class="st8" d="M80.3,29.5L68,8.3c-1.1-1.9-3.7-3.4-5.8-3.4H37.8c-2.1,0-4.7,1.5-5.8,3.4L19.7,29.5c-1.1,1.9-1.1,4.8,0,6.7
	l12.2,21.2c1.1,1.9,3.7,3.4,5.8,3.4h24.5c2.1,0,4.7-1.5,5.8-3.4l12.3-21.2C81.4,34.4,81.4,31.4,80.3,29.5z M47.3,16.7
	c-0.1-1.4,1.1-2.6,2.4-2.6c1.4-0.1,2.6,1.1,2.6,2.4c0,0.1,0,0.1,0,0.2v15.1c0.1,1.4-1.1,2.6-2.4,2.6c-1.4,0.1-2.6-1.1-2.6-2.4
	c0-0.1,0-0.1,0-0.2V16.7z M49.9,48.9c-9.5,0-17.1-7.7-17.1-17.1c0-5.4,2.6-10.5,6.9-13.7c1-0.7,2.4-0.5,3.1,0.4
	c0.7,1,0.5,2.4-0.4,3.1c-5.6,4.2-6.8,12-2.6,17.7s12,6.8,17.7,2.6c3.2-2.4,5.1-6.2,5.1-10.2s-1.9-7.8-5.2-10.2
	c-1-0.7-1.2-2.1-0.5-3.1c0.7-1,2.1-1.2,3.1-0.5l0,0c7.6,5.6,9.2,16.3,3.7,23.9C60.4,46.4,55.4,48.9,49.9,48.9z"/>
</svg>
