<?xml version="1.0" encoding="utf-8"?>
<!-- Generator: Adobe Illustrator 25.1.0, SVG Export Plug-In . SVG Version: 6.00 Build 0)  -->
<svg version="1.1" id="vmtnz" xmlns="http://www.w3.org/2000/svg" xmlns:xlink="http://www.w3.org/1999/xlink" x="0px" y="0px"
	 viewBox="0 0 300 150" style="enable-background:new 0 0 300 150;" xml:space="preserve">
<style type="text/css">
	.st0{display:none;fill:#FFFFFF;stroke:#000000;stroke-miterlimit:10;}
	.st1{fill:#FFFFFF;stroke:#000000;stroke-miterlimit:10;}
</style>
<g>
	<path class="st0" d="M294,163.6c-96,0-192,0-288,0C6,106.8,6,49.9,6-7c96,0,192,0,288,0C294,49.8,294,106.7,294,163.6z
		 M150.5,106.6c6.1,0,12.2,0.2,18.3-0.1c1.6-0.1,3.8-0.9,4.8-2.1c8.1-9.8,15.9-19.9,23.9-29.8c1.3-1.6,1.6-3.3,1.1-5.2
		c-2.9-11.9-5.7-23.9-8.7-35.8c-0.4-1.5-1.7-3.2-3.1-3.9c-10.5-5.4-21.1-10.5-31.6-15.9c-3.2-1.6-5.9-1.6-9,0.1
		c-10.3,5.4-20.8,10.5-31.1,15.9c-1.3,0.7-2.7,2.3-3.1,3.7c-3.1,11.8-6,23.6-8.9,35.5c-0.5,2-0.5,4,1,5.9
		c7.9,9.8,15.6,19.8,23.5,29.5c1,1.2,3.1,2.2,4.7,2.2C138.4,106.8,144.4,106.6,150.5,106.6z M62.1,151.8c2.9-5.2,5.5-10.1,8.2-15
		c0.2,0.1,0.4,0.1,0.6,0.1c0,5.4,0,10.7,0,16c1.5,0,2.7,0,3.7,0c0-8.4,0-16.7,0-24.9c-3.6-0.3-3.6-0.3-5.1,2.4
		c-2.4,4.4-4.8,8.9-7.4,13.6c-2.6-4.9-5.2-9.3-7.5-13.9c-1.2-2.4-2.8-2.7-5.1-2.1c0,8.3,0,16.5,0,24.8c1.3,0,2.4,0,3.9,0
		c0-5.5,0-10.8,0-16.1c0.2-0.1,0.4-0.1,0.5-0.1C56.6,141.7,59.3,146.6,62.1,151.8z M211.9,77.5c-4.4-2-5.5-1.8-7.4,0.5
		c-8.6,10.8-17.3,21.6-25.9,32.5c-0.4,0.6-1,1.5-0.9,2c0.5,1.5,1.4,2.9,2.3,4.7C190.9,103.8,201.3,90.8,211.9,77.5z M88.3,72.2
		c4.2,0,6.6-1.5,6.9-5.4c0.1-1.3,0.5-2.7,0.8-4c2.7-10.7,5.4-21.4,8.1-32.1c0.9-3.5-0.1-5.2-3.9-6.6C96.3,40,92.3,56,88.3,72.2z
		 M153.1-3c0.5,2.8-1.2,5.5,1.9,7.1c2.6,1.3,5.3,2.6,8,3.9c9.4,4.6,18.7,9.2,28,13.9c3.3,1.7,5.4,1.1,7.2-2.5
		C183.4,12,168.6,4.7,153.1-3z M89.3,77.2c10.8,13.6,21.2,26.7,31.8,40c0.5-1,0.8-1.6,1.1-2.1c1.7-2.3,1.2-4.1-0.8-6.1
		c-1.6-1.6-2.8-3.5-4.2-5.2C110.2,94.9,103.1,86,96,77.1c-0.4-0.5-1.1-1.1-1.6-1C92.9,76.2,91.5,76.7,89.3,77.2z M213.2,72.2
		c-3.8-16.2-7.6-32.2-11.5-48.6c-1.3,1-2.2,1.9-3.2,2.5c-1.2,0.8-1.4,1.7-1.1,3.1c2.9,12.4,5.9,24.8,8.6,37.2c0.8,3.7,2.3,5.9,6.2,6
		C212.5,72.3,212.5,72.3,213.2,72.2z M147.9-2.8c-14.8,7.5-29.4,14.9-43.9,22.3c2.1,3.7,3.5,4.2,6.9,2.5c1.2-0.6,2.4-1.2,3.7-1.8
		c10.1-5.1,20.1-10.3,30.2-15.3C148.6,2.8,149,2.2,147.9-2.8z M100,147.2c-0.2,0-0.3,0-0.5,0c-1.2-3.7-2.5-7.4-3.7-11.1
		c-0.4-1.1-0.7-2-2.2-2c-1.5,0-1.9,0.7-2.3,1.9c-1.2,3.8-2.6,7.6-4.1,11.9c-1.2-4-2.5-7.4-3.3-11c-0.6-2.8-2.1-3.2-4.7-2.4
		c1.9,5.7,3.9,11.3,5.8,17c0.4,1.3,1,1.8,2.4,1.8c1.4,0,1.9-0.5,2.3-1.8c0.7-2.6,1.7-5.2,2.6-7.8c0.4-1.1,0.8-2.3,1.5-4.1
		c1.4,4.3,2.5,7.9,3.7,11.5c0.4,1.1,0.5,2.2,2.3,2.2c1.7,0,2.2-0.7,2.6-2.1c1.7-5.1,3.5-10.2,5.2-15.3c0.2-0.5,0.2-1,0.3-1.5
		c-2.7-0.8-4,0-4.6,2.6C102.3,140.5,101,143.8,100,147.2z M126,119.1c16.5,0,32.8,0,49.2,0c-1.1-4.7-1.6-5.2-5.9-5.2
		c-12.5,0-25.1,0-37.6,0C127.8,113.9,126.7,114.9,126,119.1z M32,148c-0.5-1.1-0.9-1.7-1.1-2.3c-2.2-4.9-4.3-9.9-6.4-14.8
		c-1.4-3.3-1.4-3.3-5.2-2.7c0,0.2-0.1,0.5,0,0.7c3.3,7.7,6.7,15.3,9.9,23c0.7,1.6,1.8,1.3,2.9,1.3c1.2,0.1,2-0.2,2.6-1.5
		c2.5-5.9,5.1-11.8,7.6-17.7c0.8-1.9,1.6-3.8,2.5-5.7c-4-0.8-4-0.8-5.3,2.4c-1.2,2.6-2.3,5.3-3.4,7.9C34.8,141.6,33.5,144.6,32,148z
		 M126.6,153c0-3.6-0.1-7,0-10.4c0.1-3.4-0.7-6.5-4.1-8c-3.9-1.8-7.6-0.6-11.3,1.1c0.6,1.1,1,1.8,1.4,2.5c7.7-2.1,10.5-1,10,3.2
		c-2.7,0-5.3-0.3-7.9,0.1c-3.4,0.6-5.4,3.4-5.2,6.5c0.2,3.1,2.7,5.6,6.2,5.5c2.3-0.1,4.7-0.9,7.1-1.5
		C123.3,153.4,123.3,153.4,126.6,153z M164.4,144.9c0.1-6.1-2.5-10-7.1-11c-4.6-1-9.2,1.4-11,5.8c-1.9,4.5-0.3,9.8,3.7,12.4
		c4,2.6,9.9,2,13.1-1.5c-0.6-0.7-1.3-1.3-1.9-2c-6.7,3.2-11.4,1.8-11.6-3.6C154.6,144.9,159.4,144.9,164.4,144.9z M216.4,153.2
		c0-3.8-0.1-7.2,0-10.6c0.1-3.4-0.7-6.5-4.1-8c-3.9-1.8-7.6-0.7-11.4,1.1c0.6,1.1,1.1,1.8,1.5,2.5c7.6-2.2,10.5-1.1,10,3.2
		c-2.7,0-5.3-0.3-7.9,0.1c-3.5,0.5-5.5,3.5-5.2,6.7c0.3,2.9,2.8,5.3,6.2,5.3c2.4-0.1,4.7-0.9,7-1.5
		C212.8,154.2,214.8,153,216.4,153.2z M222,134.2c0,6.4,0,12.6,0,18.8c1.3,0,2.4,0,3.7,0c0-3.8-0.1-7.4,0.1-10.9
		c0.1-1.2,0.6-2.7,1.4-3.6c1.4-1.5,3.4-1.9,5.3-1.1c1.9,0.8,2.7,2.4,2.7,4.4c0,3.7,0,7.5,0,11.3c1.4,0,2.4,0,3.6,0
		c0-4.4,0.2-8.6-0.1-12.9c-0.3-5.4-6.2-8.2-10.9-5.5c-0.6,0.4-1.2,0.8-1.9,1.3C225.6,133.3,223.7,134.4,222,134.2z M262.1,134.3
		c0,4.5-0.2,8.9,0.1,13.3c0.2,3.3,2.9,5.9,6.3,5.9c2.2-0.1,4.4-1,6.6-1.5c0.3,2.3,2.3,1,3.8,1.1c0-6.4,0-12.6,0-18.7
		c-1.3,0-2.4,0-3.7,0c0,3.6,0,7,0,10.5c0,3.4-1.9,5.4-5,5.5c-2.8,0.1-4.4-1.9-4.5-5.4c0-3.5,0-7,0-10.7
		C264.5,134.3,263.4,134.3,262.1,134.3z M253.1,137.6c-3.3,4-6.4,7.6-9.3,11.3c-0.8,1.1-1.1,2.6-1.7,4.1c5.8,0,10.9,0,16,0
		c0-1.1,0-2.1,0-3.4c-3.5,0-6.8,0-10.4,0c3.3-4,6.4-7.6,9.3-11.4c0.8-1,1-2.4,1.6-4c-5.7,0-10.6,0-15.7,0c0,1.1,0,2.1,0,3.3
		C246.2,137.6,249.4,137.6,253.1,137.6z M185,131.5c0,7.4,0,14.4,0,21.6c1.4,0,2.7,0,4.1,0c0-7.2,0-14.3,0-21.6c2.8,0,5.4,0,8,0
		c0-1.3,0-2.3,0-3.4c-6.8,0-13.4,0-20.2,0c0,1.1,0,2.1,0,3.3C179.6,131.5,182.1,131.5,185,131.5z M135.8,153.1c0-3.4-0.1-6.6,0-9.7
		c0.1-3.2,1.7-5.5,4.9-6c2.6-0.4,2.5-1.6,1.9-4.1c-2.3,1-4.4,2-6.6,2.9c-0.1-0.5-0.2-1.2-0.4-1.9c-1.2,0-2.2,0-3.4,0
		c0,6.3,0,12.6,0,18.8C133.5,153.1,134.6,153.1,135.8,153.1z"/>
	<path class="st1" d="M150.5,106.6c-6,0-12.1,0.2-18.1-0.1c-1.6-0.1-3.7-1-4.7-2.2c-7.9-9.7-15.6-19.7-23.5-29.5
		c-1.5-1.9-1.5-3.9-1-5.9c2.9-11.8,5.8-23.7,8.9-35.5c0.4-1.4,1.8-3,3.1-3.7c10.3-5.4,20.7-10.5,31.1-15.9c3.1-1.6,5.9-1.7,9-0.1
		c10.5,5.4,21.1,10.5,31.6,15.9c1.4,0.7,2.7,2.4,3.1,3.9c3.1,11.9,5.9,23.8,8.7,35.8c0.5,1.9,0.2,3.6-1.1,5.2
		c-8,9.9-15.8,20-23.9,29.8c-1,1.2-3.1,2-4.8,2.1C162.7,106.8,156.6,106.6,150.5,106.6z M131.9,101.4c0.2,0.3,0.5,0.9,0.7,0.9
		c11.9,0.1,23.8,0.1,35.6,0c0.3,0,0.5-0.6,0.8-0.9c7.9-9.8,15.8-19.6,23.6-29.4c0.4-0.5,0.6-1.5,0.4-2.2c-2.6-11-5.2-22-8-33
		c-0.3-1.3-1.5-2.7-2.7-3.3c-10-5.1-20.1-10-30.2-14.8c-0.9-0.4-2.4-0.4-3.2,0c-10.1,4.9-20.1,10-30.1,15c-0.9,0.5-1.8,1.6-2.1,2.6
		c-2.9,11-5.7,22-8.4,33.1c-0.2,0.8-0.1,2,0.4,2.7c3.6,4.6,7.3,9.1,10.9,13.7C123.8,91,127.8,96.2,131.9,101.4z"/>
	<path class="st1" d="M71.4,143.7c-2.5-4.6-4.9-9-7.3-13.4c-0.2,0-0.3,0.1-0.5,0.1c0,4.7,0,9.5,0,14.4c-1.3,0-2.3,0-3.5,0
		c0-7.4,0-14.8,0-22.2c2.1-0.6,3.5-0.3,4.6,1.9c2,4.1,4.3,8.1,6.7,12.4c2.3-4.3,4.5-8.2,6.6-12.2c1.3-2.5,1.3-2.5,4.5-2.2
		c0,7.3,0,14.7,0,22.2c-0.9,0-1.9,0-3.3,0c0-4.7,0-9.5,0-14.3c-0.2,0-0.4-0.1-0.6-0.1C76.3,134.6,73.9,139,71.4,143.7z"/>
	<path class="st1" d="M205.3,77.3c-9.5,11.8-18.9,23.5-28.4,35.5c-0.8-1.6-1.6-2.8-2.1-4.2c-0.2-0.5,0.4-1.3,0.8-1.8
		c7.7-9.7,15.4-19.3,23.1-29C200.4,75.6,201.4,75.5,205.3,77.3z"/>
	<path class="st1" d="M94.8,72.5c3.6-14.5,7.1-28.7,10.7-43c3.4,1.2,4.3,2.7,3.5,5.9c-2.4,9.6-4.9,19.1-7.3,28.7
		c-0.3,1.2-0.6,2.4-0.7,3.6C100.7,71.2,98.6,72.5,94.8,72.5z"/>
	<path class="st1" d="M152.6,5.3c13.9,6.9,27.1,13.5,40.4,20c-1.6,3.1-3.5,3.7-6.4,2.2c-8.3-4.2-16.7-8.3-25.1-12.4
		c-2.4-1.2-4.8-2.3-7.1-3.5C151.6,10.2,153.1,7.8,152.6,5.3z"/>
	<path class="st1" d="M95.6,77c2-0.4,3.3-0.8,4.6-0.9c0.5,0,1.1,0.5,1.5,0.9c6.3,7.9,12.7,15.8,19,23.8c1.2,1.6,2.3,3.3,3.8,4.7
		c1.7,1.7,2.2,3.4,0.7,5.4c-0.3,0.4-0.5,1-1,1.9C114.6,100.8,105.3,89.1,95.6,77z"/>
	<path class="st1" d="M206.4,72.5c-0.6,0.1-0.6,0.1-0.7,0.1c-3.5-0.1-4.9-2.1-5.6-5.4c-2.4-11.1-5.1-22.2-7.7-33.2
		c-0.3-1.2-0.2-2,0.9-2.8c0.9-0.6,1.7-1.3,2.8-2.2C199.6,43.7,203,58,206.4,72.5z"/>
	<path class="st1" d="M148,5.5c1,4.5,0.7,5-2.9,6.8c-9,4.5-18,9.1-27,13.7c-1.1,0.5-2.2,1.1-3.3,1.6c-3,1.5-4.3,1.1-6.1-2.2
		C121.7,18.8,134.8,12.2,148,5.5z"/>
	<path class="st1" d="M105.2,139.5c0.9-3,2.1-6,2.8-9c0.6-2.4,1.7-3.1,4.1-2.4c-0.1,0.4-0.1,0.9-0.3,1.3c-1.5,4.6-3.1,9.1-4.6,13.7
		c-0.4,1.2-0.9,1.9-2.3,1.9c-1.6,0-1.7-1-2-2c-1-3.2-2.1-6.4-3.3-10.2c-0.6,1.6-1,2.6-1.3,3.6c-0.8,2.3-1.6,4.6-2.3,7
		c-0.3,1.2-0.8,1.6-2.1,1.6c-1.2,0-1.8-0.4-2.1-1.6c-1.7-5.1-3.4-10.1-5.1-15.2c2.3-0.7,3.6-0.3,4.2,2.2c0.7,3.2,1.9,6.3,3,9.8
		c1.3-3.8,2.5-7.2,3.6-10.7c0.3-1.1,0.7-1.7,2.1-1.7c1.3,0,1.7,0.7,2,1.8c1.1,3.3,2.2,6.6,3.3,9.9
		C104.9,139.6,105.1,139.6,105.2,139.5z"/>
	<path class="st1" d="M128.4,114.4c0.6-3.7,1.6-4.6,5.1-4.6c11.2,0,22.4,0,33.6,0c3.9,0,4.4,0.4,5.3,4.6
		C157.8,114.4,143.2,114.4,128.4,114.4z"/>
	<path class="st1" d="M44.4,140.3c1.3-3.1,2.5-5.7,3.6-8.4c1-2.4,2-4.7,3.1-7.1c1.2-2.8,1.2-2.8,4.7-2.1c-0.7,1.7-1.5,3.4-2.2,5.1
		c-2.3,5.3-4.6,10.5-6.8,15.8c-0.5,1.2-1.2,1.4-2.3,1.4c-1-0.1-2,0.2-2.6-1.2c-2.9-6.9-5.9-13.7-8.9-20.5c-0.1-0.2,0-0.4,0-0.6
		c3.4-0.6,3.4-0.6,4.7,2.4c1.9,4.4,3.8,8.8,5.8,13.2C43.7,138.8,43.9,139.3,44.4,140.3z"/>
	<path class="st1" d="M129,144.8c-2.9,0.4-2.9,0.4-3.4-0.9c-2.2,0.5-4.2,1.3-6.3,1.3c-3.1,0.1-5.3-2.2-5.5-4.9
		c-0.2-2.8,1.6-5.3,4.6-5.8c2.3-0.4,4.7-0.1,7-0.1c0.5-3.8-2-4.8-8.9-2.9c-0.3-0.6-0.7-1.3-1.3-2.3c3.4-1.6,6.7-2.6,10.1-1
		c3,1.4,3.7,4.1,3.6,7.2C128.9,138.5,129,141.6,129,144.8z M120.9,143.1c1.4-0.8,3-1.3,4.1-2.4c1.7-1.7,0.8-3.5-1.5-3.8
		c-1.1-0.1-2.3-0.2-3.4-0.1c-2,0.3-3.4,1.7-3.1,3.2C117.4,142.1,118.9,142.6,120.9,143.1z"/>
	<path class="st1" d="M162.8,137.5c-4.5,0-8.8,0-13.2,0c0.2,4.9,4.4,6.1,10.4,3.2c0.5,0.6,1.1,1.2,1.7,1.8
		c-2.9,3.1-8.2,3.7-11.8,1.4c-3.6-2.3-5-7-3.3-11c1.6-3.9,5.7-6,9.9-5.1C160.6,128.6,162.9,132.1,162.8,137.5z M159.4,134.9
		c-0.4-2.9-2-4.5-4.6-4.6c-2.7-0.1-4.8,1.6-5.4,4.6C152.8,134.9,156,134.9,159.4,134.9z"/>
	<path class="st1" d="M209.3,145c-1.5-0.2-3.3,0.9-3.4-1.1c-2.1,0.5-4.2,1.3-6.3,1.3c-3,0.1-5.3-2.1-5.5-4.7c-0.3-2.9,1.6-5.5,4.7-6
		c2.3-0.4,4.6-0.1,7-0.1c0.5-3.9-2.2-4.8-8.9-2.9c-0.4-0.6-0.8-1.3-1.3-2.2c3.4-1.6,6.7-2.6,10.1-1c3,1.4,3.7,4.1,3.6,7.2
		C209.2,138.5,209.3,141.6,209.3,145z M201.4,136.6c-0.6,0.2-1.7,0.2-2.4,0.8c-0.8,0.6-1.6,1.7-1.6,2.5c0,0.8,0.9,1.9,1.8,2.4
		c1.9,1.1,4.9,0.2,6.2-1.4c1.4-1.9,0.8-3.6-1.5-3.9C203.2,136.8,202.5,136.7,201.4,136.6z"/>
	<path class="st1" d="M214.2,128c1.5,0.1,3.2-0.9,3.6,1.6c0.6-0.4,1.1-0.8,1.7-1.2c4.2-2.5,9.5,0.1,9.8,4.9c0.2,3.8,0,7.6,0,11.5
		c-1.1,0-2.1,0-3.3,0c0-3.4,0-6.8,0-10.1c0-1.8-0.7-3.3-2.4-3.9c-1.8-0.7-3.5-0.4-4.8,1c-0.7,0.8-1.2,2.1-1.2,3.2
		c-0.2,3.2-0.1,6.4-0.1,9.8c-1.2,0-2.2,0-3.3,0C214.2,139.2,214.2,133.8,214.2,128z"/>
	<path class="st1" d="M250.1,128.1c1.1,0,2.1,0,3.2,0c0,3.2,0,6.4,0,9.5c0,3.1,1.5,4.9,4,4.8c2.8-0.1,4.5-1.9,4.5-4.9
		c0-3.1,0-6.1,0-9.4c1.1,0,2.1,0,3.3,0c0,5.5,0,11.1,0,16.7c-1.4-0.1-3.1,1.1-3.4-1c-2,0.5-4,1.3-5.9,1.4c-3,0.1-5.4-2.3-5.6-5.2
		C250,136,250.1,132.1,250.1,128.1z"/>
	<path class="st1" d="M242.1,131c-3.3,0-6.2,0-9.1,0c0-1.1,0-2,0-2.9c4.6,0,9,0,14.1,0c-0.5,1.4-0.7,2.7-1.4,3.5
		c-2.6,3.3-5.4,6.6-8.3,10.1c3.3,0,6.2,0,9.3,0c0,1.2,0,2.1,0,3.1c-4.6,0-9.1,0-14.3,0c0.6-1.4,0.8-2.8,1.5-3.7
		C236.4,137.8,239.1,134.6,242.1,131z"/>
	<path class="st1" d="M181.2,125.5c-2.6,0-4.9,0-7.2,0c0-1.1,0-2,0-3c6.1,0,12,0,18.1,0c0,0.9,0,1.8,0,3c-2.3,0-4.6,0-7.2,0
		c0,6.5,0,12.8,0,19.3c-1.3,0-2.4,0-3.7,0C181.2,138.4,181.2,132.1,181.2,125.5z"/>
	<path class="st1" d="M137.2,144.8c-1.1,0-2.1,0-3.2,0c0-5.6,0-11.1,0-16.8c1,0,2,0,3.1,0c0.1,0.6,0.3,1.2,0.4,1.7
		c1.9-0.9,3.8-1.7,5.9-2.6c0.5,2.2,0.6,3.3-1.7,3.7c-2.8,0.4-4.3,2.5-4.3,5.4C137.2,139,137.2,141.8,137.2,144.8z"/>
	<path class="st0" d="M131.9,101.4c-4-5.2-8-10.4-12.1-15.5c-3.6-4.6-7.3-9.1-10.9-13.7c-0.5-0.6-0.6-1.8-0.4-2.7
		c2.7-11,5.5-22.1,8.4-33.1c0.3-1,1.2-2.2,2.1-2.6c10-5.1,20-10.1,30.1-15c0.9-0.4,2.4-0.4,3.2,0c10.1,4.9,20.2,9.8,30.2,14.8
		c1.2,0.6,2.4,2,2.7,3.3c2.8,11,5.4,22,8,33c0.2,0.7,0,1.7-0.4,2.2c-7.8,9.8-15.7,19.6-23.6,29.4
		C156.7,101.4,144.3,101.4,131.9,101.4z"/>
	<path class="st0" d="M131.9,101.4c12.4,0,24.8,0,37.2,0.1c-0.3,0.3-0.5,0.9-0.8,0.9c-11.9,0-23.8,0-35.6,0
		C132.4,102.3,132.1,101.7,131.9,101.4z"/>
	<path class="st0" d="M117.6,151.1c-2.3-0.6-4-1.1-4.4-3.4c-0.3-1.6,1.2-3.3,3.5-3.6c1.2-0.2,2.6-0.1,3.8,0.1
		c2.6,0.3,3.5,2.3,1.7,4.2C121,149.7,119.2,150.2,117.6,151.1z"/>
	<path class="st0" d="M160.7,142c-3.8,0-7.4,0-11.1,0c0.7-3.4,2.9-5.3,6-5.1C158.4,137,160.2,138.7,160.7,142z"/>
	<path class="st0" d="M207.6,143.9c1.2,0.1,2.1,0.2,2.8,0.3c2.5,0.4,3.2,2.3,1.6,4.4c-1.4,1.9-4.9,2.8-7,1.6c-0.9-0.5-1.9-1.7-2-2.6
		c0-0.9,0.9-2.1,1.7-2.8C205.7,144.1,206.9,144.1,207.6,143.9z"/>
</g>
</svg>
