<?xml version="1.0" encoding="utf-8"?>
<!-- Generator: Adobe Illustrator 25.0.0, SVG Export Plug-In . SVG Version: 6.00 Build 0)  -->
<svg version="1.1" id="Layer_1" xmlns="http://www.w3.org/2000/svg" xmlns:xlink="http://www.w3.org/1999/xlink" x="0px" y="0px"
	 viewBox="0 0 1920 471.6" style="enable-background:new 0 0 1920 471.6;" xml:space="preserve">
<style type="text/css">
	.st0{fill:#FFFFFF;}
</style>
<g>
	<path class="st0" d="M0,357.8h19c6.7,32.7,19.1,55.7,37.3,69.2c18.2,13.5,36.9,20.2,56,20.2c17.6,0,30.5-3.9,38.7-11.8
		c8.2-7.9,12.3-18.3,12.3-31.2c0-12.2-4.4-22.7-13.3-31.3c-4.9-4.7-12.8-9.7-23.7-15l-50.7-24.7C49,320,29.9,305.8,18.3,290.4
		C6.6,275.1,0.7,257,0.7,236.1c0-26.5,9.2-49.3,27.7-68.5c18.5-19.2,44.2-28.8,77.4-28.8c14.5,0,29.8,2.4,46,7.2
		c16.2,4.8,26.3,7.2,30.3,7.2c5.6,0,9.5-1.2,11.8-3.5c2.3-2.3,4.3-5.6,5.8-9.8h15v98.8h-17.3c-6.4-23.1-17-41.7-31.7-55.7
		c-14.7-14-31.8-21-51.4-21c-15.1,0-26.4,4.2-33.8,12.7c-7.4,8.4-11.2,17.6-11.2,27.3c0,8,3.3,16,10,24c6.4,8.2,18.7,16.7,36.7,25.3
		l37.3,18c23.1,11.1,40,21.9,50.7,32.3c17.8,17.8,26.7,39.7,26.7,65.7c0,25.3-9.2,48.9-27.5,70.8c-18.3,21.9-45.9,32.8-82.5,32.8
		c-9.1,0-18.3-0.9-27.5-2.8c-9.2-1.9-20.6-5.2-34.2-9.8l-11.7-4c-4.2-1.6-6.8-2.4-7.8-2.7c-1-0.2-2.3-0.3-3.8-0.3
		c-3.8,0-7.1,1.5-9.8,4.5c-2.8,3-5.9,8.1-9.5,15.2H0V357.8L0,357.8z"/>
	<path class="st0" d="M360.7,405.2c7.8,29.6,23.2,44.3,46.3,44.3c22,0,36.4-11.3,43.3-34c6.9-22.7,10.3-59.5,10.3-110.6
		c0-50.9-3.6-87.7-10.8-110.5c-7.2-22.8-21.4-34.2-42.5-34.2c-23.1,0-38.5,14.8-46.3,44.3c-5.1,19.8-7.7,53.2-7.7,100.3
		C353.3,352.7,355.8,386.1,360.7,405.2L360.7,405.2z M296.9,186c29.2-31.8,65.9-47.7,110.1-47.7c45.1,0,82,16.2,110.8,48.7
		c28.8,32.4,43.2,71.8,43.2,118c0,45.5-14.2,84.7-42.7,117.5c-28.4,32.8-65.5,49.2-111.3,49.2c-44.4,0-81.2-15.9-110.3-47.8
		c-29.1-31.9-43.7-71.5-43.7-118.8C253,257.4,267.6,217.7,296.9,186L296.9,186z"/>
	<path class="st0" d="M580.1,455.2c11.9-2.9,20.4-6.7,25.3-11.5c5-4.8,7.5-14.7,7.5-29.8V56c0-14.6-2.3-24.1-7-28.6
		c-4.6-4.5-13.2-8.2-25.8-11.1V0h129.2v413.9c0,15.1,2.4,25,7.3,29.7c4.9,4.7,13.5,8.6,25.9,11.7v16.3H580.1V455.2L580.1,455.2z"/>
	<path class="st0" d="M928.9,412.2c5.3-4,11.7-10.2,19-18.7v-99.9c-18.2,4.5-34.2,11.5-48,21c-23.3,16.3-35,37-35,62.1
		c0,14.9,3.4,26.2,10.2,33.9c6.8,7.7,14.4,11.5,22.8,11.5C909,422.2,919.3,418.9,928.9,412.2L928.9,412.2z M809.6,324.4
		c29.6-18.1,76-36.2,139.2-54.5v-49.7c0-20.2-4.3-35.2-12.8-44.9c-8.6-9.7-23.8-14.5-45.6-14.5c-12.2,0-22.3,2.3-30.2,6.8
		c-7.9,4.6-11.8,10.3-11.8,17.2c0,2.7,0.4,4.9,1.3,6.7c0.9,1.8,2.2,3.7,4,5.7l4,4.7c3.1,3.8,5.6,8,7.5,12.5
		c1.9,4.6,2.8,9.4,2.8,14.5c0,12.9-4.3,22.9-12.9,29.9c-8.6,7-18.5,10.5-29.9,10.5c-13.1,0-24.3-3.9-33.5-11.7
		c-9.2-7.8-13.9-19-13.9-33.6c0-26.2,12.4-46.9,37.1-62.3c24.7-15.3,55.1-23,91.1-23c38.7,0,71.1,7.5,97.1,22.4
		c25.8,15.1,38.7,42.9,38.7,83.4v165.6c0,4.9,1.3,9.1,3.8,12.5c2.6,3.5,5.4,5.2,8.5,5.2c2.7,0,5.1-0.5,7.2-1.5
		c2.1-1,5.4-3.7,9.8-8.2l10.3,14.4c-13.4,15.6-28.2,26.5-44.4,32.7c-10.2,4-21,6-32.4,6c-20.3,0-35-5.9-44.4-17.7
		c-5.3-6.7-9.2-16.6-11.7-29.8c-18.9,19-40.3,32.3-64.1,40.1c-14.5,4.9-28.7,7.4-42.7,7.4c-18.7,0-36.2-6-52.4-17.9
		c-16.2-11.9-24.4-30.5-24.4-55.7C765.3,366.8,780,342.4,809.6,324.4L809.6,324.4z"/>
	<path class="st0" d="M1329.9,159.3c21,14,31.5,32,31.5,54c0,11.8-4.2,22-12.5,30.7c-8.3,8.7-18.9,13-31.8,13c-8.7,0-16.2-2-22.7-6
		c-12.2-7.1-18.3-20-18.3-38.7c0-2,0.1-4.9,0.3-8.8c0.2-3.9,0.3-8.1,0.3-12.5c0-12-2.8-20.2-8.3-24.7c-5.8-4.4-12.3-6.7-19.7-6.7
		c-21.1,0-36.1,11.6-45,34.8c-8.9,23.2-13.3,49.8-13.3,79.8c0,42.7,8.4,78.4,25.3,107.3c16.9,28.9,39.7,43.3,68.3,43.3
		c18,0,33.3-4,46-12c7.6-4.7,16.9-13.2,28-25.7l12.7,11.7c-22.2,30.9-48.2,52.1-78,63.7c-15.8,6-32.5,9-50.3,9
		c-43.8,0-79.5-15.7-107.3-47c-27.8-31.3-41.7-69.5-41.7-114.6c0-47.5,14.7-88,44.2-121.5c29.4-33.4,68.7-50.2,117.8-50.2
		C1284.1,138.3,1308.9,145.3,1329.9,159.3L1329.9,159.3z"/>
	<path class="st0" d="M1574.1,268.4c-0.4-40.2-3.6-68.3-9.4-84.3c-5.8-16-17.4-24-34.8-24c-17.8,0-30,9.2-36.6,27.7
		c-6.6,18.4-10.3,45.3-11.2,80.6H1574.1L1574.1,268.4z M1429,182.6c27.9-29,61.6-43.5,100.9-43.5c22.5,0,43.6,5.9,63.4,17.7
		c19.8,11.8,35,28.1,45.7,49c8,15.8,13.6,36.2,16.7,61.3c1.6,11.8,2.3,20.8,2.3,27h-174.3c1.6,27.3,6,51,13.4,71
		c13.4,37.5,36.8,56.3,70.5,56.3c16,0,31.2-5,45.4-15c8.7-6,19.5-16.1,32.4-30.3l15.7,9.7c-21.1,34.7-45.6,58.8-73.4,72.3
		c-18,8.7-38.7,13-62.1,13c-33.6,0-65.1-13.2-94.4-39.7c-29.4-26.4-44-68.7-44-126.6C1387.2,252.3,1401.1,211.6,1429,182.6
		L1429,182.6z"/>
	<path class="st0" d="M1920,357.8c0,62.8-50.9,113.8-113.7,113.8c-62.8,0-113.7-50.9-113.7-113.8c0-62.8,50.9-113.8,113.7-113.8
		C1869.1,244.1,1920,295,1920,357.8L1920,357.8z"/>
</g>
</svg>
