<?xml version="1.0" encoding="UTF-8"?>
<svg id="Layer_1" data-name="Layer 1" xmlns="http://www.w3.org/2000/svg" viewBox="0 0 1000 255">
  <defs>
    <style>
      .cls-1 {
        fill: #fff;
      }
    </style>
  </defs>
  <g>
    <path class="cls-1" d="M6.59,143.27c0-9.2,2.02-17.09,6.08-23.66,4.05-6.57,9.31-11.99,15.77-16.27,6.46-4.27,13.69-7.44,21.69-9.53,8-2.08,16.05-3.12,24.15-3.12,7.67,0,14.79.66,21.36,1.97,6.57,1.31,12.32,3.12,17.25,5.42,4.93,2.3,8.82,4.93,11.67,7.89,2.85,2.96,4.27,6.19,4.27,9.69,0,5.04-.11,8.99-.33,11.83-.22,2.85-.66,4.99-1.31,6.41-.66,1.43-1.43,2.3-2.3,2.63-.88.33-1.97.49-3.29.49-3.73,0-6.74-1.37-9.04-4.11-2.3-2.74-4.88-5.8-7.72-9.2-2.85-3.39-6.52-6.46-11.01-9.2-4.49-2.74-11.01-4.11-19.55-4.11-5.04,0-9.26.66-12.65,1.97-3.4,1.31-6.08,3.07-8.05,5.26-1.97,2.19-3.4,4.55-4.27,7.06-.88,2.52-1.31,4.99-1.31,7.39,0,5.26,2.19,9.2,6.57,11.83,4.38,2.63,9.86,4.88,16.43,6.74,6.57,1.86,13.64,3.61,21.2,5.26,7.56,1.64,14.62,4,21.2,7.06,6.57,3.07,12.05,7.34,16.43,12.82,4.38,5.48,6.57,12.82,6.57,22.02s-1.76,16.65-5.26,23.66c-3.51,7.01-8.38,12.93-14.62,17.75-6.24,4.82-13.8,8.54-22.67,11.17-8.87,2.63-18.57,3.94-29.08,3.94-9.64,0-18.35-1.31-26.13-3.94-7.78-2.63-14.46-5.86-20.05-9.69-5.59-3.83-9.92-7.72-12.98-11.67-3.07-3.94-4.6-7.23-4.6-9.86,0-3.72,1.09-7.44,3.29-11.17,2.19-3.72,5.47-5.59,9.86-5.59,2.84,0,5.26.82,7.23,2.46,1.97,1.64,3.83,3.61,5.59,5.91,1.75,2.3,3.56,4.88,5.42,7.72,1.86,2.85,4.16,5.42,6.9,7.72,2.74,2.3,6.02,4.27,9.86,5.91,3.83,1.64,8.6,2.46,14.29,2.46,8.54,0,15.72-2.19,21.53-6.57,5.8-4.38,8.71-9.97,8.71-16.76,0-5.91-2.14-10.35-6.41-13.31-4.27-2.96-9.64-5.37-16.1-7.23-6.46-1.86-13.47-3.56-21.03-5.09-7.56-1.53-14.57-3.78-21.03-6.74-6.46-2.96-11.83-7.17-16.1-12.65-4.27-5.47-6.41-13.14-6.41-23Z"/>
    <path class="cls-1" d="M148.88,172.52c0-12.05,2.3-23.11,6.9-33.19,4.6-10.08,10.95-18.73,19.06-25.96,8.1-7.23,17.58-12.82,28.43-16.76,10.84-3.94,22.4-5.91,34.67-5.91s23.82,1.97,34.67,5.91c10.84,3.94,20.26,9.53,28.26,16.76,8,7.23,14.35,15.89,19.06,25.96,4.71,10.08,7.07,21.14,7.07,33.19s-2.36,23.39-7.07,33.35c-4.71,9.97-11.06,18.57-19.06,25.8-8,7.23-17.42,12.82-28.26,16.76-10.85,3.94-22.4,5.91-34.67,5.91s-23.82-1.97-34.67-5.91c-10.85-3.94-20.32-9.53-28.43-16.76-8.11-7.23-14.46-15.83-19.06-25.8-4.6-9.97-6.9-21.08-6.9-33.35ZM237.6,110.41c-8.33,0-15.23,1.92-20.7,5.75-5.48,3.83-9.91,8.82-13.31,14.95-3.4,6.14-5.81,12.87-7.23,20.21-1.43,7.34-2.14,14.41-2.14,21.2,0,10.3,1.09,19.34,3.29,27.11,2.19,7.78,5.26,14.24,9.2,19.39,3.94,5.15,8.6,9.04,13.97,11.67,5.37,2.63,11.12,3.94,17.25,3.94s11.88-1.31,17.25-3.94c5.37-2.63,10.02-6.52,13.97-11.67,3.94-5.15,7.01-11.61,9.2-19.39,2.19-7.77,3.29-16.81,3.29-27.11,0-19.93-4.06-35.27-12.16-46.01-8.11-10.73-18.73-16.1-31.88-16.1Z"/>
    <path class="cls-1" d="M337.4,19.38c0-1.75,1.92-3.72,5.75-5.91,3.83-2.19,8.38-4.22,13.64-6.08,5.26-1.86,10.62-3.45,16.1-4.77,5.47-1.31,9.86-1.97,13.14-1.97,1.31,0,2.63.17,3.94.49,1.31.33,2.57,1.15,3.78,2.46,1.2,1.31,2.19,3.34,2.96,6.08.77,2.74,1.15,6.52,1.15,11.34v198.16c0,5.04.82,8.49,2.46,10.35,1.64,1.86,3.39,3.23,5.26,4.11,1.86.88,3.62,1.76,5.26,2.63,1.64.88,2.46,2.85,2.46,5.92s-1.1,5.31-3.29,6.74c-2.19,1.43-4.93,2.14-8.22,2.14h-50.61c-3.29,0-6.03-.71-8.22-2.14-2.19-1.42-3.29-3.67-3.29-6.74,0-2.84.82-4.77,2.46-5.75,1.64-.99,3.39-1.92,5.26-2.79,1.86-.87,3.62-2.24,5.26-4.11,1.64-1.86,2.46-5.31,2.46-10.35V42.72c0-4.16-.93-7.06-2.79-8.71-1.86-1.64-3.89-2.96-6.08-3.94-2.19-.99-4.22-2.14-6.08-3.45-1.86-1.31-2.79-3.72-2.79-7.23Z"/>
    <path class="cls-1" d="M438.28,116.33c0-3.94,1.81-7.5,5.42-10.68,3.61-3.17,8.38-5.86,14.29-8.05,5.91-2.19,12.54-3.89,19.88-5.09,7.34-1.2,14.62-1.81,21.85-1.81,14.68,0,26.95,1.59,36.81,4.77,9.86,3.18,17.85,7.45,23.99,12.82,6.13,5.37,10.51,11.45,13.14,18.24,2.63,6.79,3.94,13.8,3.94,21.03v72.3c0,3.94.87,6.79,2.63,8.54,1.75,1.76,3.62,3.12,5.59,4.11,1.97.99,3.83,2.03,5.59,3.12,1.75,1.1,2.63,2.96,2.63,5.59,0,2.85-.82,5.21-2.46,7.06-1.64,1.86-5.64,2.79-11.99,2.79h-27.6c-5.04,0-8.6-1.09-10.68-3.29-2.08-2.19-3.12-5.8-3.12-10.84v-3.62h-1.31c-5.04,7.23-12.32,12.54-21.85,15.94-9.53,3.39-19.55,5.09-30.07,5.09-9.42,0-17.69-1.31-24.81-3.94-7.12-2.63-13.14-6.19-18.07-10.68-4.93-4.49-8.66-9.69-11.17-15.61-2.52-5.91-3.78-12.05-3.78-18.4,0-10.95,3.34-20.37,10.02-28.26,6.68-7.89,15.22-14.29,25.63-19.22,10.4-4.93,21.96-8.54,34.67-10.84,12.7-2.3,25.19-3.45,37.46-3.45,0-9.86-2.79-17.91-8.38-24.15-5.59-6.24-13.75-9.37-24.48-9.37-6.57,0-11.83.99-15.77,2.96-3.94,1.97-7.51,4.16-10.68,6.57-3.18,2.41-6.47,4.6-9.86,6.57-3.4,1.97-7.72,2.96-12.98,2.96-4.38,0-7.89-1.15-10.51-3.45-2.63-2.3-3.94-5.53-3.94-9.69ZM509.26,165.78c-7.67,2.52-14.24,5.81-19.72,9.86-5.48,4.06-9.69,8.66-12.65,13.8-2.96,5.15-4.44,10.46-4.44,15.94,0,3.73.71,7.45,2.14,11.17,1.42,3.73,3.45,7.01,6.08,9.86,2.63,2.85,5.75,5.15,9.37,6.9,3.62,1.76,7.61,2.63,11.99,2.63,5.91,0,10.95-1.37,15.12-4.11,4.16-2.74,7.56-6.02,10.19-9.86,2.63-3.83,4.54-7.77,5.75-11.83,1.2-4.05,1.81-7.5,1.81-10.35v-38.12c-9.42.22-17.97,1.59-25.63,4.11Z"/>
    <path class="cls-1" d="M607.84,174.82c0-12.27,2.19-23.55,6.57-33.85,4.38-10.3,10.35-19.17,17.91-26.62,7.56-7.45,16.54-13.25,26.95-17.42,10.4-4.16,21.74-6.24,34.01-6.24,7.67,0,15.17.93,22.51,2.79,7.34,1.86,13.85,4.33,19.55,7.39,5.69,3.07,10.24,6.69,13.64,10.85,3.39,4.16,5.09,8.54,5.09,13.14s-1.86,8.66-5.59,11.5c-3.73,2.85-8.76,4.27-15.12,4.27-4.82,0-8.49-1.69-11.01-5.09-2.52-3.39-4.93-7.07-7.23-11.01-2.3-3.94-5.09-7.61-8.38-11.01-3.29-3.39-8.22-5.09-14.79-5.09-5.7,0-10.9,1.59-15.61,4.77-4.71,3.18-8.82,7.72-12.32,13.64-3.51,5.91-6.19,12.93-8.05,21.03-1.86,8.11-2.79,17.09-2.79,26.95,0,8.76,1.26,16.59,3.78,23.5,2.52,6.9,5.86,12.76,10.02,17.58,4.16,4.82,8.98,8.49,14.46,11.01,5.47,2.52,11.28,3.78,17.42,3.78,7.89,0,14.46-1.31,19.72-3.94,5.26-2.63,9.75-5.53,13.47-8.71,3.72-3.17,6.95-6.08,9.69-8.71,2.74-2.63,5.53-3.94,8.38-3.94,2.19,0,4.11.71,5.75,2.14,1.64,1.43,2.46,3.34,2.46,5.75,0,3.51-1.76,7.62-5.26,12.32-3.51,4.71-8.33,9.2-14.46,13.47-6.14,4.27-13.42,7.89-21.85,10.85-8.44,2.96-17.58,4.44-27.44,4.44-11.61,0-22.4-1.92-32.37-5.75-9.97-3.83-18.57-9.25-25.8-16.27-7.23-7.01-12.93-15.39-17.09-25.14-4.16-9.75-6.24-20.54-6.24-32.37Z"/>
    <path class="cls-1" d="M772.15,176.46c0-11.83,1.86-22.95,5.59-33.35,3.72-10.4,9.42-19.5,17.09-27.27,7.67-7.77,17.36-13.91,29.08-18.4,11.72-4.49,25.58-6.74,41.57-6.74,7.01,0,14.24.82,21.69,2.46,7.44,1.64,14.29,4.27,20.54,7.89,6.24,3.61,11.39,8.33,15.45,14.13,4.05,5.81,6.08,12.76,6.08,20.87,0,10.3-3.45,18.79-10.35,25.47-6.9,6.69-15.72,12.05-26.45,16.1-10.74,4.06-22.51,7.07-35.33,9.04-12.82,1.97-25.14,3.29-36.97,3.94,1.09,6.57,3.12,12.38,6.08,17.42,2.96,5.04,6.57,9.26,10.84,12.65,4.27,3.4,8.87,5.91,13.8,7.56,4.93,1.64,9.91,2.46,14.95,2.46,5.47,0,10.51-.6,15.12-1.81,4.6-1.2,8.82-2.79,12.65-4.77,3.83-1.97,7.28-4.11,10.35-6.41,3.07-2.3,5.8-4.54,8.22-6.74,2.19-2.19,4.16-3.89,5.92-5.09,1.75-1.2,3.83-1.81,6.24-1.81,5.04,0,7.56,2.52,7.56,7.56,0,3.94-2.08,8.44-6.24,13.47-4.16,5.04-9.75,9.69-16.76,13.97-7.01,4.27-15.07,7.89-24.15,10.85-9.09,2.96-18.68,4.44-28.75,4.44-11.83,0-22.84-1.97-33.03-5.91-10.19-3.94-19.06-9.37-26.62-16.27-7.56-6.9-13.47-15.12-17.74-24.65-4.27-9.53-6.41-19.88-6.41-31.05ZM862.52,108.44c-7.01,0-13.26,1.54-18.73,4.6-5.48,3.07-10.19,7.34-14.13,12.82-3.94,5.48-6.96,12.05-9.04,19.72-2.08,7.67-3.12,16.1-3.12,25.3v1.97c7.23-.66,14.9-1.86,23-3.62,8.1-1.75,15.55-4.16,22.35-7.23,6.79-3.06,12.43-7.06,16.92-11.99,4.49-4.93,6.74-11.01,6.74-18.24,0-6.79-1.92-12.37-5.75-16.76-3.84-4.38-9.92-6.57-18.24-6.57Z"/>
  </g>
  <circle class="cls-1" cx="974.22" cy="229.48" r="24.78"/>
</svg>