<?xml version="1.0" encoding="UTF-8"?>
<svg id="Layer_2" xmlns="http://www.w3.org/2000/svg" version="1.1" viewBox="0 0 750 100">
  <!-- Generator: Adobe Illustrator 29.7.0, SVG Export Plug-In . SVG Version: 2.1.1 Build 138)  -->
  <defs>
    <style>
      .st0 {
        fill: #fff;
      }

      .st1 {
        fill: #3dba91;
      }

      .st2 {
        fill: #0d3c5f;
      }
    </style>
  </defs>
  <g id="Layer_1-2">
    <g>
      <path class="st1" d="M247.9,72.7c-.9,0-1.8.4-2.7,1.3s-1.9,1.8-3.2,2.9c-1.2,1.1-2.7,2-4.4,2.9s-3.9,1.3-6.4,1.3-3.9-.4-5.7-1.2c-1.8-.8-3.4-2-4.7-3.7-1.4-1.6-2.5-3.5-3.3-5.8s-1.2-4.9-1.2-7.8.3-6.2.9-8.9,1.5-5,2.6-7,2.5-3.5,4-4.5c1.6-1,3.2-1.6,5.1-1.6s3.8.6,4.8,1.7c1.1,1.1,2,2.3,2.7,3.7s1.5,2.5,2.4,3.7c.8,1.1,2,1.7,3.6,1.7s3.7-.5,4.9-1.4,1.8-2.2,1.8-3.8-.6-3-1.7-4.3c-1.1-1.4-2.6-2.6-4.5-3.6s-4-1.8-6.4-2.5c-2.4-.6-4.9-.9-7.4-.9-4,0-7.7.7-11.1,2.1-3.4,1.4-6.3,3.3-8.8,5.7s-4.4,5.4-5.9,8.8c-1.4,3.4-2.1,7.1-2.1,11.2s.7,7.5,2,10.7c1.4,3.2,3.2,6,5.6,8.3,2.4,2.3,5.2,4.1,8.4,5.4s6.8,1.9,10.6,1.9,6.2-.5,9-1.5,5.1-2.2,7.1-3.6,3.6-2.9,4.7-4.5c1.1-1.6,1.7-2.9,1.7-4.1s-.3-1.4-.8-1.9-1.2-.7-1.9-.7h.3ZM136.9,82.9c-.5-.3-1.1-.6-1.7-.9-.6-.3-1.2-.8-1.7-1.4s-.8-1.8-.8-3.4V11.7c0-1.6-.1-2.8-.4-3.8-.3-.9-.6-1.6-1-2s-.8-.7-1.2-.8c-.4,0-.9-.2-1.3-.2-1.1,0-2.5.2-4.3.6s-3.6,1-5.3,1.6c-1.7.6-3.2,1.3-4.5,2-1.2.7-1.9,1.4-1.9,2,0,1.2.3,2,.9,2.4s1.3.8,2,1.1,1.4.8,2,1.3c.6.5.9,1.5.9,2.9v58.3c0,1.7-.3,2.8-.8,3.4s-1.1,1.1-1.7,1.4-1.2.6-1.7.9-.8,1-.8,1.9.4,1.8,1.1,2.2,1.6.7,2.7.7h16.5c1.1,0,2-.2,2.7-.7s1.1-1.2,1.1-2.2-.3-1.7-.8-2h0v.2ZM92.2,70.8c-.7,2.6-1.7,4.7-3,6.4-1.3,1.7-2.8,3-4.6,3.9s-3.6,1.3-5.6,1.3-3.9-.4-5.6-1.3c-1.8-.9-3.3-2.2-4.6-3.9-1.3-1.7-2.3-3.8-3-6.4s-1.1-5.6-1.1-9,.2-4.6.7-7,1.2-4.7,2.4-6.7c1.1-2,2.6-3.7,4.4-4.9,1.8-1.3,4.1-1.9,6.8-1.9,4.3,0,7.8,1.8,10.4,5.3,2.7,3.5,4,8.6,4,15.2s-.4,6.4-1.1,9h-.1ZM99.6,42.2c-2.6-2.4-5.7-4.2-9.2-5.5-3.6-1.3-7.3-2-11.3-2s-7.8.6-11.3,2c-3.5,1.3-6.6,3.2-9.3,5.5-2.7,2.4-4.7,5.2-6.2,8.6s-2.3,7-2.3,11,.8,7.7,2.3,11,3.6,6.1,6.2,8.5c2.7,2.4,5.7,4.2,9.3,5.5s7.3,2,11.3,2,7.8-.7,11.3-2c3.6-1.3,6.6-3.2,9.2-5.5,2.6-2.4,4.7-5.2,6.2-8.5s2.3-7,2.3-11-.8-7.6-2.3-11c-1.6-3.3-3.6-6.2-6.2-8.6ZM38.3,58.7c-2.2-1-4.5-1.8-6.9-2.3-2.5-.5-4.8-1.1-6.9-1.7-2.1-.6-3.9-1.4-5.4-2.2-1.4-.9-2.1-2.2-2.1-3.9s.1-1.6.4-2.5c.3-.8.8-1.6,1.4-2.3s1.5-1.3,2.6-1.7,2.5-.7,4.1-.7c2.8,0,4.9.5,6.4,1.4,1.5.9,2.7,1.9,3.6,3s1.8,2.1,2.5,3,1.7,1.4,3,1.4.8,0,1.1-.2c.3,0,.5-.4.8-.9.2-.5.4-1.2.4-2.1s0-2.2,0-3.9-.5-2.2-1.4-3.2-2.2-1.8-3.8-2.6-3.5-1.4-5.6-1.8-4.5-.6-7-.6-5.3.3-7.9,1-5,1.7-7.1,3.2c-2.1,1.4-3.8,3.2-5.2,5.4-1.3,2.2-2,4.8-2,7.8s.7,5.8,2.1,7.6,3.1,3.2,5.3,4.2c2.1,1,4.4,1.7,6.9,2.2s4.8,1.1,6.9,1.7c2.1.6,3.9,1.4,5.3,2.4s2.1,2.4,2.1,4.4-1,4.1-2.9,5.5c-1.9,1.5-4.2,2.2-7,2.2s-3.4-.3-4.7-.8-2.3-1.2-3.2-2-1.6-1.6-2.3-2.6c-.6-.9-1.2-1.8-1.8-2.6-.6-.8-1.2-1.4-1.8-2-.7-.5-1.4-.8-2.4-.8s-2.5.6-3.2,1.8c-.7,1.2-1.1,2.5-1.1,3.7s.5,2,1.5,3.3,2.4,2.6,4.2,3.9,4,2.3,6.6,3.2,5.4,1.3,8.5,1.3,6.6-.4,9.5-1.3c2.9-.9,5.4-2.1,7.4-3.7s3.6-3.6,4.8-5.9c1.1-2.3,1.7-4.9,1.7-7.8s-.7-5.5-2.2-7.3c-1.4-1.8-3.2-3.2-5.4-4.2h.1ZM177.5,70.8c0,.9-.2,2.1-.6,3.4s-1,2.6-1.9,3.9-2,2.3-3.3,3.3-3,1.4-4.9,1.4-2.7-.3-3.9-.9-2.2-1.3-3.1-2.3-1.5-2-2-3.3c-.5-1.2-.7-2.5-.7-3.7,0-1.8.5-3.6,1.4-5.3s2.3-3.2,4.1-4.6c1.8-1.3,3.9-2.4,6.4-3.3,2.5-.8,5.3-1.3,8.4-1.4v12.6h0v.2ZM196,82.6c-.6-.4-1.2-.7-1.8-1s-1.2-.8-1.8-1.4-.9-1.5-.9-2.8v-23.9c0-2.4-.4-4.7-1.3-7s-2.3-4.3-4.3-6c-2-1.8-4.6-3.2-7.8-4.2s-7.2-1.6-12-1.6-4.8.2-7.1.6-4.6,1-6.5,1.7-3.5,1.6-4.7,2.7-1.8,2.2-1.8,3.5.4,2.5,1.3,3.2,2,1.1,3.4,1.1,3.1-.3,4.2-1c1.1-.7,2.2-1.4,3.2-2.2s2.2-1.5,3.5-2.2,3-1,5.1-1c3.5,0,6.2,1,8,3.1s2.7,4.7,2.7,8c-4,0-8.1.4-12.2,1.1-4.2.8-7.9,2-11.3,3.6-3.4,1.6-6.2,3.8-8.4,6.3-2.2,2.6-3.3,5.7-3.3,9.3s.4,4.1,1.2,6.1,2,3.7,3.7,5.2c1.6,1.5,3.6,2.7,5.9,3.5,2.3.9,5,1.3,8.1,1.3s6.7-.6,9.8-1.7,5.5-2.9,7.1-5.3h.4v1.2c0,1.7.3,2.9,1,3.6s1.8,1.1,3.5,1.1h9c2.1,0,3.4-.3,3.9-.9s.8-1.4.8-2.3-.3-1.5-.9-1.8h.3ZM269.9,61.2c0-3,.3-5.8,1-8.4.7-2.5,1.7-4.7,3-6.5s2.8-3.2,4.6-4.2c1.8-1,3.8-1.5,6.1-1.5s4.7.7,6,2.2,1.9,3.3,1.9,5.5-.7,4.4-2.2,6-3.3,3-5.5,4-4.6,1.8-7.3,2.4c-2.6.6-5.1,1-7.5,1.2v-.7h-.1ZM304.8,72.2c-.8,0-1.5.2-2,.6s-1.2,1-1.9,1.7c-.8.7-1.7,1.5-2.7,2.2s-2.1,1.5-3.4,2.1c-1.2.7-2.6,1.2-4.1,1.6s-3.1.6-4.9.6-3.3-.3-4.9-.8-3.1-1.4-4.5-2.5-2.6-2.5-3.5-4.2c-1-1.7-1.6-3.6-2-5.8,3.9-.2,7.9-.7,12.1-1.3,4.2-.7,8-1.7,11.5-3,3.5-1.3,6.4-3.1,8.6-5.3,2.3-2.2,3.4-5,3.4-8.4s-.7-5-2-6.9-3-3.5-5.1-4.7c-2-1.2-4.3-2.1-6.7-2.6s-4.8-.8-7.1-.8c-5.2,0-9.8.8-13.6,2.2-3.8,1.5-7,3.5-9.5,6.1s-4.4,5.6-5.6,9c-1.2,3.4-1.8,7.1-1.8,11s.7,7.1,2.1,10.3,3.3,5.9,5.8,8.2c2.5,2.3,5.4,4.1,8.7,5.4,3.3,1.3,6.9,2,10.8,2s6.4-.5,9.4-1.5,5.6-2.2,7.9-3.6,4.1-2.9,5.5-4.6,2-3.2,2-4.5-.8-2.5-2.5-2.5h0ZM320.8,73.3c-4.2,0-7.7,3.5-7.7,7.8s3.4,7.8,7.7,7.8,7.7-3.5,7.7-7.8-3.4-7.8-7.7-7.8Z"/>
      <g>
        <rect class="st0" x="339.6" y="29.6" width="407.6" height="64.2" rx="30.1" ry="30.1"/>
        <path class="st2" d="M717.1,95h-347.4c-17.3,0-31.3-14.1-31.3-31.3v-4c0-17.3,14.1-31.3,31.3-31.3h347.4c17.3,0,31.3,14.1,31.3,31.3v4c0,17.3-14.1,31.3-31.3,31.3ZM369.7,30.9c-15.9,0-28.8,12.9-28.8,28.8v4c0,15.9,12.9,28.8,28.8,28.8h347.4c15.9,0,28.8-12.9,28.8-28.8v-4c0-15.9-12.9-28.8-28.8-28.8h-347.4,0Z"/>
      </g>
      <g>
        <path class="st2" d="M372.6,75.8v-28.9h8.9c2.8,0,5.2.6,7.3,1.8s3.8,2.9,5,5.1c1.2,2.2,1.8,4.7,1.8,7.5s-.6,5.3-1.8,7.5c-1.2,2.2-2.9,3.9-5,5.1s-4.6,1.9-7.3,1.9h-8.9ZM376.6,72h4.9c1.4,0,2.7-.3,3.9-.8,1.2-.5,2.3-1.3,3.2-2.3s1.6-2.1,2.1-3.4.8-2.7.8-4.2-.2-2.9-.8-4.2c-.5-1.3-1.2-2.4-2.1-3.4s-2-1.7-3.2-2.3c-1.2-.5-2.5-.8-3.9-.8h-4.9v21.3h0Z"/>
        <path class="st2" d="M411,75.8v-28.9h17.4v3.7h-13.3v8.6h12v3.6h-12v9.2h13.4v3.7h-17.5Z"/>
        <polygon class="st2" points="465.9 46.9 456.1 71.3 446.3 46.9 442 46.9 453.9 75.8 454.2 75.8 454.3 75.8 457.9 75.8 458.3 75.8 470.2 46.9 465.9 46.9"/>
        <path class="st2" d="M484.1,75.8v-28.9h17.4v3.7h-13.3v8.6h12v3.6h-12v9.2h13.4v3.7h-17.5Z"/>
        <path class="st2" d="M518.5,75.8v-28.9h4v25.2h13.4v3.7h-17.5,0Z"/>
        <path class="st2" d="M561.8,76.3c-2.8,0-5.3-.6-7.5-1.9s-3.9-3-5.1-5.3c-1.2-2.3-1.8-4.8-1.8-7.7s.6-5.5,1.8-7.8c1.2-2.2,2.9-4,5.1-5.3s4.6-1.9,7.4-1.9,5.3.6,7.4,1.9,3.8,3,5,5.3c1.2,2.2,1.8,4.8,1.8,7.7s-.6,5.5-1.8,7.8-2.9,4-5,5.3-4.6,1.9-7.4,1.9h0ZM561.8,72.5c2,0,3.7-.5,5.2-1.4,1.5-1,2.7-2.3,3.5-4s1.3-3.6,1.3-5.8-.4-4.1-1.3-5.8-2.1-3-3.6-4-3.3-1.4-5.3-1.4-3.7.5-5.3,1.4c-1.5,1-2.8,2.3-3.6,4s-1.3,3.6-1.3,5.8.4,4.1,1.3,5.8,2.1,3,3.7,4c1.5,1,3.3,1.4,5.3,1.4h0Z"/>
        <path class="st2" d="M591.4,75.8v-28.9h9.7c1.9,0,3.6.4,5.1,1.2s2.6,1.9,3.5,3.3c.8,1.4,1.3,3,1.3,4.8s-.4,3.4-1.2,4.8-1.8,2.5-3.2,3.3-2.9,1.2-4.7,1.2h-6.5v10.3h-4,0ZM595.4,61.7h6.4c1.5,0,2.7-.5,3.6-1.5s1.4-2.4,1.4-4-.5-3-1.6-4-2.5-1.5-4.2-1.5h-5.7v11.1h0Z"/>
        <path class="st2" d="M625.4,75.8v-28.9h17.4v3.7h-13.3v8.6h12v3.6h-12v9.2h13.4v3.7h-17.5Z"/>
        <path class="st2" d="M673.5,63.9c.3-.1.6-.2.9-.4,1.6-.8,2.9-1.9,3.7-3.2s1.3-2.9,1.3-4.6-.5-3.3-1.3-4.6c-.9-1.3-2-2.3-3.5-3.1-1.5-.7-3.2-1.1-5.1-1.1h-9.7v28.9h0c0,0,4,0,4,0v-11.1h5.3c0,0,.2,0,.2,0l6.5,11.2h4.6l-7-11.9ZM663.8,61v-.2s0-10.4,0-10.4h5.6c1.7,0,3.1.5,4.2,1.5s1.6,2.3,1.6,3.8-.2,1.9-.7,2.7c-.5.8-1.1,1.4-1.9,1.9s-1.7.7-2.7.7h-6.1Z"/>
        <path class="st2" d="M705,76.3c-1.5,0-2.9-.2-4.2-.5s-2.3-.8-3.3-1.5-1.7-1.3-2.3-2.1-1-1.6-1.3-2.4l3.9-1.3c.4,1.1,1.2,2.1,2.3,2.9,1.2.8,2.6,1.2,4.2,1.3,2,0,3.6-.4,4.8-1.2s1.8-1.9,1.8-3.2-.5-2.2-1.5-3-2.4-1.4-4-1.8l-3.3-.9c-1.3-.4-2.5-.9-3.6-1.5-1.1-.7-2-1.5-2.6-2.5s-1-2.2-1-3.7c0-2.6.9-4.7,2.6-6.2,1.7-1.5,4.2-2.2,7.5-2.2s3.5.3,4.9.9c1.4.6,2.5,1.4,3.4,2.3s1.5,2,1.9,3.2l-3.9,1.3c-.5-1.2-1.3-2.2-2.4-3-1.1-.8-2.5-1.1-4.2-1.1s-3.1.4-4.1,1.2-1.5,2-1.5,3.4.4,2.1,1.2,2.8,1.8,1.1,3.2,1.5l3.3.8c2.7.7,4.8,1.8,6.2,3.3,1.4,1.5,2.2,3.2,2.2,5s-.4,3-1.2,4.2-1.9,2.2-3.5,3-3.4,1.1-5.6,1.1h0Z"/>
      </g>
    </g>
  </g>
</svg>